<?xml version="1.0" encoding="UTF-8"?>
<svg width="259px" height="325px" viewBox="0 0 259 325" version="1.1" xmlns="http://www.w3.org/2000/svg" xmlns:xlink="http://www.w3.org/1999/xlink">
    <!-- Generator: Sketch 49.3 (51167) - http://www.bohemiancoding.com/sketch -->
    <title>illu</title>
    <desc>Created with Sketch.</desc>
    <defs></defs>
    <g id="WebDesign" stroke="none" stroke-width="1" fill="none" fill-rule="evenodd">
        <g id="Homepage-320" transform="translate(-36.000000, -2035.000000)">
            <g id="Section-3" transform="translate(17.000000, 2035.000000)">
                <g id="illu" transform="translate(20.000000, 0.000000)">
                    <g id="pin-copy" transform="translate(172.000000, 0.000000)" fill-rule="nonzero">
                        <path d="M17,0.11227 C7.61119,0.11227 0,7.72339 0,17.11227 C0,27.25461 12.8726,40.3418 16.21486,43.56885 C16.65522,43.99403 17.34477,43.99403 17.78514,43.56885 C21.12741,40.3418 34,27.25461 34,17.11227 C34,7.72339 26.38881,0.11227 17,0.11227 Z" id="Shape" fill="#443C77"></path>
                        <circle id="Oval" fill="#FFFFFF" cx="17" cy="17" r="6"></circle>
                    </g>
                    <path d="M188.886719,43.28125 C184.235677,55.5182292 176.617188,61.6367187 166.03125,61.6367187 C150.152344,61.6367187 131.378906,69.2890625 131.378906,85.1640625 C131.378906,101.039062 138.453125,138.335937 221.734375,158.375 C305.015625,178.414062 218.628906,243.710937 151.972656,193.3125 C85.3164063,142.914062 41.1367188,144.183594 17.0234375,158.375 C-7.08984375,172.566406 -12.6601562,230.394531 69.65625,246.085937 C151.972656,261.777344 122.289062,310.109375 69.65625,294.308594 C17.0234375,278.507812 17.0234375,302.019531 17.0234375,322.949219" id="Path" stroke="#2E5266" stroke-width="4" stroke-dasharray="10"></path>
                    <g id="pin-delete" transform="translate(0.000000, 280.000000)" fill-rule="nonzero">
                        <path d="M17.0008078,45.0008078 C16.735613,45.0007512 16.4813005,44.8953572 16.2938078,44.7078078 C15.6278078,44.0428078 0.000807803496,28.2858078 0.000807803496,17.0008078 C-0.0434609611,12.4787017 1.73338625,8.1289165 4.93115137,4.93115137 C8.1289165,1.73338625 12.4787017,-0.0434609611 17.0008078,0.000807803496 C21.5229139,-0.0434609611 25.8726991,1.73338625 29.0704642,4.93115137 C32.2682294,8.1289165 34.0450766,12.4787017 34.0008078,17.0008078 C34.0008078,28.2858078 18.3738078,44.0428078 17.7078078,44.7078078 C17.5203151,44.8953572 17.2660026,45.0007512 17.0008078,45.0008078 Z" id="Shape" fill="#2AD6A5"></path>
                        <circle id="Oval" fill="#FFFFFF" cx="17" cy="17" r="6"></circle>
                    </g>
                </g>
            </g>
        </g>
    </g>
</svg>