<svg width="70" height="24" viewBox="0 0 70 24" xmlns="http://www.w3.org/2000/svg"><title>Bêta</title><g fill="none" fill-rule="evenodd"><rect fill="#05CFA8" width="70" height="24" rx="8"/><path d="M20.68 19.14h-4.94c-1.42 0-2.02-.62-2.02-2.14V5.72c0-1.54.6-2.16 2.02-2.16h4.72c2.88 0 4.54 1.38 4.54 3.78 0 1.9-.82 3.02-2.54 3.58 2.04.42 3.08 1.74 3.08 3.9 0 2.72-1.78 4.32-4.86 4.32zm-5.1-9h4.78c1.72 0 2.72-.96 2.72-2.56 0-1.56-.94-2.36-2.76-2.36h-4.16c-.38 0-.58.24-.58.64v4.28zm0 1.64v5.04c0 .44.2.66.64.66h4.24c2.02 0 3.1-1 3.1-2.84 0-1.88-1.1-2.86-3.14-2.86h-4.84zm20.66 2.16H29.2c.04 2.46 1.26 4 3.42 4 1.44 0 2.24-.72 2.72-1.78.18-.36.44-.5.72-.5.14 0 .28.04.42.08.34.1.62.34.62.7 0 .12-.02.24-.1.36-.64 1.32-1.8 2.64-4.4 2.64-3.28 0-5.18-2.32-5.18-5.78 0-3.46 1.8-5.88 5.06-5.88 2.92 0 4.56 2.28 4.76 4.9v.16c0 .72-.38 1.1-1 1.1zm-6.98-1.46h5.86c.22 0 .3-.08.3-.26v-.1c-.24-1.42-1.1-2.88-2.94-2.88-1.92 0-2.96 1.28-3.22 3.24zm3.26-7.62l2.14 1.86c.12.1.26.16.4.16.12 0 .24-.04.34-.16.12-.1.16-.22.16-.34 0-.12-.06-.26-.16-.38l-1.76-2.1c-.26-.3-.6-.46-1.12-.46-.5 0-.84.14-1.12.46l-1.78 2.12c-.1.12-.16.26-.16.38s.06.24.18.34c.1.1.22.14.34.14.14 0 .28-.06.4-.16l2.14-1.86zm8.08 3.2h-1.54c-.5 0-.72.34-.72.8s.22.78.7.78h1.56v6.86c0 2.1 1.2 2.92 2.84 2.92.86 0 1.4-.16 1.98-.44.3-.16.42-.44.42-.72 0-.14-.02-.3-.08-.44-.12-.3-.36-.52-.66-.52-.12 0-.24.04-.36.1-.34.2-.68.34-1.18.34-.74 0-1.16-.42-1.16-1.4v-6.7h2.56c.48 0 .74-.32.74-.78 0-.48-.24-.8-.74-.8H42.4V5.64c0-.52-.38-.8-.9-.8-.56 0-.9.28-.9.8v2.42zm13.64 4v-.86c0-1.32-.72-1.9-2.3-1.9-1.46 0-2.18.56-2.52 1.48-.14.38-.44.52-.78.52-.16 0-.32-.02-.46-.08-.38-.12-.66-.4-.66-.76 0-.08.02-.16.04-.24.2-.62.72-1.2 1.18-1.56.7-.54 1.6-.88 3.22-.88 2.68 0 4 1.06 4 3.42v5.46c0 .7.1 1.38.22 1.76.02.06.04.14.04.2 0 .32-.3.6-.8.64h-.18c-.4 0-.76-.12-.84-.48-.06-.24-.1-.6-.12-1-.76.86-1.82 1.64-3.8 1.64-2.2 0-3.54-1.24-3.54-3.3 0-1.88 1.12-3.08 3.02-3.6 1.1-.3 2.14-.42 4.28-.46zm0 2.78V13.5c-2.34.06-3.44.26-4.24.66-.8.4-1.22 1.02-1.22 1.98 0 1.04.8 1.74 2 1.74 1.26 0 2.3-.62 2.94-1.42.38-.48.52-.86.52-1.62z" fill="#FFF"/></g></svg>