<svg xmlns="http://www.w3.org/2000/svg" xmlns:xlink="http://www.w3.org/1999/xlink" x="0px" y="0px" viewBox="0 0 48 48" width="48" height="48"><g class="nc-icon-wrapper"><path fill="#444444" d="M45,45H3c-1.105,0-2-0.895-2-2V11c0-1.105,0.895-2,2-2h42c1.105,0,2,0.895,2,2v32C47,44.105,46.105,45,45,45 z"/> <path fill="#848484" d="M40,40H8c-0.552,0-1-0.448-1-1V15c0-0.552,0.448-1,1-1h32c0.552,0,1,0.448,1,1v24C41,39.552,40.552,40,40,40 z"/> <path fill="#C6C6C6" d="M42.585,3.189C42.322,3,41.987,2.95,41.684,3.051L24,8.946V39c0.106,0,0.213-0.017,0.316-0.051l18-6 C42.725,32.812,43,32.431,43,32V4C43,3.679,42.846,3.377,42.585,3.189z"/> <path fill="#E6E6E6" d="M24,8.946L6.316,3.051C6.011,2.95,5.676,3,5.415,3.189C5.154,3.377,5,3.679,5,4v28 c0,0.431,0.275,0.812,0.684,0.949l18,6C23.787,38.983,23.894,39,24,39V8.946z"/></g></svg>