<svg xmlns="http://www.w3.org/2000/svg" xmlns:xlink="http://www.w3.org/1999/xlink" viewBox="0 0 46 46">
  <g fill="none" fill-rule="evenodd">
    <circle cx="23" cy="23" r="23" fill="#B3B3B3" fill-rule="nonzero"/>
    <path fill="#444" d="M13 17c0-5.52285 4.47715-10 10-10s10 4.47715 10 10v8.9935C33 28.20623 31.20753 30 29.00077 30H16.99923C14.79052 30 13 28.20605 13 25.9935V17z"/>
    <path fill="#EAC3A2" d="M18 23h10v11.41304H18z"/>
    <path fill="#FA3877" d="M36.30908 34.15454L28 30s-2 2-5 2-5-2-5-2l-8.30908 4.15454C8.19812 34.90094 7 36.8393 7 38.49146v1.023C11.14014 43.52644 16.77972 46 23 46c6.22028 0 11.85986-2.47357 16-6.48553v-1.02302c0-1.64978-1.20477-3.59387-2.69092-4.3369z"/>
    <path fill="#EAD8C5" d="M15 18.54545V20c0 4.41091 3.58909 8 8 8 4.41091 0 8-3.58909 8-8v-1.45455c0-1.20498-.97683-2.18182-2.18182-2.18182-2.53304 0-4.73001-1.43886-5.81818-3.54385-1.08817 2.10499-3.28514 3.54385-5.81818 3.54385-1.20499 0-2.18182.97684-2.18182 2.18182z"/>
  </g>
</svg>
