<?xml version="1.0" encoding="UTF-8"?>
<svg width="519px" height="328px" viewBox="0 0 519 328" version="1.1" xmlns="http://www.w3.org/2000/svg" xmlns:xlink="http://www.w3.org/1999/xlink">
    <!-- Generator: Sketch 63.1 (92452) - https://sketch.com -->
    <title>MT_M17_07</title>
    <desc>Created with Sketch.</desc>
    <g id="WebDesign-1.2" stroke="none" stroke-width="1" fill="none" fill-rule="evenodd">
        <g id="1.2/Register" transform="translate(-361.000000, -711.000000)">
            <g id="MT_M17_07" transform="translate(361.000000, 711.000000)">
                <path d="M6.90461538,292.323077 C5.46461538,292.758769 3.73661538,293.061538 2.52061538,292.355077 C1.30461538,291.648615 1.14461538,290.166769 1.75507692,289.032 C2.36553846,287.897231 3.55446154,287.023385 4.70892308,286.191385 C7.08184615,284.468308 22.1858462,272.817846 21.5113846,280.598769 C21.0830769,285.588308 12.0787692,290.76 6.90461538,292.323077 Z" id="Path" fill="#4055EC" fill-rule="nonzero"></path>
                <path d="M25.6689231,266.243077 C27.5495385,265.470154 29.4596923,264.699692 31.4830769,264.436308 C33.5064615,264.172923 35.6824615,264.468308 37.3513846,265.667077 C37.584577,265.812836 37.7761945,266.016324 37.9076923,266.257846 C38.1366154,266.750154 37.8707692,267.338462 37.5778462,267.798769 C35.584,270.927385 32.1255385,272.928615 28.4873846,273.681846 C24.8492308,274.435077 21.0363077,274.038769 17.4104615,273.132923 C10.9563077,271.530462 24.1230769,266.873231 25.6689231,266.243077 Z" id="Path" fill="#4055EC" fill-rule="nonzero"></path>
                <path d="M15.9064615,251.084923 C18.3458462,250.262769 20.8295385,249.443077 23.2393846,249.135385 C25.6492308,248.827692 28.0689231,249.081231 29.5753846,250.262769 C29.7867801,250.39886 29.9402494,250.608455 30.0061538,250.851077 C30.0947692,251.343385 29.5852308,251.944 29.088,252.416615 C25.6935385,255.616615 21.0043077,257.726154 16.5341538,258.570462 C12.064,259.414769 7.82276923,259.087385 3.95815385,258.248 C-2.90461538,256.748923 13.9126154,251.769231 15.9064615,251.084923 Z" id="Path" fill="#4055EC" fill-rule="nonzero"></path>
                <path d="M49.8190769,244.783385 C56.4307692,231.158769 44.4898462,210.206154 54.2498462,195.040615 C59.5544615,175.793846 64.2486154,140.992615 49.5089231,126.117538 C36.5292308,140.692308 48.9304615,118.161846 32.5243077,143.712615 C23.2467692,158.161846 10.0406154,223.614154 2.96615385,243.897231 L0.361846154,325.046769 L30.304,325.046769 L49.8190769,244.783385 Z" id="Path" fill="#A2FED5"></path>
                <path d="M201.636923,198.942154 C201.518769,206.609846 200.859077,220.756308 200.068923,236.751385 C198.72,264.106462 196.979692,296.864615 196.893538,311.828308 C196.871385,315.690462 196.918154,319.542769 197.048615,322.726404 C197.048615,322.784615 196.489846,319.798769 196.494769,319.855385 L53.2923077,320.291077 C52.0615385,296.906462 43.392,220.620923 43.0843077,200.337846 C42.7643077,179.500923 37.7895385,149.435692 42.3778462,137.199385 C46.9661538,124.963077 39.6996923,133.194462 50.2276923,126.860923 C60.7556923,120.527385 83.0350769,117.593231 96.0123077,112.337846 C104.839385,113.691692 111.579077,114.282462 119.643077,115.685538 C128.059077,113.866462 135.347692,113.224 144.644923,111.675692 C146.614154,112.382154 148.782769,113.041846 151.089231,113.672 L151.089231,113.672 C163.822769,117.147692 180.654769,119.690462 191.035077,124.121231 C191.040765,124.120103 191.046619,124.120103 191.052308,124.121231 L198.798769,129.064 L200.893538,130.400615 C200.893538,130.400615 200.893538,130.400615 200.910769,130.400615 C201.070769,131.473846 201.511385,133.192 202.611692,135.968615 C207.441231,148.168 201.961846,178.169231 201.636923,198.942154 Z" id="Path" fill="#82DAB3"></path>
                <path d="M121.651692,129.676923 C122.365538,130.474462 118.429538,131.304 118.092308,131.4 C116.837069,131.760261 115.616933,132.233157 114.446769,132.812923 C112.136077,133.959822 110.23298,135.78817 108.994462,138.051077 C104.809846,145.802462 110.412308,152.756308 113.006769,159.902154 C114.818324,164.897211 116.371963,169.982072 117.661538,175.136615 C120.126869,185.059024 121.709247,195.180145 122.390154,205.381538 C123.556923,222.334154 123.052308,239.929231 116.824615,255.953846 C113.218462,265.231385 107.778462,259.247385 101.939692,255.658462 C99.5667692,254.201231 96.3667692,252.805538 94.4221538,250.767385 C93.2972308,249.588308 88.6375385,132.901538 88.6375385,132.901538 L92.4036923,113.174769 C92.4036923,113.174769 101.179077,122.809231 111.561846,126.595077 C113.270154,127.217846 114.953846,127.907077 116.684308,128.470769 C117.41366,128.673469 118.153136,128.837797 118.899692,128.963077 C119.561846,129.103385 121.115077,129.167385 121.627077,129.644923 L121.651692,129.676923 Z" id="Path" fill="#64B28F" fill-rule="nonzero" opacity="0.54"></path>
                <path d="M144.103385,111.018462 L144.041846,111.018462 C135.862154,112.328 127.739077,113.925538 119.640615,115.660923 C111.826051,114.348103 103.993436,113.131282 96.1427692,112.010462 C93.632,112.737436 91.1253333,113.475897 88.6227692,114.225846 C89.0110321,115.380638 89.6810857,116.420405 90.5723077,117.251077 C109.218462,134.026462 127.436308,134.326769 145.856,119.958769 L145.986462,119.857846 C146.043077,119.670769 146.107077,119.486154 146.168615,119.299077 C146.956568,116.913669 147.613952,114.487098 148.137846,112.030154 L144.103385,111.018462 Z" id="Path" fill="#FFFFFF"></path>
                <path d="M205.181538,133.992 L205.208615,134.851077 C207.052308,152.495385 207.286154,173.989538 204.962462,193.103385 C204.364308,198.026462 203.630769,205.952615 203.165538,212.266462 C202.658462,219.158769 202.840615,230.824 203.318154,243.633846 C204.103385,264.601231 205.691077,288.68 206.368,300.145846 C206.456615,301.647385 206.503385,302.312 206.614154,303.983385 C206.899692,308.325538 207.227077,312.891692 207.529846,317.556308 C207.650462,319.358154 207.372308,318.294769 207.529846,320.576615 C203.884308,320.037538 143.556923,320.291077 143.556923,320.291077 C140.753231,301.681846 130.690462,219.072615 130.264615,205.918154 C129.336615,177.004923 136.548923,159.907077 139.52,141.364308 C140.140308,137.507077 141.696,134.031385 142.902154,130.312 C143.995077,126.932308 144.844308,123.372923 145.947077,119.973538 L149.193846,114.169231 C149.858566,114.186438 150.51466,114.015803 151.086769,113.676923 L151.086769,113.676923 C151.985231,113.216615 152.932923,112.581538 154.397538,112.446154 C164.947692,111.417231 179.571692,117.546462 191.032615,124.133538 C191.038304,124.132411 191.044158,124.132411 191.049846,124.133538 C193.895385,125.770462 196.548923,127.432 198.889846,129.024615 C199.586462,129.492308 200.253538,129.962462 200.891077,130.412923 C200.891077,130.412923 200.891077,130.412923 200.908308,130.412923 C202.166154,131.316308 203.308308,132.175385 204.315077,132.987692 L205.181538,133.992 Z" id="Path" fill="#A2FED5"></path>
                <path d="M146.498462,111.614154 C147.847385,111.537846 146.877538,110.225846 148.913231,110.713231 C150.948923,111.200615 155.426462,113.470154 158.119385,114.708308 C160.403692,120.291077 156.642462,127.262154 154.840615,132.456 C152.169846,140.145846 149.110154,147.572308 147.281231,155.557538 C147.059692,156.52 146.845538,157.502154 146.353231,158.358769 C144.681846,161.260923 135.662769,158.321846 135.030154,162.363692 C136.211698,154.541009 137.864761,146.796851 139.980308,139.173538 C142.286769,130.742769 145.609846,120.815385 148.162462,112.096615 C147.655385,111.860308 147.136,111.835692 146.498462,111.614154 Z" id="Path" fill="#82DAB3"></path>
                <path d="M92.3224615,112.611077 C96.0147692,127.838154 97.2184615,124.559385 100.157538,143.24 C103.096615,161.920615 112.876308,177.354462 113.624615,205.935385 C113.956923,218.641846 106.454154,309.263385 103.945846,327.102154 C82.7249231,328.593846 61.5261538,324.640615 40.3027692,324.527385 C40.5341538,321.285538 43.2566154,272.716923 43.4289231,269.450462 C44.7015385,246.723077 43.0227692,216.409231 40.4750769,195.387692 C37.9273846,174.366154 38.3064615,152.714462 40.3667692,137.150154 C40.6129231,135.203077 40.8590769,133.152615 41.5261538,131.294154 C42.1661538,129.514462 43.8473846,128.805538 45.4129231,127.978462 C53.0166154,123.958769 61.4941538,122.070769 69.6861538,119.646154 C76.8246154,117.541538 84.1329231,115.707692 91.1261538,113.150154 C91.2196923,113.115692 92.3618462,112.771077 92.3224615,112.611077 Z" id="Path" fill="#A2FED5"></path>
                <path d="M93.9323077,112.665231 C92.7015385,112.608615 93.4966154,111.299077 91.6332308,111.801231 C89.7698462,112.303385 85.7870769,114.639385 83.3673846,115.875077 C81.3981538,122.504 90.5501538,147.382769 91.3083077,153.903385 C92.0664615,160.424 100.775385,158.444923 106.146462,163.205538 C104.339692,155.082462 102.727385,148.512615 100.612923,140.086769 C98.4984615,131.660923 95.2738462,121.731077 92.4036923,113.174769 C92.8689231,112.923692 93.3489231,112.891692 93.9323077,112.665231 Z" id="Path" fill="#82DAB3"></path>
                <path d="M137.686154,116.916308 C127.748923,122.986462 114.771692,123.577231 104.514462,118.206154 C101.442777,116.606766 98.6745029,114.482451 96.3347692,111.929231 C96.5809231,111.722462 97.0732308,111.779077 97.3193846,111.717538 C98.1243077,111.513231 98.8209231,111.592 99.6012308,111.365538 C101.627077,110.779692 103.606154,111.592 105.533538,110.12 C107.460923,108.648 108.733538,108.396923 108.795077,104.539692 C108.832,102.885538 108.822154,100.709538 108.795077,98.3046154 C108.795077,98.0732308 108.795077,97.8393846 108.795077,97.6055385 C108.701538,91.6264615 108.475077,84.4781538 108.374154,80.5913846 C108.226462,74.9569231 107.980308,74.2430769 107.825231,69.5907692 C112.384,70.4572308 116.915692,71.1858462 121.422769,72.2073846 C125.885538,70.7304615 130.390154,69.5292308 134.897231,68.1630769 C134.988308,72.744 134.651077,73.8418462 134.820923,79.3310769 C134.929231,82.6295385 134.980923,88.7144615 135.067077,94.1913846 C133.801715,95.1601992 132.454248,96.0167797 131.04,96.7513846 C130.114462,100.635692 129.976615,103.889846 131.404308,105.920615 C134.212923,109.898462 134.872615,114.134769 137.686154,116.916308 Z" id="Path" fill="#FFCAE1"></path>
                <path d="M147.643077,55.2596923 C147.916308,55.2129231 148.049231,55.3335385 148.290462,55.3310769 C148.290462,55.3310769 148.290462,55.3310769 148.290462,55.3310769 L148.305231,55.3163077 C152.580923,53.6596923 155.298462,59.6363077 155.460923,63.5009231 C155.650462,67.9932308 152.590769,72.3624615 147.598769,72.5667692 C142.606769,72.7710769 139.081846,69.3667692 138.446769,64.5076923 C138.077538,61.6818462 139.411692,59.432 141.196308,57.4209231 C141.240615,60.3378462 141.794462,62.728 144.950154,63.3286154 C144.905846,61.8664615 144.620308,59.7126154 144.622769,58.4055385 C144.632615,56.2566154 145.880615,55.5649231 147.643077,55.2596923 Z" id="Path" fill="#FDB2D0"></path>
                <path d="M140.514462,64.2615385 C141.459692,71.8209231 133.489231,86.4670769 131.037538,96.7538462 C127.2345,98.7258964 123.013778,99.7565966 118.729846,99.7593846 C116.144923,99.7800319 113.566495,99.497487 111.047385,98.9175385 L111.035077,98.9175385 C110.272,98.7427692 109.521231,98.5384615 108.787692,98.3095385 C98.0135385,94.9470769 90.2621538,86.0018462 88.2781538,74.1864615 C88.1107692,73.2018462 87.9852308,72.1950769 87.9015385,71.1661538 C87.3329231,64.2147692 86.8898462,51.5206154 86.7076923,45.1206154 C86.1883077,26.8116923 97.1963077,15.5353846 114.567385,15.2006154 C131.938462,14.8658462 143.753846,22.4104615 145.476923,43.5230769 C145.476923,43.5550769 145.789538,49.2732308 146.107077,55.5132308 L122.742154,42.9987692 C123.234462,43.336 139.234462,54.0116923 140.514462,64.2615385 Z" id="Path" fill="#FFCAE1"></path>
                <path d="" id="Path" fill="#FDB2D0" fill-rule="nonzero"></path>
                <path d="M152.300308,53.2338462 L152.300308,53.2338462 C151.740975,54.1766498 151.133824,55.0902516 150.481231,55.9710769 C148.585846,56.1630769 146.520615,57.4036923 146.338462,59.2104615 C146.156308,61.0172308 146.567385,61.9009231 146.486154,63.5304615 C145.367428,63.3616418 144.396807,62.6682102 143.874462,61.6646154 C142.944,59.9735385 143.136,58.2332308 143.010462,56.3624615 C143.010462,56.264 143.118769,56.0375385 143.010462,55.9070769 C139.428923,51.7224615 139.975385,49.6153846 139.955692,44.0473846 C139.936,38.4793846 127.630769,35.784 122.318769,35.2818462 C117.006769,34.7796923 110.862769,34.3907692 105.435077,33.9009231 C102.870154,34.6123077 100.369231,35.3236923 97.8264615,36.0375385 C95.5454359,38.7928205 93.2545641,41.542359 90.9538462,44.2861538 L90.3753846,58.3981538 C90.3753846,59.8332308 90.5575385,60.7144615 90.5156923,62.2603077 C90.4738462,63.8061538 89.4301538,65.8664615 87.6381538,66.1987692 C87.392,64.6356923 87.7341538,63.7249231 87.3649231,61.9796923 C86.9956923,60.2344615 84.8344615,59.1981538 82.912,59.2375385 C78.4984615,54.7378462 72.1206154,49.0713846 71.2123077,42.7772308 C70.8135385,39.9932308 71.1556923,37.5243077 71.8252308,35.1464615 C72.5464615,32.5913846 73.6393846,30.1396923 74.5846154,27.5156923 C75.5219133,24.8018316 76.7317848,22.1899276 78.1956923,19.72 C78.8614447,18.6184909 79.5964617,17.5603625 80.3963077,16.552 C82.0972308,14.4030769 84.5046154,13.1846154 87.2,12.8006154 C88.3421538,12.6406154 89.4990769,12.9926154 90.6116923,12.8006154 C93.9618462,12.2049231 94.6806154,9.01230769 96.8024615,6.89292308 C98.4715694,5.15533058 100.483251,3.783196 102.710154,2.86338462 C107.478154,0.953230769 112.334769,0.0547692308 117.521231,0.470769231 C127.783385,1.29046154 137.686154,4.04738462 145.858462,10.7427692 C150.94243,14.9256138 154.54633,20.6326527 156.137846,27.0209231 C158.365047,35.9227626 156.985788,45.3440143 152.300308,53.2338462 Z" id="Path" fill="#444444"></path>
                <path d="M135.064615,94.1913846 C133.799254,95.1601992 132.451787,96.0167797 131.037538,96.7513846 C133.499077,86.4670769 141.459692,71.8209231 140.514462,64.2590769 C139.234462,54.0092308 123.234462,43.336 122.734769,43.0036923 L146.099692,55.5181538 C146.368,60.7686154 146.641231,66.3883077 146.749538,69.288 C147.106462,78.9150769 142.614154,88.424 135.064615,94.1913846 Z" id="Path" fill="#FDB2D0"></path>
                <path d="M83.4215385,53.8147692 C77.76,39.3901538 80.3569231,26.4916923 97.1692308,23.0258462 C102.092308,15.3950769 108.155077,12.2984615 117.307077,14.3366154 C126.459077,16.3747692 136.610462,19.4836923 144.630154,12.5815385 C146.441846,16.872 145.752615,20.6627692 143.436308,24.5150769 C153.063385,33.5489231 153.100308,43.2227692 145.272615,53.4209231 C141.826462,38.5729231 109.117538,54.3587692 102.56,39.9193846 C100.16,52.8892308 91.2738462,47.8184615 83.4215385,53.8147692 Z" id="Path" fill="#444444"></path>
                <path d="M156.283077,45.4110769 C155.741381,47.6380766 155.075729,49.8330844 154.289231,51.9858462 C152.352,57.3126154 149.824,62.3046154 147.305846,67.4713846 C147.168,67.7544615 146.998154,68.0227692 146.862769,68.3107692 C145.031385,68.0646154 144.647385,66.2135385 144.251077,64.7070769 C144.091077,64.104 143.972923,63.6535385 143.859692,63.112 C143.498341,61.3433683 143.258193,59.5521243 143.140923,57.7507692 C143.126154,57.5267692 143.118769,57.3052308 143.108923,57.0836923 C135.593846,47.1415385 108.029538,53.2289231 102.552615,39.9169231 C101.398154,46.1741538 98.7347692,48.2344615 95.4141538,49.3643077 C92.6067848,50.3026762 90.6730286,52.8803645 90.5575385,55.8381538 L90.3458462,61.4996923 C90.2892308,62.9101538 90.3187692,62.3243077 90.3064615,62.6196923 C90.2104615,64.6824615 90.08,65.2535385 89.8633846,67.3852308 C89.7255385,68.7341538 89.8633846,73.1698462 88.0073846,73.9673846 C84.6424615,68.456 81.4670769,62.9150769 78.0381538,57.3618462 C74.8701538,52.2270769 71.9753846,47.2375385 71.1655385,41.1156923 C71.0990769,40.6086154 71.0473846,40.0449231 71.296,39.6018462 C72.7729231,36.9507692 75.6775385,40.4436923 77.1889231,41.1870769 C78.8849231,42.024 80.1698462,41.9846154 81.792,41.9403077 C85.4252308,41.3027692 88.7310769,39.7889231 91.7735385,37.8221538 C92.5940513,37.2592821 93.4145641,36.6849231 94.2350769,36.0990769 C96.3788809,34.4567033 98.4269465,32.6929998 100.369231,30.8166154 C100.413538,30.856 100.457846,30.888 100.504615,30.9224615 C100.504615,30.8904615 100.534154,30.856 100.544,30.8215385 C100.625502,30.9395114 100.71343,31.0529133 100.807385,31.1612308 C102.058146,32.1464273 103.373955,33.0461115 104.745846,33.8541538 C104.876308,33.9206154 104.955077,33.9550769 105.073231,34.0116923 L105.036308,34.0116923 C108.937846,36.1778462 112.509538,36.5889231 120.051692,37.0886154 C124.856615,37.4110769 135.766154,35.1883077 143.059692,30.9052308 C144.079671,30.2223861 145.055557,29.4758781 145.981538,28.6701538 C146.586984,28.1449168 147.157625,27.5808542 147.689846,26.9815385 C149.905231,24.4830769 151.187692,21.64 152.120615,18.3218462 C152.172308,18.1421538 152.221538,17.9649231 152.268308,17.7827692 C155.534769,23.3803077 157.228308,29.1526154 157.403077,35.1489231 C157.487395,38.6042113 157.110745,42.0553219 156.283077,45.4110769 Z" id="Path" fill="#444444"></path>
                <path d="M206.601846,303.916923 C189.043692,270.270154 181.262769,197.369231 185.858462,160.177846 C186.018462,158.868308 186.56,155.392615 186.771692,153.824615 C188.265846,170.809231 190.710154,188.820308 197.991385,204.438769 C199.295215,207.255075 201.040247,209.845201 203.160615,212.111385 C201.806769,230.772308 205.270154,281.499692 206.360615,300.155692 C206.451692,301.676923 206.523077,302.462154 206.601846,303.916923 Z" id="Path" fill="#82DAB3" fill-rule="nonzero"></path>
                <path d="M240.679385,237.900923 L234.724923,319.855385 L214.471385,319.872615 L207.933538,254.361231 C206.456615,250.750974 204.915692,247.175179 203.310769,243.633846 C202.265436,241.32 201.184821,239.022564 200.068923,236.741538 C200.039385,236.675077 200.009846,236.616 199.977846,236.549538 C199.387077,235.348308 198.254769,232.970462 197.516308,231.729846 C197.516308,231.729846 197.516308,231.729846 197.516308,231.715077 C197.504736,231.700647 197.494827,231.684958 197.486769,231.668308 L197.464615,231.638769 C197.464615,231.624 197.449846,231.616615 197.447385,231.606769 C197.380923,231.493538 197.265231,231.299077 197.078154,230.974154 C196.300308,229.632615 193.819077,224.820308 192.893538,223.153846 L192.817231,223.018462 C187.750103,213.839368 184.698066,203.685492 183.864615,193.233846 C183.190331,185.537396 183.149167,177.798573 183.741538,170.095385 C184.689231,157.502154 187.768615,137.662154 198.756923,129.100923 C198.771842,129.088781 198.78842,129.078835 198.806154,129.071385 C198.834478,129.049428 198.866031,129.031991 198.899692,129.019692 C199.596308,129.487385 200.263385,129.957538 200.900923,130.408 C200.900923,130.408 200.900923,130.408 200.918154,130.408 C202.476308,131.525538 204.096,132.596308 205.304615,134.100308 C205.777231,134.693538 206.328615,135.235077 206.830769,135.806154 C207.379692,136.431385 207.911385,137.073846 208.398769,137.748308 C209.527045,139.298009 210.490616,140.96116 211.273846,142.710769 C212.590769,145.514462 212.964923,146.265231 214.449231,149.871385 C226.097231,178.169231 234.070154,207.707692 240.679385,237.900923 Z" id="Path" fill="#A2FED5" fill-rule="nonzero"></path>
                <polygon id="Path" fill="#FFCAE1" points="235.549538 260.84 225.612308 320.724308 206.473846 320.724308 207.776 243.048"></polygon>
                <polygon id="Rectangle" fill="#7CE0B4" fill-rule="nonzero" transform="translate(483.102966, 82.922781) rotate(-19.900000) translate(-483.102966, -82.922781) " points="459.218658 46.2237036 506.987273 46.2237036 506.987273 119.621857 459.218658 119.621857"></polygon>
                <polygon id="Rectangle" fill="#A2FED5" fill-rule="nonzero" transform="translate(478.906796, 81.351096) rotate(-19.900000) translate(-478.906796, -81.351096) " points="455.022488 44.6520187 502.791104 44.6520187 502.791104 118.050173 455.022488 118.050173"></polygon>
                <path d="M472.253667,74.9273846 C472.253667,76.3877441 471.967553,77.8339672 471.409231,79.1833846 C470.846629,80.5325672 470.026408,81.7591355 468.994462,82.7944615 L460.499692,91.2966154 C459.32443,92.4680998 458.827107,94.1576988 459.180308,95.7790769 L461.235692,105.248615 L444.694154,116.916308 L399.945846,148.480615 L384.632615,159.286769 L376.755692,132.005538 C376.755692,132.005538 459.150769,87.1464615 470.875077,74.3858462 C471.09536,74.1400416 471.445223,74.0570588 471.752434,74.1777489 C472.059645,74.2984389 472.25947,74.5973703 472.253667,74.9273846 L472.253667,74.9273846 Z" id="Path" fill="#FFCAE1"></path>
                <path d="M355.131077,201.283077 C354.372923,205.593231 353.577846,210.058462 352.384,214.223385 C350.500923,220.812923 347.616,226.651692 342.262154,229.977231 C340.531609,231.033368 338.638718,231.796845 336.659692,232.236923 C331.901538,233.329846 325.796923,233 317.878154,230.678769 C308.260923,227.862769 297.811692,222.841231 288.009846,217.295385 C282.739692,214.314462 277.659077,211.180923 272.994462,208.153231 C258.887385,198.988923 248.625231,190.804308 248.625231,190.804308 C248.625231,190.804308 257.523692,180.800615 262.190769,167.961231 C262.727385,166.484308 263.204923,164.980308 263.608615,163.444308 C264.631077,159.723705 265.080137,155.868927 264.940308,152.012923 C264.772704,147.675937 263.586226,143.439356 261.476923,139.646154 C255.475692,128.889231 251.753846,116.854769 250.200615,104.652923 C249.407708,98.4996693 249.206583,92.2845672 249.6,86.0929231 C250.161231,77.5341538 252.785231,68.3698462 258.707692,61.7655385 C261.954462,58.1470769 271.753846,51.0504615 277.415385,53.2461538 C278.934154,53.8418462 280.16,55.0947692 280.883692,57.2658462 C280.452923,55.9316923 283.916308,53.7163077 284.790154,53.1821538 C286.451692,52.1753846 288.376615,51.7495385 290.353231,51.6067692 C292.329846,51.464 294.375385,51.6067692 296.260923,51.7150769 C299.799103,51.941245 303.308689,52.495 306.744615,53.3692308 C313.750154,55.112 320.775385,58.0166154 326.360615,62.6812308 C329.233231,65.0812308 331.736615,68.0301538 333.152,71.528 C343.601231,97.4135385 323.387077,120.864615 333.102769,145.157538 C333.629538,146.470359 334.203897,147.788103 334.825846,149.110769 C339.148308,158.356308 345.513846,167.929231 350.040615,177.376615 C351.60695,180.558422 352.917351,183.85994 353.959385,187.249846 C355.367385,192.015385 355.938462,196.719385 355.131077,201.283077 Z" id="Path" fill="#444444"></path>
                <path d="M444.694154,116.916308 L399.945846,148.480615 C400.140308,141.507077 402.045538,133.8 409.563077,130.220923 C418.675692,125.881231 444.694154,116.916308 444.694154,116.916308 Z" id="Path" fill="#FDB2D0"></path>
                <path d="M289.792,121.977231 L295.000615,159.296615 L311.492923,156.259077 C307.428923,156.997538 303.616,147.372923 302.902154,144.613538 C301.334154,138.528615 302.247385,131.916923 305.668923,126.624615 C307.246769,124.185231 309.577846,121.544 309.76,118.501538 C310.582154,104.522462 289.792,121.977231 289.792,121.977231 Z" id="Path" fill="#383838" opacity="0.53"></path>
                <path d="M355.131077,201.283077 C354.372923,205.593231 353.577846,210.058462 352.384,214.223385 C350.500923,220.812923 347.616,226.651692 342.262154,229.977231 C340.531609,231.033368 338.638718,231.796845 336.659692,232.236923 L336.659692,228.298462 C336.659692,228.298462 334.488615,153.659692 331.451077,143.242462 C328.787692,134.117538 325.543385,125.221538 323.421538,115.936615 C320.925538,105.032 327.094154,91.6313846 320.521846,81.1033846 C314.860308,72.04 301.597538,66.7353846 291.744,64.0966154 C288.612923,63.2596923 285.361231,62.6516923 282.537846,61.0590769 C279.714462,59.4664615 277.329231,56.6061538 277.385846,53.3643077 C279.002558,53.9976518 280.256734,55.3130945 280.812308,56.9581538 C283.396923,51.912 290.286769,51.2966154 295.938462,51.7643077 C309.211077,52.8646154 323.478154,57.0713846 330.892308,68.1384615 C335.116308,74.4424615 336.553846,82.28 336.334769,89.864 C335.778462,108.372308 325.750154,126.787077 333.097846,145.150154 C333.624615,146.462974 334.198974,147.780718 334.820923,149.103385 C339.143385,158.348923 345.508923,167.921846 350.035692,177.369231 C351.602027,180.551038 352.912428,183.852555 353.954462,187.242462 C355.367385,192.015385 355.938462,196.719385 355.131077,201.283077 Z" id="Path" fill="#2D2D2D" opacity="0.53"></path>
                <path d="M404.676923,170.538462 C392.369231,180.891692 367.067077,185.492308 353.969231,187.249846 C352.071385,187.496 350.432,187.700308 349.122462,187.843077 C347.008896,188.07407 345.194663,189.45107 344.403692,191.424615 C341.124419,199.628507 339.914688,208.5134 340.881231,217.295385 L340.915692,217.625231 L342.279385,229.977231 L352.297846,320.736615 L236,319.867692 L240.238769,292.593846 L240.238769,292.411692 L240.275692,285.027077 L240.504615,237.231385 L240.096,246.536 L240.022154,248.165538 L239.453538,261.068923 C239.286154,264.921231 237.250462,266.048615 234.468923,265.654769 C231.687385,265.260923 228.167385,263.340923 225.026462,261.105846 L195.643077,238.545846 C195.643077,238.545846 217.604923,187.158769 221.523692,170.454769 C222.110617,167.948645 223.292687,165.620812 224.969846,163.668308 C231.281654,156.303181 240.491096,152.056196 250.190769,152.037538 L264.96,152.008 L272.888615,151.990769 L272.888615,151.990769 L281.693538,151.973538 L295.709538,151.121846 L296.551385,151.070154 L296.551385,151.070154 L299.012923,150.922462 L330.040615,149.647385 C331.652406,149.58299 333.257421,149.402004 334.843077,149.105846 C337.771384,148.575372 340.61797,147.665126 343.310769,146.398154 L343.310769,146.398154 L343.849846,146.137231 L395.030154,121.014769 L395.325538,121.753231 L404.836923,145.068923 L408.568615,154.225846 C408.814886,154.828424 409.020475,155.446837 409.184,156.076923 L409.184,156.076923 C410.520615,161.305231 408.881231,166.981538 404.676923,170.538462 Z" id="Path" fill="#FFFFFF"></path>
                <path d="M306.825846,155.230154 C306.133195,156.42239 305.352351,157.561155 304.489846,158.636923 C294.695385,170.782154 276.900923,170.334154 266.828308,155.636308 C266.88,155.710154 268.647385,154.873231 268.797538,154.816615 C271.305846,153.849231 274.212923,152.030154 273.952,147.968615 C273.870769,146.619692 273.609846,142.405538 273.324308,137.711385 C272.864,130.134769 272.32,121.312615 272.32,121.312615 L271.296,110.006769 C271.296,110.006769 276.957538,111.582154 282.818462,113.758154 C288.438154,111.838154 293.915077,110.506462 293.915077,110.506462 L294.274462,121.797538 C294.274462,121.797538 294.685538,128.497846 295.104,135.237538 L295.116308,135.483692 C295.116308,135.614154 295.116308,135.729846 295.138462,135.870154 C295.473231,141.265846 295.793231,146.550769 295.901538,148.298462 C295.901538,148.350154 295.901538,148.404308 295.901538,148.456 C296.044308,150.767385 297.307077,153.036923 298.973538,153.979692 C300.578462,154.885538 302.340923,154.661538 304.019692,154.838769 C304.662154,154.907692 305.309538,154.976615 305.954462,155.065231 C306.148923,155.089846 306.656,155.048 306.825846,155.230154 Z" id="Path" fill="#FFCAE1"></path>
                <path d="M302.481231,157.984615 C299.369846,156.852308 296.379077,155.131692 294.235077,153.814769 C291.611077,152.202462 290.542769,148.379692 290.065231,145.546462 C289.713231,143.424615 289.496615,140.982769 290.262154,138.924923 C290.646154,137.878769 291.264,137.155077 292.295385,136.751385 C293.30399,136.398583 294.248442,135.883956 295.091692,135.227692 L295.104,135.473846 C295.104,135.604308 295.104,135.72 295.126154,135.860308 C295.460923,141.256 295.780923,146.540923 295.889231,148.288615 C295.889231,148.340308 295.889231,148.394462 295.889231,148.446154 C295.94951,149.344855 296.163484,150.226561 296.521846,151.052923 L295.68,151.104615 C295.857231,151.454154 295.982769,151.690462 296.014769,151.739692 C297.615767,154.231971 299.758919,156.330526 302.284308,157.878769 C302.355692,157.928 302.419692,157.962462 302.481231,157.984615 Z" id="Path" fill="#FDB2D0"></path>
                <circle id="Oval" fill="#FDB2D0" fill-rule="nonzero" cx="307.908923" cy="110.875692" r="8.864"></circle>
                <path d="M307.818038,113.036923 C307.849654,121.335865 303.916857,129.151156 297.233231,134.070769 C296.55024,134.577241 295.842052,135.048819 295.111385,135.483692 C294.515692,135.840615 293.905231,136.175385 293.28,136.483077 C292.654769,136.790769 291.995077,137.091077 291.330462,137.352 C285.564145,139.627898 279.171899,139.755446 273.319385,137.711385 C263.227077,134.184 255.904,124.566769 255.842462,113.297846 L255.726315,89.6670769 C255.643077,73.7409231 267.148308,65.4135385 279.345231,64.5298462 C280.083692,64.4756923 280.839385,64.4510742 281.585231,64.4510742 C283.013742,64.4510742 284.440362,64.554944 285.853538,64.7636923 C296.285538,66.2701538 305.806769,73.2781538 307.451077,85.6867692 C307.614874,86.9230977 307.697103,88.1688683 307.697231,89.416 C307.692308,89.4381538 307.818038,113.036923 307.818038,113.036923 Z" id="Path" fill="#FFCAE1"></path>
                <path d="M289.792,96.808 C280.684308,94.2036923 275.099077,78.4153846 275.099077,78.4153846 L279.342769,64.5224615 L280.679385,60.7883077 L285.848615,64.7563077 L307.446154,85.6793846 C307.609951,86.915713 307.69218,88.1614837 307.692308,89.4086154 C307.692308,89.4504615 307.808191,113.039385 307.808191,113.039385 C307.839808,121.338327 303.907011,129.153618 297.223385,134.073231 C301.437538,129.396308 304.765538,119.387692 302.626462,117.994462 C299.842462,116.177846 298.904615,99.4 289.792,96.808 Z" id="Path" fill="#FDB2D0"></path>
                <path d="M307.908923,113.137846 L307.645538,101.856615 L316.566154,88.7390769 L302.395077,71.3803077 C298.082462,66.0953846 286.641231,60.3550769 279.810462,60.3550769 L265.671385,63.0307692 C265.671385,63.0307692 247.308308,95.56 255.721846,96.0843077 C264.135385,96.6086154 281.149538,69.5883077 281.149538,69.5883077 C281.149538,69.5883077 282.461538,89.7876923 296.103385,90.8387692 C309.745231,91.8898462 298.464,118.910154 307.908923,113.137846 Z" id="Path" fill="#444444"></path>
                <g id="Group" opacity="0.75" transform="translate(242.461538, 162.415385)" stroke="#82DAB3" stroke-linecap="round" stroke-linejoin="round" stroke-width="2.4">
                    <polygon id="Path" points="65.4375385 19.3083077 85.7870769 13.8904615 93.7796923 33.1544615"></polygon>
                    <polygon id="Path" points="16.7433846 0.0418461538 13.8363077 7.93353846 27.4067692 2.40492308"></polygon>
                    <polygon id="Path" points="32.7310769 42.7889231 19.6504615 60.2486154 53.8067692 62.656"></polygon>
                    <polygon id="Path" points="0.0270769231 89.1470769 5.84123077 77.7083077 13.8363077 86.1366154"></polygon>
                    <polygon id="Path" points="47.2664615 81.3193846 53.8067692 68.0738462 57.4424615 77.7083077"></polygon>
                    <polygon id="Path" points="77.0633846 112.627692 69.0707692 98.7790769 77.0633846 98.7790769"></polygon>
                    <polygon id="Path" points="16.7433846 139.116308 30.5501538 127.677538 32.7310769 137.312"></polygon>
                    <polygon id="Path" points="34.1858462 104.199385 32.7310769 109.617231 42.1784615 106.606769"></polygon>
                </g>
                <path d="M240.221538,292.399385 L240.258462,285.014769 L240.487385,237.219077 L240.078769,246.523692 L240.004923,248.153231 L240.497231,209.627692 C252.740923,282.841231 243.133538,291.427077 240.221538,292.399385 Z" id="Path" fill="#E9E9DD" fill-rule="nonzero"></path>
                <path d="M404.676923,170.538462 C392.369231,180.891692 367.067077,185.492308 353.969231,187.249846 C352.071385,187.496 350.432,187.700308 349.122462,187.843077 C347.008896,188.07407 345.194663,189.45107 344.403692,191.424615 C341.124419,199.628507 339.914688,208.5134 340.881231,217.295385 L340.915692,217.625231 C340.192,215.599385 335.820308,202.159385 341.016615,185.777846 C342.121846,182.294769 345.447385,179.594462 350.050462,177.376615 C367.830154,168.827692 404.905846,167.432 409.179077,156.074462 C410.520615,161.305231 408.881231,166.981538 404.676923,170.538462 Z" id="Path" fill="#E9E9DD"></path>
                <path d="M156.283077,45.4110769 C155.741381,47.6380766 155.075729,49.8330844 154.289231,51.9858462 C154.688,43.7667692 151.872,34.4867692 147.699692,26.984 C146.695316,25.170463 145.57804,23.4217908 144.354462,21.7483077 C139.030154,14.4966154 134.353231,8.49538462 124.893538,6.54584615 C114.769231,4.45846154 107.591385,11.7889231 101.351385,18.536 C98.3975385,21.736 94.7643077,24.7587692 90.4246154,25.0418462 C85.9446154,25.3323077 81.8535385,22.6147692 78.4393846,19.7076923 C79.6724482,16.2972791 82.6307794,13.8033861 86.2006154,13.1649231 C87.9950769,12.8646154 89.8929231,13.0516923 91.5643077,12.3255385 C93.6566154,11.4196923 94.9021538,9.31015385 96.3963077,7.58215385 C101.472,1.704 109.969231,0.0104615385 117.723077,0.465846154 C130.88,1.23876923 144.832,7.34338462 152.118154,18.3243077 C154.475925,21.8573711 156.06126,25.8483902 156.770462,30.0363077 C157.043692,31.6461538 157.262769,33.3716923 157.400615,35.1513846 C157.485519,38.6057414 157.109699,42.0560082 156.283077,45.4110769 Z" id="Path" fill="#2D2D2D"></path>
                <path d="M144.642462,111.171077 C142.611163,113.409793 140.268404,115.344683 137.686154,116.916308 C134.872615,114.134769 134.212923,109.898462 131.401846,105.920615 C129.974154,103.897231 130.112,100.635692 131.037538,96.7513846 C132.451787,96.0167797 133.799254,95.1601992 135.064615,94.1913846 C135.121231,97.8172308 135.197538,101.177231 135.310769,103.299077 C135.389538,104.776 135.588923,106.472 136.674462,107.577231 C137.489231,108.419077 138.688,108.808 139.731692,109.260923 C141.321846,109.955077 142.936615,110.824 144.642462,111.171077 Z" id="Path" fill="#FDB2D0"></path>
                <path d="M145.856,119.976 L145.986462,119.875077 C145.970952,119.909774 145.959392,119.946105 145.952,119.983385 L145.952,119.983385 L145.856,119.976 Z" id="Path" fill="#342DEC"></path>
                <path d="M306.825846,155.230154 C306.133195,156.42239 305.352351,157.561155 304.489846,158.636923 C303.822769,158.454769 303.148308,158.235692 302.481231,157.994462 C302.419692,157.962462 302.355692,157.928 302.294154,157.888615 C299.768765,156.340372 297.625613,154.241817 296.024615,151.749538 C295.992615,151.700308 295.867077,151.464 295.689846,151.114462 L296.531692,151.062769 L296.531692,151.062769 C297.083077,152.335385 297.949538,153.406154 298.966154,153.979692 C300.571077,154.885538 302.333538,154.661538 304.012308,154.838769 C304.654769,154.907692 305.302154,154.976615 305.947077,155.065231 C306.148923,155.089846 306.656,155.048 306.825846,155.230154 Z" id="Path" fill="#FDB2D0"></path>
                <path d="M343.286154,146.390769 C343.207385,146.568 343.116308,146.750154 343.025231,146.937231 C343.025231,148.660308 339.010462,150.595077 337.816615,151.203077 C334.941538,152.660308 331.842462,153.689231 328.755692,154.595077 C324.01792,155.94593 319.212031,157.045311 314.358154,157.888615 C311.628308,158.380923 308.674462,159.259692 305.875692,159.008615 C304.684335,158.91917 303.526398,158.573216 302.481231,157.994462 C303.148308,158.240615 303.822769,158.454769 304.489846,158.636923 C305.352351,157.561155 306.133195,156.42239 306.825846,155.230154 C306.656,155.048 306.148923,155.089846 305.952,155.065231 C305.307077,154.976615 304.659692,154.907692 304.017231,154.838769 C302.338462,154.661538 300.571077,154.885538 298.971077,153.979692 C297.954462,153.406154 297.088,152.335385 296.536615,151.062769 L298.998154,150.915077 L330.025846,149.64 C331.637637,149.575605 333.242651,149.394619 334.828308,149.098462 C337.753247,148.56716 340.596472,147.656931 343.286154,146.390769 Z" id="Path" fill="#E9E9DD"></path>
            </g>
        </g>
    </g>
</svg>