<?xml version="1.0" encoding="UTF-8"?><svg xmlns="http://www.w3.org/2000/svg" viewBox="0 0 358.24 194.69"><defs><style>.uuid-15e9f332-fdb2-490f-931f-87be56729837{fill:#000091;}.uuid-4e4c1119-af89-4a9a-a847-52ce622fbb71{fill:#e1000f;}.uuid-a0e29b5f-7741-49ac-af86-80c972d432a9{fill:#7ab1e8;}.uuid-82acbcc7-1c30-41c9-b65a-d37888fa6e75{fill:none;mix-blend-mode:multiply;}.uuid-0a98c664-00b2-49cf-80cd-c62a2e751514{isolation:isolate;}</style></defs><g class="uuid-0a98c664-00b2-49cf-80cd-c62a2e751514"><g id="uuid-6824fd24-b9d9-430c-9d21-ed6e26e6b03c"><g id="uuid-3e4e649b-9a4c-4f6b-9547-c5687d9d5865"><g><rect class="uuid-82acbcc7-1c30-41c9-b65a-d37888fa6e75" x="81.77" y="-81.76" width="194.69" height="358.2" transform="translate(276.5 -81.76) rotate(90.01)"/><g><g><path class="uuid-15e9f332-fdb2-490f-931f-87be56729837" d="M197.53,100.45l-11.14,29.44-11.14-29.44h-8.13l14.26,37.67h10.01l14.26-37.67h-8.13Zm20.27,0l-14.26,37.67h8.13l3.61-9.79h15.07l3.61,9.79h8.13l-14.26-37.67h-10.01Zm-.16,21.37l5.17-14.15,5.17,14.15h-10.33Zm51.49-15.02v-6.35h-21.96v37.67h21.96v-6.35h-14.32v-9.69h12.16v-6.35h-12.16v-8.93h14.32Z"/><path class="uuid-a0e29b5f-7741-49ac-af86-80c972d432a9" d="M167.68,92.45h4.79v-16.15h12.33v-4.02h-12.33v-11.41h14.36v-4.08h-19.15v35.66Zm27-22.46v-3.21h-4.33v25.67h4.33v-17.62c1.58-2.6,3.77-4.33,7.13-4.33,1.02,0,1.78,.1,2.55,.31v-4.23c-.61-.2-1.38-.31-2.19-.31-3.26,0-5.6,1.48-7.49,3.72Zm58.76-4.23c-3.82,0-6.47,1.63-8.56,3.92v-2.9h-4.33v25.67h4.33v-17.78c1.63-2.7,3.97-4.84,7.69-4.84,3.97,0,6.57,2.65,6.57,7.23v15.38h4.33v-15.54c0-7.28-4.28-11.16-10.03-11.16Zm29.14,4.07c3.21,0,5.81,1.53,7.39,3.77l3.41-2.6c-2.39-3.16-6.16-5.25-10.8-5.25-8.51,0-13.96,6.37-13.96,13.86s5.45,13.86,13.96,13.86c4.69,0,8.41-2.04,10.8-5.25l-3.41-2.6c-1.58,2.24-4.18,3.77-7.34,3.77-5.55,0-9.47-4.28-9.47-9.78s3.92-9.78,9.42-9.78Zm35.35,15.89c-1.68,2.29-4.48,3.82-7.79,3.82-5.5,0-9.42-3.72-9.58-9.88h19.71c.15-.71,.31-1.68,.31-2.7,0-6.32-4.53-11.21-11.51-11.21-7.95,0-12.94,6.06-12.94,13.86s5.35,13.86,14.01,13.86c4.79,0,8.61-2.04,11-5.25l-3.21-2.5Zm-8.97-16.3c4.53,0,7.13,3.16,7.28,6.93h-15.38c.92-4.43,3.87-6.93,8.1-6.93Zm-80.49,.41c-2.29-2.6-5.3-4.07-9.12-4.07-8.05,0-13.19,6.37-13.19,13.86s5.14,13.86,13.19,13.86c3.82,0,6.83-1.48,9.12-4.08v3.06h4.33v-25.69h-4.33v3.08Zm0,14.82c-1.88,3.01-5.04,4.74-8.61,4.74-5.45,0-9.12-4.33-9.12-9.78s3.67-9.78,9.12-9.78c3.51,0,6.62,1.68,8.61,4.74v10.09Z"/></g><g><path class="uuid-a0e29b5f-7741-49ac-af86-80c972d432a9" d="M99.78,86.79l13.8,1.97,34.81-27.31c-.96-1.32-1.96-2.59-3.02-3.82l-40.4,16.23-5.2,12.94Z"/><path class="uuid-a0e29b5f-7741-49ac-af86-80c972d432a9" d="M63.15,86.79l-5.2-12.94-13.09-5.26c-2.13,3.99-3.83,8.24-5.04,12.69l9.53,7.48,13.8-1.97Z"/><path class="uuid-a0e29b5f-7741-49ac-af86-80c972d432a9" d="M81.46,76.21l8.61-10.97-3.95-27.73c-3.35,.71-6.6,1.69-9.72,2.93l-3.54,24.8,8.61,10.97Z"/><path class="uuid-a0e29b5f-7741-49ac-af86-80c972d432a9" d="M99.78,107.94l5.2,12.94,40.41,16.23c1.05-1.23,2.06-2.51,3.02-3.82l-34.82-27.32-13.8,1.97Z"/><path class="uuid-a0e29b5f-7741-49ac-af86-80c972d432a9" d="M63.15,107.94l-13.8-1.97-9.53,7.48c1.21,4.45,2.91,8.7,5.04,12.69l13.1-5.26,5.2-12.94Z"/><path class="uuid-a0e29b5f-7741-49ac-af86-80c972d432a9" d="M81.46,118.51l-8.61,10.97,3.54,24.81c3.12,1.23,6.37,2.22,9.72,2.93l3.96-27.74-8.61-10.97Z"/><polygon class="uuid-15e9f332-fdb2-490f-931f-87be56729837" points="81.46 97.36 81.46 97.36 81.46 97.36 81.46 97.36"/><g><path class="uuid-4e4c1119-af89-4a9a-a847-52ce622fbb71" d="M83.14,76.66l15.42,8.9c.52,.3,.94,.72,1.22,1.22l19-47.29c-2.27-.78-4.6-1.43-6.98-1.94l-30.33,38.66c.58,0,1.15,.15,1.67,.45Z"/><path class="uuid-4e4c1119-af89-4a9a-a847-52ce622fbb71" d="M99.78,107.94c-.29,.5-.71,.93-1.22,1.22l-15.42,8.9c-.52,.3-1.09,.45-1.67,.45h0l30.34,38.67c2.38-.51,4.71-1.16,6.98-1.94l-19-47.3Z"/><path class="uuid-4e4c1119-af89-4a9a-a847-52ce622fbb71" d="M62.7,106.26v-17.81c0-.6,.16-1.17,.45-1.67l-25.07,3.58c-.26,2.3-.4,4.64-.4,7.01s.13,4.7,.4,6.99l25.07,3.58c-.29-.5-.45-1.07-.45-1.67Z"/></g><path class="uuid-15e9f332-fdb2-490f-931f-87be56729837" d="M160.01,95.38l-60.23-8.59c.29,.5,.45,1.07,.45,1.67v17.81c0,.6-.16,1.17-.45,1.67l60.23-8.59c.02-.66,.03-1.32,.03-1.98s-.01-1.33-.03-1.99Z"/><path class="uuid-15e9f332-fdb2-490f-931f-87be56729837" d="M64.37,85.56l15.42-8.9c.52-.3,1.09-.45,1.67-.45l-20.86-26.59c-3.25,2.6-6.22,5.53-8.87,8.74l11.42,28.43c.29-.5,.71-.93,1.22-1.22Z"/><path class="uuid-15e9f332-fdb2-490f-931f-87be56729837" d="M79.79,118.06l-15.42-8.9c-.52-.3-.94-.72-1.22-1.22l-11.42,28.44c2.65,3.2,5.63,6.13,8.87,8.73l20.87-26.6h0c-.58,0-1.15-.15-1.67-.45Z"/></g></g></g></g></g></g></svg>