<?xml version="1.0" encoding="UTF-8"?>
<svg width="642px" height="963px" viewBox="0 0 642 963" version="1.1" xmlns="http://www.w3.org/2000/svg" xmlns:xlink="http://www.w3.org/1999/xlink">
    <!-- Generator: Sketch 51.1 (57501) - http://www.bohemiancoding.com/sketch -->
    <title>diplome</title>
    <desc>Created with Sketch.</desc>
    <defs>
        <polygon id="path-1" points="86.7109375 363.453125 387.078125 128 769.078125 336.015625 86.7109375 883.164062"></polygon>
        <filter x="-24.9%" y="-9.9%" width="141.0%" height="139.2%" filterUnits="objectBoundingBox" id="filter-2">
            <feMorphology radius="2" operator="dilate" in="SourceAlpha" result="shadowSpreadOuter1"></feMorphology>
            <feOffset dx="-30" dy="81" in="shadowSpreadOuter1" result="shadowOffsetOuter1"></feOffset>
            <feGaussianBlur stdDeviation="32.5" in="shadowOffsetOuter1" result="shadowBlurOuter1"></feGaussianBlur>
            <feComposite in="shadowBlurOuter1" in2="SourceAlpha" operator="out" result="shadowBlurOuter1"></feComposite>
            <feColorMatrix values="0 0 0 0 0.180392157   0 0 0 0 0.321568627   0 0 0 0 0.4  0 0 0 0.0636888587 0" type="matrix" in="shadowBlurOuter1"></feColorMatrix>
        </filter>
        <ellipse id="path-3" cx="90.7764571" cy="202.602223" rx="76" ry="21.5"></ellipse>
        <filter x="-42.1%" y="-74.4%" width="184.2%" height="397.7%" filterUnits="objectBoundingBox" id="filter-4">
            <feOffset dx="0" dy="32" in="SourceAlpha" result="shadowOffsetOuter1"></feOffset>
            <feGaussianBlur stdDeviation="16" in="shadowOffsetOuter1" result="shadowBlurOuter1"></feGaussianBlur>
            <feColorMatrix values="0 0 0 0 0   0 0 0 0 0   0 0 0 0 0  0 0 0 0.263756793 0" type="matrix" in="shadowBlurOuter1"></feColorMatrix>
        </filter>
        <linearGradient x1="50%" y1="0%" x2="50%" y2="100%" id="linearGradient-5">
            <stop stop-color="#20D7A4" offset="0%"></stop>
            <stop stop-color="#0072CF" offset="100%"></stop>
        </linearGradient>
    </defs>
    <g id="WebDesign" stroke="none" stroke-width="1" fill="none" fill-rule="evenodd">
        <g id="C'est-quoi-un-certificateur" transform="translate(0.000000, -963.000000)">
            <g id="diplome" transform="translate(-156.000000, 942.000000)">
                <g id="Rectangle-21">
                    <use fill="black" fill-opacity="1" filter="url(#filter-2)" xlink:href="#path-1"></use>
                    <path stroke="#F7F7F7" stroke-width="2" d="M85.7109375,362.96639 L386.978783,126.807253 L770.875851,335.855913 L85.7109375,885.247676 L85.7109375,362.96639 Z" fill="#FFFFFF" fill-rule="evenodd"></path>
                </g>
                <g id="Lauriers" opacity="0.051328" transform="translate(217.000000, 266.000000)" fill="#000000">
                    <path d="M64.9761545,126 C91.9885533,117.28125 80.6294933,95 80.6294933,95 C39.0719567,111.191964 64.9761545,126 64.9761545,126 Z" id="Shape"></path>
                    <path d="M0,114.430822 C0,114.430822 13.7970991,138.875823 45.8992604,130.097231 C45.7626555,130.097231 51.0902482,107.137839 0,114.430822 Z" id="Shape"></path>
                    <path d="M52.8322453,99 C79.6798203,95.4545455 78.9984097,75 78.9984097,75 C37.2960852,83.0454545 52.8322453,99 52.8322453,99 Z" id="Shape"></path>
                    <path d="M39.4302719,100.845214 C39.4302719,100.845214 51.8160826,81.6901525 7.00449781,80 C6.8653314,80 9.78782606,103.098751 39.4302719,100.845214 Z" id="Shape"></path>
                    <path d="M56.0101595,74 C81.162929,73.0148148 86,55 86,55 C46.4742195,58.9407407 56.0101595,74 56.0101595,74 Z" id="Shape"></path>
                    <path d="M39.9898292,74 C39.9898292,74 58.4038787,58.137931 16.3146228,54 C16.4530743,54 11.0534658,74 39.9898292,74 Z" id="Shape"></path>
                    <path d="M65,51.674285 C86.627907,54.2973592 101,40.2155922 101,40.2155922 C65.8372093,38.1447441 65,51.674285 65,51.674285 Z" id="Shape"></path>
                    <path d="M52.8042072,50 C52.8042072,50 75.9198169,39.3706294 44.5097825,30 C44.5097825,30 30.09652,45.8041958 52.8042072,50 Z" id="Shape"></path>
                    <path d="M118,29.1221921 C88.1750973,22.2319453 83,34.3250315 83,34.3250315 C100.70428,40.09034 118,29.1221921 118,29.1221921 Z" id="Shape"></path>
                    <path d="M74.6701031,32 C74.6701031,32 97.9123711,26.3790323 74.6701031,15 C74.6701031,15 57.4123711,25.6935484 74.6701031,32 Z" id="Shape"></path>
                    <path d="M103,24.2760334 C116.282158,30.7857454 136,23.5835109 136,23.5835109 C112.174274,15.1347358 103,24.2760334 103,24.2760334 Z" id="Shape"></path>
                    <path d="M96.0674536,20 C96.0674536,20 116.638021,18.1041667 101.345428,7 C101.480761,7 84.4288431,13.5 96.0674536,20 Z" id="Shape"></path>
                    <path d="M154,18.0199379 C134.165094,8.81926534 125,15.0808341 125,15.0808341 C135.533019,21.5979772 154,18.0199379 154,18.0199379 Z" id="Shape"></path>
                    <path d="M122.35619,13 C122.35619,13 142.547523,12.8607595 131.898669,2 C131.898669,2 113.643492,6.4556962 122.35619,13 Z" id="Shape"></path>
                    <path d="M148,12.229789 C153.923469,18.6077378 175,16.7475027 175,16.7475027 C161.637755,7.44632737 148,12.229789 148,12.229789 Z" id="Shape"></path>
                    <path d="M159.335276,0 C159.335276,0 140.143163,2.00283617 144.699564,7.87782227 C144.699564,7.87782227 163.753604,9.61361361 159.335276,0 Z" id="Shape"></path>
                    <path d="M195,18 C186.02439,8.44411765 172,11.447395 172,11.447395 C175.22561,17.4539496 195,18 195,18 Z" id="Shape"></path>
                    <path d="M185.98574,2 C185.98574,2 169.36062,2 171.132149,7.34322157 C171.268421,7.48383266 186.530826,10.5772767 185.98574,2 Z" id="Shape"></path>
                    <path d="M214,19 C207.931034,9.85869565 194,11.0510397 194,11.0510397 C195.37931,16.6153119 214,19 214,19 Z" id="Shape"></path>
                    <path d="M212,5.30933932 C212,5.30933932 194.180839,3.48486865 195.02937,8.69764199 C195.02937,8.69764199 210.868625,13.2588187 212,5.30933932 Z" id="Shape"></path>
                    <path d="M236,18.9501267 C218.291892,10.4181595 210,13.5684243 210,13.5684243 C210,13.5684243 213.935135,19.6064318 236,18.9501267 Z" id="Shape"></path>
                    <path d="M282.819451,175.303007 C285.436887,174.199849 288.054323,172.958797 290.671759,171.717744 C291.360558,171.441954 291.911597,171.166165 292.600396,170.752481 C293.151435,170.476691 293.840234,170.063007 294.391273,169.787217 C295.493351,169.097744 296.595429,168.40827 297.697507,167.718796 C301.968061,164.823006 305.825334,161.789322 309.407089,158.755638 C312.851083,155.721953 315.881798,152.550374 318.499234,149.378795 C321.11667,146.34511 323.458586,143.173531 325.387223,140.001952 C329.106737,133.934583 331.586413,127.867214 332.826251,122.075635 C334.066089,116.42195 334.203849,111.044055 333.790569,106.079844 C333.37729,101.253528 332.137452,96.9787905 330.897614,93.1177376 C330.484335,92.1524743 330.208815,91.3251058 329.933296,90.3598426 C329.795536,89.9461584 329.657776,89.5324741 329.382257,89.1187899 C329.244497,88.7051056 328.968977,88.2914214 328.831217,87.8777371 C328.417938,87.0503687 328.142419,86.3608949 327.866899,85.6714212 C327.729139,85.2577369 327.591379,84.9819474 327.31586,84.5682632 C327.1781,84.2924737 326.902581,83.8787895 326.764821,83.603 C326.076022,82.3619472 325.524983,81.2587892 324.973944,80.293526 C324.422904,79.3282628 323.871865,78.5008943 323.458586,77.8114205 C322.632027,76.4324731 322.218748,75.7429993 322.218748,75.7429993 L322.080988,75.7429993 C322.080988,75.7429993 322.494268,76.4324731 323.320826,77.8114205 C323.734106,78.5008943 324.147385,79.3282628 324.836184,80.293526 C325.387223,81.2587892 325.938262,82.3619472 326.627061,83.603 C326.764821,83.8787895 326.902581,84.2924737 327.1781,84.5682632 C327.31586,84.8440527 327.45362,85.2577369 327.591379,85.6714212 C327.866899,86.3608949 328.280178,87.1882634 328.555698,87.8777371 C328.693458,88.2914214 328.968977,88.7051056 329.106737,89.1187899 C329.244497,89.5324741 329.382257,89.9461584 329.520016,90.3598426 C329.795536,91.1872111 330.208815,92.1524743 330.484335,92.9798428 C331.586413,96.703001 332.826251,101.115633 333.101771,105.804054 C333.51505,110.630371 333.101771,116.008266 331.861933,121.524056 C331.035374,125.109319 329.657776,128.694583 327.866899,132.279846 C328.968977,128.556688 327.1781,122.489319 313.953161,113.388266 C313.953161,113.388266 307.202932,127.17774 323.871865,136.830373 C323.871865,136.830373 325.662742,136.003004 327.04034,134.210372 C326.213782,135.865109 325.249463,137.519846 324.147385,139.174583 C322.218748,142.208268 319.876832,145.241952 317.259396,148.275637 C314.5042,151.309321 311.473485,154.343006 308.029491,157.37669 C304.447737,160.410375 300.590463,163.306164 296.31991,166.064059 C295.217831,166.753533 294.115753,167.443007 293.013675,168.13248 C292.462636,168.40827 291.911597,168.821954 291.222798,169.097744 C290.671759,169.373533 289.98296,169.649323 289.294161,169.925112 C286.676725,171.02827 284.197049,172.269323 281.441854,173.372481 C270.283311,177.785113 258.022691,181.094587 244.797752,183.300903 C231.159534,185.507219 216.832517,186.472482 202.64326,186.058798 C199.061506,186.058798 195.479752,185.783008 191.897997,185.507219 C188.316243,185.369324 184.734489,184.95564 181.290494,184.541955 C177.70874,184.266166 174.264746,183.576692 170.820751,183.163008 C167.376757,182.749324 163.932762,182.05985 160.626528,181.370376 C147.126069,178.888271 134.727689,175.440902 123.569147,171.717744 C112.548365,167.994586 102.767421,163.995638 94.5018339,160.134585 C90.3690406,158.204059 86.6495266,156.411427 83.3432919,154.4809 C81.6901745,153.653532 80.0370572,152.688269 78.5216996,151.8609 C77.2818616,151.171426 76.3175432,150.619847 75.2154649,149.930374 C74.526666,149.103005 73.8378672,148.275637 73.0113085,147.448268 C72.04699,146.34511 71.0826716,145.104058 70.1183531,143.863005 C68.1897162,141.380899 66.2610793,138.623004 64.3324424,135.727215 C60.4751686,130.07353 56.8934144,123.592477 54.000459,116.559845 C51.1075037,109.803002 49.041107,102.356686 48.2145483,94.7724745 C48.0767885,92.8419481 47.801269,91.0493163 47.801269,89.1187899 C47.801269,87.1882634 47.6635092,85.3956317 47.9390288,83.4651052 C48.0767885,81.6724735 48.2145483,79.741947 48.6278277,77.9493153 C48.9033472,76.1566836 49.1788668,74.2261571 49.7299059,72.4335254 C51.520783,65.4008932 54.6892579,58.5061558 59.3730904,52.0251027 C63.7814033,45.9577338 69.4295542,40.1661544 75.9042638,35.0640487 C77.5573812,33.822996 79.2104985,32.719838 80.8636159,31.4787853 C81.2768952,31.2029958 81.6901745,30.9272063 82.1034539,30.6514168 C82.5167332,30.3756273 82.9300125,30.0998378 83.4810517,29.8240483 C84.4453701,29.2724693 85.2719288,28.7208903 86.2362472,28.3072061 C89.9557613,26.3766796 93.8130351,24.4461531 97.8080686,22.7914161 C101.665342,21.1366792 105.660376,19.6198369 109.65541,18.2408895 C113.512683,16.861942 117.507717,15.758784 121.364991,14.655626 C128.941779,12.5872048 136.656326,11.2082573 144.095354,10.1050993 C151.258863,9.1398361 158.284611,8.58825711 164.759321,8.45036236 C171.096271,8.31246761 177.019941,8.45036236 182.117053,8.72615186 C183.356891,8.8640466 184.596729,8.8640466 185.836567,9.00194135 C186.387606,9.00194135 187.076405,9.1398361 187.627444,9.1398361 C188.178483,9.1398361 188.729523,9.27773085 189.280562,9.27773085 C190.38264,9.4156256 191.484718,9.55352034 192.449037,9.55352034 C193.000076,9.55352034 193.413355,9.69141509 193.964394,9.69141509 C194.377673,9.69141509 194.928713,9.82930984 195.341992,9.82930984 C197.132869,10.1050993 198.785986,10.2429941 200.163584,10.3808888 C201.541182,10.6566783 202.78102,10.7945731 203.745338,10.9324678 C205.673975,11.2082573 206.638294,11.3461521 206.638294,11.3461521 L206.638294,11.2082573 C206.638294,11.2082573 205.673975,11.0703626 203.745338,10.7945731 C202.78102,10.6566783 201.541182,10.5187836 200.163584,10.2429941 C198.785986,10.1050993 197.132869,9.82930984 195.341992,9.55352034 C194.928713,9.55352034 194.377673,9.4156256 193.964394,9.4156256 C193.551115,9.4156256 193.000076,9.27773085 192.449037,9.27773085 C191.484718,9.1398361 190.38264,9.00194135 189.280562,9.00194135 C188.729523,9.00194135 188.178483,8.8640466 187.627444,8.8640466 C187.076405,8.8640466 186.525366,8.72615186 185.836567,8.72615186 C184.596729,8.58825711 183.356891,8.58825711 182.117053,8.45036236 C176.882182,8.17457286 170.958511,7.89878337 164.621561,8.03667812 C158.146852,8.17457286 150.983343,8.58825711 143.682075,9.55352034 C136.105287,10.5187836 128.390739,11.8977311 120.538432,13.9661523 C116.543399,14.9314155 112.548365,16.1724682 108.553331,17.413521 C104.558298,18.7924685 100.425504,20.1714159 96.4304708,21.8261529 C92.4354373,23.4808899 88.4404037,25.2735216 84.5831299,27.3419428 C83.6188114,27.8935218 82.654493,28.3072061 81.6901745,28.858785 C81.2768952,29.1345745 80.7258561,29.410364 80.3125767,29.6861535 C79.8992974,29.961943 79.4860181,30.2377325 79.0727387,30.513522 C77.4196214,31.7545748 75.6287443,32.8577327 73.9756269,34.0987855 C67.2253978,39.2008911 61.1639675,44.9924706 56.480135,51.1977342 C51.520783,57.8166821 47.9390288,64.8493142 46.0103919,72.0198411 C43.9439952,79.6040523 43.5307159,87.3261582 44.4950343,94.7724745 C45.4593528,102.49458 47.801269,110.078792 50.8319841,116.973529 C54.000459,124.144056 58.1332524,130.487214 62.128286,136.278794 C64.8834815,140.139847 67.7764369,143.587215 70.5316325,146.6209 C67.2253978,144.552479 64.607962,142.759847 62.8170849,141.518794 C60.3374088,139.726162 58.9598111,138.760899 58.9598111,138.760899 L58.5465317,138.898794 C58.5465317,138.898794 59.64861,140.001952 62.128286,141.932478 C64.4702022,143.863005 68.1897162,146.6209 73.286828,149.930374 C73.5623476,150.068268 73.8378672,150.206163 74.1133867,150.481953 C74.2511465,150.619847 74.526666,150.895637 74.6644258,151.033532 C78.6594594,155.032479 81.9656941,158.204059 84.4453701,160.134585 C86.9250461,162.203006 88.3026439,163.168269 88.3026439,163.168269 L88.7159232,162.89248 C88.7159232,162.89248 87.3383255,161.789322 85.134169,159.720901 C83.4810517,158.204059 81.2768952,155.997743 78.934979,153.377742 C82.9300125,155.859848 87.613845,158.479848 92.9864764,161.237743 C101.114303,165.374585 110.619728,169.649323 121.91603,173.64827 C133.074572,177.647218 145.748472,181.370376 159.524449,184.128271 C173.162668,186.886166 187.765204,188.678798 202.78102,188.954587 C217.383556,189.230377 232.123853,188.265114 246.03759,185.645113 C258.98701,183.714587 271.523149,179.991429 282.819451,175.303007 Z" id="Shape"></path>
                    <path d="M166,157.996807 C166,157.996807 130.207792,146.030101 113,163.50956 C113,163.375103 134.062338,185.963942 166,157.996807 Z" id="Shape"></path>
                    <path d="M100.417396,174 C80.8642157,196.807947 120.529239,216 120.529239,216 C140.222085,175.251656 100.417396,174 100.417396,174 Z" id="Shape"></path>
                    <path d="M202,162.505897 C202,162.505897 164.761905,157.599316 156,178.347144 C156,178.347144 184.47619,196.010836 202,162.505897 Z" id="Shape"></path>
                    <path d="M154.715579,190.240367 C147.980971,214.654871 191,225 191,225 C190.175354,184.860901 154.715579,190.240367 154.715579,190.240367 Z" id="Shape"></path>
                    <path d="M243,163 C243,163 207.794118,163.13853 205,183.640953 C205,183.779483 235.176471,196.108642 243,163 Z" id="Shape"></path>
                    <path d="M203.026126,195.546797 C201.787552,221.663264 245,224 245,224 C235.64189,184.00057 203.026126,195.546797 203.026126,195.546797 Z" id="Shape"></path>
                    <path d="M269.24556,151 C269.24556,151 240.084291,159.488203 245.723971,177.97058 C245.723971,177.833674 275.022793,180.845617 269.24556,151 Z" id="Shape"></path>
                    <path d="M252,191.03224 C262.145015,214.135499 298,205.367395 298,205.367395 C274.374622,172.939326 252,191.03224 252,191.03224 Z" id="Shape"></path>
                    <path d="M292.095601,139 C292.095601,139 270.194626,150.961165 283.03779,167 C283.172981,166.864078 309.400075,165.368932 292.095601,139 Z" id="Shape"></path>
                    <path d="M291,176.963138 C306.836177,194.133386 331,181.559897 331,181.559897 C302.05802,158.576101 291,176.963138 291,176.963138 Z" id="Shape"></path>
                    <path d="M306.328054,154 C306.328054,154 326.825454,148.046154 304.794235,127 C304.933673,127 290.710987,141.676923 306.328054,154 Z" id="Shape"></path>
                    <path d="M316,160.127743 C333.146018,172.036509 347,158.368494 347,158.368494 C318.19469,143.076556 316,160.127743 316,160.127743 Z" id="Shape"></path>
                    <path d="M331.043803,140.342152 C347.285292,148.811617 355,134.331564 355,134.331564 C328.878271,124.222847 331.043803,140.342152 331.043803,140.342152 Z" id="Shape"></path>
                    <path d="M317.078249,99 C317.078249,99 315.177527,114.576159 330.111771,120 C329.976006,120 339.479616,109.847682 317.078249,99 Z" id="Shape"></path>
                    <path d="M338.799271,122.102275 C354.042193,126.746982 356,111.856598 356,111.856598 C332.366478,107.348499 338.799271,122.102275 338.799271,122.102275 Z" id="Shape"></path>
                    <path d="M313,84 C313,84 315.916239,98.1666667 329.525352,101 C329.525352,101 334.385749,90.9416667 313,84 Z" id="Shape"></path>
                    <path d="M339.006259,102.795529 C351.030814,104.750474 348.844531,92.0433304 348.844531,92.0433304 C330.397771,91.2054967 339.006259,102.795529 339.006259,102.795529 Z" id="Shape"></path>
                    <path d="M324.973993,85 C324.973993,85 326.508655,75.34 306,71 C306,71 312.557189,83.74 324.973993,85 Z" id="Shape"></path>
                    <path d="M336.40643,74 C319.207448,74.4005229 330.854002,84.9476268 330.854002,84.9476268 C342.500557,85.8821803 336.40643,74 336.40643,74 Z" id="Shape"></path>
                    <path d="M320.102347,75 C320.102347,75 326.11873,69.5206612 307,58 C307.267395,72.1900826 320.102347,75 320.102347,75 Z" id="Shape"></path>
                </g>
                <g id="Group-3" transform="translate(274.000000, 195.000000)" fill="#E4E4E4">
                    <polygon id="Rectangle-23" points="86 0 382.667969 170.574219 374.148438 177.101562 78.4609375 5.3671875"></polygon>
                    <polygon id="Rectangle-23" points="66 14 362.667969 184.574219 354.148438 191.101562 58.4609375 19.3671875"></polygon>
                    <polygon id="Rectangle-23" points="46 28 342.667969 198.574219 334.148438 205.101562 38.4609375 33.3671875"></polygon>
                    <polygon id="Rectangle-23" points="27 43 323.667969 213.574219 315.148438 220.101562 19.4609375 48.3671875"></polygon>
                    <polygon id="Rectangle-23" points="8 57 304.667969 227.574219 296.148438 234.101562 0.4609375 62.3671875"></polygon>
                </g>
                <g id="Group-3" opacity="0.464508929" transform="translate(0.000000, 406.000000)" fill="#E4E4E4">
                    <polygon id="Rectangle-23" points="86 0 382.667969 170.574219 374.148438 177.101562 78.4609375 5.3671875"></polygon>
                    <polygon id="Rectangle-23" points="66 14 362.667969 184.574219 354.148438 191.101562 58.4609375 19.3671875"></polygon>
                    <polygon id="Rectangle-23" points="46 28 342.667969 198.574219 334.148438 205.101562 38.4609375 33.3671875"></polygon>
                    <polygon id="Rectangle-23" points="27 43 323.667969 213.574219 315.148438 220.101562 19.4609375 48.3671875"></polygon>
                    <polygon id="Rectangle-23" points="8 57 304.667969 227.574219 296.148438 234.101562 0.4609375 62.3671875"></polygon>
                </g>
                <g id="Group-4" transform="translate(335.567504, 131.830960) rotate(-15.000000) translate(-335.567504, -131.830960) translate(246.067504, 19.330960)">
                    <g id="Oval-2">
                        <use fill="black" fill-opacity="1" filter="url(#filter-4)" xlink:href="#path-3"></use>
                        <use fill="#868686" fill-rule="evenodd" xlink:href="#path-3"></use>
                    </g>
                    <path d="M0.0237262829,199 L0,199 L0,169 L179,169 L179,199 L178.976274,199 C178.992063,199.166208 179,199.332881 179,199.5 C179,211.374122 138.929485,221 89.5,221 C40.0705149,221 0,211.374122 0,199.5 C0,199.332881 0.00793730085,199.166208 0.0237262829,199 Z" id="Combined-Shape" fill="#E8E8E8"></path>
                    <ellipse id="Oval-2" fill="#CDCCCC" cx="89.5" cy="169.5" rx="89.5" ry="21.5"></ellipse>
                    <path d="M24,167 L24,146 L155,146 L155,167 C155,175.836556 126.226936,183 89.5,183 C52.7730641,183 24,175.836556 24,167 Z" id="Combined-Shape" fill="#E8E8E8"></path>
                    <path d="M89.5,163 C126.226936,163 155,155.836556 155,147 C155,138.163444 126.226936,131 89.5,131 C52.7730641,131 24,138.163444 24,147 C24,155.836556 52.7730641,163 89.5,163 Z" id="Oval-2" fill="#CDCCCC"></path>
                    <path d="M48.4473704,141.09544 C59.7691738,125.39696 65.6902814,109.69848 66.2106934,94 C66.7742513,77 61.3378092,60 49.9013672,43 L129.327148,43 C117.852458,60 112.377767,77 112.903076,94 C113.388262,109.701527 119.27624,125.403054 130.567011,141.104581 C132.464532,142.312355 133.5,143.626072 133.5,145 C133.5,150.936007 114.171529,155.748092 89.5,155.748092 C64.8284706,155.748092 45.5,150.936007 45.5,145 C45.5,143.622605 46.5407001,142.305725 48.4473704,141.09544 Z" id="Combined-Shape" fill="#E8E8E8"></path>
                    <circle id="Oval-3" fill="#E8E8E8" cx="89.5" cy="41.5" r="41.5"></circle>
                </g>
                <g id="Group-5" transform="translate(383.000000, 289.000000)" fill="url(#linearGradient-5)">
                    <polygon id="Rectangle-16" points="15.0878906 0 30.6367188 9.93359375 18.328125 69.2128906 0 61.0019531"></polygon>
                    <polygon id="Rectangle-16" points="95.9394531 25.8164062 115.570312 37.0292969 18.6171875 70.6855469 0 60.5791016"></polygon>
                </g>
            </g>
        </g>
    </g>
</svg>