<svg id="Calque_3" data-name="Calque 3" xmlns="http://www.w3.org/2000/svg" xmlns:xlink="http://www.w3.org/1999/xlink" viewBox="0 0 392.82 314.11"><defs><style>.cls-1{fill:url(#radial-gradient);}.cls-2{fill:url(#linear-gradient);}.cls-3{fill:url(#linear-gradient-2);}.cls-4{fill:none;}.cls-5{fill:url(#radial-gradient-2);}.cls-6{fill:#0d3d7a;}.cls-7{fill:#cf3432;}</style><radialGradient id="radial-gradient" cx="623.98" cy="240.08" r="240.18" gradientUnits="userSpaceOnUse"><stop offset="0" stop-color="#d57439"/><stop offset="0.13" stop-color="#d76137"/><stop offset="0.35" stop-color="#da3832"/><stop offset="1" stop-color="#99231e"/></radialGradient><linearGradient id="linear-gradient" x1="196.41" x2="196.41" y2="205.21" gradientUnits="userSpaceOnUse"><stop offset="0" stop-color="#6dc5e4"/><stop offset="0.08" stop-color="#5cb2d6"/><stop offset="0.24" stop-color="#3181b1"/><stop offset="0.41" stop-color="#004b87"/><stop offset="1" stop-color="#00103b"/></linearGradient><linearGradient id="linear-gradient-2" x1="586.48" y1="207.9" x2="586.48" y2="345.28" gradientTransform="translate(39.87 -57.83) rotate(5.8)" gradientUnits="userSpaceOnUse"><stop offset="0" stop-color="#9ed6f4"/><stop offset="1" stop-color="#00396c"/></linearGradient><radialGradient id="radial-gradient-2" cx="627.81" cy="250.5" r="137.74" gradientUnits="userSpaceOnUse"><stop offset="0.25" stop-color="#fff"/><stop offset="0.46" stop-color="#f6f9fa"/><stop offset="0.78" stop-color="#dfe7ed"/><stop offset="1" stop-color="#ccd9e2"/></radialGradient></defs><title>POLE_EMPLOI_NEW_13-11</title><path class="cls-1" d="M705.26,338.3c1.61-7.92-3.24-9.64-5.86-10-.5-.05-1-.09-1.56-.09a10.07,10.07,0,0,0-6.86,2.34c-1.82,1.66-7.08,6.6-9.79,9a77.25,77.25,0,0,1-9,6.77,38.63,38.63,0,0,1-10.39,4.76A43.08,43.08,0,0,1,650,352.57a33.5,33.5,0,0,1-30.72-19,46.57,46.57,0,0,1-4.87-19.62,3.69,3.69,0,0,1,3.92-3.89h65.08c8.77,0,15.43-1.27,19.93-3.61,4-2.07,6.29-6.66,6.33-15A55.59,55.59,0,0,0,702.73,265c-4.6-8.62-11.48-15.64-20.79-21.13s-20.34-8.2-33.46-8.2a74.7,74.7,0,0,0-27.41,4.82,55.18,55.18,0,0,0-20.62,13.76,60.09,60.09,0,0,0-12.76,21.59,83.31,83.31,0,0,0-4.41,27.54c0,21.15,6,37.58,17.77,49.72S629.32,371.3,651,371.31a77.86,77.86,0,0,0,24.41-3.51C688.29,363.27,702.79,350.42,705.26,338.3Zm-90.71-47.54c1.34-11,4.68-19.7,10.3-25.75,5.82-6.3,13.51-9.52,22.5-9.49,9.37,0,17.26,3.12,23.11,9.36,5.68,6,8.87,14.84,9.88,26.14.14,1.89-1.85,3.54-3.88,3.54h-58C616.31,294.54,614.21,292.84,614.54,290.76Z" transform="translate(-398.45 -200.89)"/><circle class="cls-2" cx="196.41" cy="102.6" r="102.61"/><path class="cls-3" d="M505.31,336.53a95.44,95.44,0,0,1,99.2-128c42.8,4.35,75,36.29,82.84,72.53,6.85,31.34-41.16,33.31-83.21,24.65C569.16,293.38,523.47,294.37,505.31,336.53Z" transform="translate(-398.45 -200.89)"/><circle class="cls-4" cx="196.41" cy="102.6" r="95.47"/><path class="cls-5" d="M694.34,328.71a8.7,8.7,0,0,0-3.37,1.84c-1.82,1.66-7.08,6.6-9.79,9a77.25,77.25,0,0,1-9,6.77,38.63,38.63,0,0,1-10.39,4.76A43.08,43.08,0,0,1,650,352.57a33.5,33.5,0,0,1-30.72-19,46.57,46.57,0,0,1-4.87-19.62,3.69,3.69,0,0,1,3.92-3.89h65.08a58.83,58.83,0,0,0,14-1.44q.12-2.53.13-5.09a102.15,102.15,0,0,0-21.29-62.57c-8-3.5-17.2-5.27-27.7-5.27a74.7,74.7,0,0,0-27.41,4.82,55.18,55.18,0,0,0-20.62,13.76,60.09,60.09,0,0,0-12.76,21.59,83.31,83.31,0,0,0-4.41,27.54c0,21.15,6,37.58,17.77,49.72S629.32,371.3,651,371.31A78.62,78.62,0,0,0,674.62,368,102.26,102.26,0,0,0,694.34,328.71Zm-79.8-38c1.34-11,4.68-19.7,10.3-25.75,5.82-6.3,13.51-9.52,22.5-9.49,9.37,0,17.26,3.12,23.11,9.36,5.68,6,8.87,14.84,9.88,26.14.14,1.89-1.85,3.54-3.88,3.54h-58C616.31,294.54,614.21,292.84,614.54,290.76Z" transform="translate(-398.45 -200.89)"/><path class="cls-6" d="M434.48,476.39q0,21.57-18.05,21.57H406v17h-7.57V476.4q0-21.66,18-21.66T434.48,476.39Zm-7.57,0q0-6.62-2-9.57-2.48-3.68-8.52-3.68T408,466.82q-2,2.95-2,9.57v13.17h10.41q6,0,8.52-3.6Q426.91,482.94,426.91,476.39Z" transform="translate(-398.45 -200.89)"/><path class="cls-6" d="M475.76,476.39q0,21.57-18,21.57t-18.05-21.57q0-21.65,18.05-21.65T475.76,476.39Zm-2.84-29.89-3.42,4.64-12.08-6.85-12.08,6.85-3.42-4.64,15.5-8.81Zm-4.8,29.89q0-6.62-2-9.57-2.39-3.68-8.38-3.68t-8.46,3.68q-2,2.95-2,9.57t2,9.57q2.46,3.6,8.46,3.6t8.38-3.6Q468.12,483,468.12,476.39Z" transform="translate(-398.45 -200.89)"/><path class="cls-6" d="M501.22,498q-19.36,0-19.36-15.66V437.7h7.57v44.68a6,6,0,0,0,2,5q2.69,2.2,9.75,2.21Z" transform="translate(-398.45 -200.89)"/><path class="cls-7" d="M672.85,498h-7.57V476.35q0-6.6-2-9.54-2.48-3.67-8.51-3.67t-8.44,3.67q-2,2.94-2,9.54V498h-7.57V476.35q0-6.6-2-9.54-2.48-3.67-8.52-3.67t-8.44,3.67q-2,2.94-2,9.54V498h-7.57V476.39q0-21.65,18-21.65,9.61,0,14.27,6.52,4.59-6.52,14.2-6.52,18,0,18,21.65Z" transform="translate(-398.45 -200.89)"/><path class="cls-7" d="M715,476.39Q715,498,696.94,498H686.53v17H679V476.4q0-21.66,18-21.66T715,476.39Zm-7.57,0q0-6.62-2-9.57-2.47-3.68-8.52-3.68t-8.44,3.68q-2,2.95-2,9.57v13.17h10.41q6,0,8.52-3.6Q707.42,482.94,707.42,476.39Z" transform="translate(-398.45 -200.89)"/><path class="cls-7" d="M739.88,498q-19.36,0-19.36-15.66V437.7h7.57v44.68a6,6,0,0,0,2,5q2.69,2.2,9.75,2.21Z" transform="translate(-398.45 -200.89)"/><path class="cls-7" d="M778.09,476.39q0,21.57-18,21.57t-18.05-21.57q0-21.65,18.05-21.65T778.09,476.39Zm-7.57,0q0-6.62-2-9.57-2.4-3.68-8.45-3.68t-8.44,3.68q-2,2.95-2,9.57t2,9.57q2.41,3.6,8.44,3.6t8.45-3.6Q770.52,483,770.53,476.39Z" transform="translate(-398.45 -200.89)"/><path class="cls-7" d="M791.27,446.1H783.7v-8.4h7.57Zm-7.57,8.64h7.57V498H783.7Z" transform="translate(-398.45 -200.89)"/><path class="cls-6" d="M512.34,479.08c0,7.33,3.87,12,10.87,12,4.8,0,7.33-1.35,10.36-4.38L539,491.8c-4.38,4.38-8.51,6.66-16,6.66-10.7,0-19.21-5.64-19.21-21.9,0-13.82,7.16-21.82,18.11-21.82,11.46,0,18.11,8.42,18.11,20.55v3.79Zm18-11.79a8.8,8.8,0,0,0-8.42-5.39,8.92,8.92,0,0,0-8.51,5.39,13.5,13.5,0,0,0-1.09,5.81h19.21A13.48,13.48,0,0,0,530.37,467.29Z" transform="translate(-398.45 -200.89)"/><path class="cls-7" d="M574.59,479.08c0,7.33,3.87,12,10.87,12,4.8,0,7.33-1.35,10.36-4.38l5.48,5.14c-4.38,4.38-8.51,6.66-16,6.66-10.7,0-19.21-5.64-19.21-21.9,0-13.82,7.16-21.82,18.11-21.82,11.46,0,18.11,8.42,18.11,20.55v3.79Zm18-11.79a8.8,8.8,0,0,0-8.42-5.39,8.92,8.92,0,0,0-8.51,5.39,13.51,13.51,0,0,0-1.09,5.81h19.21A13.48,13.48,0,0,0,592.61,467.29Z" transform="translate(-398.45 -200.89)"/><path class="cls-6" d="M434.48,476.39q0,21.57-18.05,21.57H406v17h-7.57V476.4q0-21.66,18-21.66T434.48,476.39Zm-7.57,0q0-6.62-2-9.57-2.48-3.68-8.52-3.68T408,466.82q-2,2.95-2,9.57v13.17h10.41q6,0,8.52-3.6Q426.91,482.94,426.91,476.39Z" transform="translate(-398.45 -200.89)"/><path class="cls-6" d="M475.76,476.39q0,21.57-18,21.57t-18.05-21.57q0-21.65,18.05-21.65T475.76,476.39Zm-2.84-29.89-3.42,4.64-12.08-6.85-12.08,6.85-3.42-4.64,15.5-8.81Zm-4.8,29.89q0-6.62-2-9.57-2.39-3.68-8.38-3.68t-8.46,3.68q-2,2.95-2,9.57t2,9.57q2.46,3.6,8.46,3.6t8.38-3.6Q468.12,483,468.12,476.39Z" transform="translate(-398.45 -200.89)"/><path class="cls-6" d="M501.22,498q-19.36,0-19.36-15.66V437.7h7.57v44.68a6,6,0,0,0,2,5q2.69,2.2,9.75,2.21Z" transform="translate(-398.45 -200.89)"/><path class="cls-7" d="M672.85,498h-7.57V476.35q0-6.6-2-9.54-2.48-3.67-8.51-3.67t-8.44,3.67q-2,2.94-2,9.54V498h-7.57V476.35q0-6.6-2-9.54-2.48-3.67-8.52-3.67t-8.44,3.67q-2,2.94-2,9.54V498h-7.57V476.39q0-21.65,18-21.65,9.61,0,14.27,6.52,4.59-6.52,14.2-6.52,18,0,18,21.65Z" transform="translate(-398.45 -200.89)"/><path class="cls-7" d="M715,476.39Q715,498,696.94,498H686.53v17H679V476.4q0-21.66,18-21.66T715,476.39Zm-7.57,0q0-6.62-2-9.57-2.47-3.68-8.52-3.68t-8.44,3.68q-2,2.95-2,9.57v13.17h10.41q6,0,8.52-3.6Q707.42,482.94,707.42,476.39Z" transform="translate(-398.45 -200.89)"/><path class="cls-7" d="M739.88,498q-19.36,0-19.36-15.66V437.7h7.57v44.68a6,6,0,0,0,2,5q2.69,2.2,9.75,2.21Z" transform="translate(-398.45 -200.89)"/><path class="cls-7" d="M778.09,476.39q0,21.57-18,21.57t-18.05-21.57q0-21.65,18.05-21.65T778.09,476.39Zm-7.57,0q0-6.62-2-9.57-2.4-3.68-8.45-3.68t-8.44,3.68q-2,2.95-2,9.57t2,9.57q2.41,3.6,8.44,3.6t8.45-3.6Q770.52,483,770.53,476.39Z" transform="translate(-398.45 -200.89)"/><path class="cls-7" d="M791.27,446.1H783.7v-8.4h7.57Zm-7.57,8.64h7.57V498H783.7Z" transform="translate(-398.45 -200.89)"/><path class="cls-6" d="M512.34,479.08c0,7.33,3.87,12,10.87,12,4.8,0,7.33-1.35,10.36-4.38L539,491.8c-4.38,4.38-8.51,6.66-16,6.66-10.7,0-19.21-5.64-19.21-21.9,0-13.82,7.16-21.82,18.11-21.82,11.46,0,18.11,8.42,18.11,20.55v3.79Zm18-11.79a8.8,8.8,0,0,0-8.42-5.39,8.92,8.92,0,0,0-8.51,5.39,13.5,13.5,0,0,0-1.09,5.81h19.21A13.48,13.48,0,0,0,530.37,467.29Z" transform="translate(-398.45 -200.89)"/><path class="cls-7" d="M574.59,479.08c0,7.33,3.87,12,10.87,12,4.8,0,7.33-1.35,10.36-4.38l5.48,5.14c-4.38,4.38-8.51,6.66-16,6.66-10.7,0-19.21-5.64-19.21-21.9,0-13.82,7.16-21.82,18.11-21.82,11.46,0,18.11,8.42,18.11,20.55v3.79Zm18-11.79a8.8,8.8,0,0,0-8.42-5.39,8.92,8.92,0,0,0-8.51,5.39,13.51,13.51,0,0,0-1.09,5.81h19.21A13.48,13.48,0,0,0,592.61,467.29Z" transform="translate(-398.45 -200.89)"/></svg>