<?xml version="1.0" encoding="UTF-8"?>
<svg width="525px" height="361px" viewBox="0 0 525 361" version="1.1" xmlns="http://www.w3.org/2000/svg" xmlns:xlink="http://www.w3.org/1999/xlink">
    <!-- Generator: sketchtool 51.1 (57501) - http://www.bohemiancoding.com/sketch -->
    <title>47520E99-A0D8-491D-B738-24B065DB028E</title>
    <desc>Created with sketchtool.</desc>
    <defs></defs>
    <g id="WebDesign" stroke="none" stroke-width="1" fill="none" fill-rule="evenodd">
        <g id="Diplômes-404" transform="translate(-270.000000, -401.000000)">
            <g id="Recevabilité" transform="translate(269.000000, 313.000000)">
                <g id="Recevabilite">
                    <path d="M416.154615,372.481325 L274.89883,432.440849 C262.341824,437.770982 247.841433,431.912443 242.5113,419.355437 L242.488102,419.300788 C240.114995,413.710096 239.959763,407.734177 241.626126,402.353862 L130.735274,447.156675 C118.087156,452.266846 103.691219,446.156133 98.5810478,433.508015 L98.5588078,433.452969 C93.4486367,420.804852 99.5593495,406.408915 112.207467,401.298744 L114.264287,400.467735 C103.59706,401.571187 93.0508155,395.585081 88.8323664,385.144053 L88.8101264,385.089007 C85.4256715,376.712187 86.9631263,367.568707 92.0618972,360.863923 L34.9700662,383.93052 C22.3219488,389.040691 7.92601151,382.929979 2.81584037,370.281861 L2.79360033,370.226815 C-2.31657082,357.578698 3.79414201,343.18276 16.4422594,338.072589 L48.7052264,325.037505 C39.0563283,324.907394 29.9677936,319.093744 26.1264056,309.585975 L26.1041655,309.530929 C20.9939944,296.882811 27.1047072,282.486874 39.7528246,277.376703 L97.5857553,254.010682 C90.6161377,251.946113 84.6192271,246.838631 81.6846168,239.575216 L81.6623767,239.52017 C76.5522056,226.872052 82.6629184,212.476115 95.3110358,207.365944 L214.735593,159.115291 C223.266078,155.668751 232.59161,157.326353 239.327175,162.651246 L339.783944,120.009877 C352.34095,114.679744 366.841342,120.538283 372.171475,133.095289 L372.194672,133.149938 C374.907569,139.541124 374.721994,146.435751 372.229989,152.368467 L417.767472,133.038952 C430.324479,127.708819 444.82487,133.567358 450.155003,146.124364 L450.1782,146.179014 C453.230192,153.369056 452.613847,161.19626 449.172116,167.57425 L479.993661,154.49128 C492.550667,149.161147 507.051059,155.019686 512.381192,167.576692 L512.404389,167.631342 C517.734522,180.188348 511.875983,194.688739 499.318977,200.018872 L466.718249,213.85706 C476.363741,213.823297 485.546637,219.476701 489.551779,228.912225 L489.574977,228.966874 C493.104176,237.281146 491.728197,246.447408 486.75045,253.239614 L491.631384,251.167781 C504.18839,245.837648 518.688781,251.696186 524.018914,264.253193 L524.042111,264.307842 C529.372244,276.864848 523.513706,291.36524 510.9567,296.695373 L491.630856,304.898707 C502.266591,303.624652 512.898871,309.424552 517.294515,319.780039 L517.317712,319.834689 C522.647845,332.391695 516.789307,346.892086 504.2323,352.222219 L443.518588,377.993661 C433.861674,382.092778 423.05538,379.574561 416.154615,372.481325 Z" id="Bg" fill="#EAEAEA"></path>
                    <g id="Perso" transform="translate(158.000000, 0.000000)">
                        <g id="Group-16" transform="translate(140.000000, 31.000000)">
                            <rect id="Rectangle-8" stroke="#443C77" stroke-width="1.79999989" fill="#6C8EB1" x="-0.899999946" y="180.099993" width="77.9999954" height="98.3999941" rx="38.9999977"></rect>
                            <circle id="Oval-4" fill="#443C77" cx="37.4999978" cy="250.899989" r="3.2999998"></circle>
                            <path d="M29.0999983,162.699994 L46.4999972,162.699994 L46.4999972,185.590223 L46.2151495,185.856946 C43.4965656,188.40255 40.6987438,189.699992 37.8369118,189.699992 C34.977577,189.699992 32.1580021,188.40478 29.3911037,185.86275 L29.0999983,185.595303 L29.0999983,162.699994 Z" id="Rectangle-7" stroke="#443C77" stroke-width="1.79999989" fill="#FCF2ED"></path>
                            <ellipse id="Oval-5" stroke="#443C77" stroke-width="1.79999989" fill="#FCF2ED" cx="8.69999948" cy="128.199996" rx="9.59999943" ry="10.4999994"></ellipse>
                            <circle id="Oval-4" fill="#443C77" cx="8.69999948" cy="128.499996" r="3.2999998"></circle>
                            <ellipse id="Oval-5" stroke="#443C77" stroke-width="1.79999989" fill="#FCF2ED" cx="66.299996" cy="128.199996" rx="9.59999943" ry="10.4999994"></ellipse>
                            <circle id="Oval-4" fill="#443C77" cx="66.899996" cy="128.499996" r="3.2999998"></circle>
                            <rect id="Rectangle-4" stroke="#443C77" stroke-width="1.79999989" fill="#FCF2ED" x="8.69999948" y="89.4999981" width="58.1999965" height="79.1999953" rx="29.0999983"></rect>
                            <circle id="Oval-4" fill="#443C77" cx="26.6999984" cy="127.299996" r="3.2999998"></circle>
                            <rect id="Rectangle-3" stroke="#443C77" stroke-width="2" fill-opacity="0.124773551" fill="#000000" transform="translate(24.000000, 127.000000) rotate(5.000000) translate(-24.000000, -127.000000) " x="13" y="120" width="22" height="14" rx="2"></rect>
                            <rect id="Rectangle-3" stroke="#443C77" stroke-width="2" fill-opacity="0.124773551" fill="#000000" transform="translate(51.000000, 127.000000) scale(1, -1) rotate(5.000000) translate(-51.000000, -127.000000) " x="40" y="120" width="22" height="14" rx="2"></rect>
                            <circle id="Oval-4" fill="#443C77" cx="47.6999972" cy="127.299996" r="3.2999998"></circle>
                            <rect id="Rectangle-6" fill="#DAB9A9" x="35.3999979" y="133.599995" width="4.79999971" height="8.3999995" rx="2.39999986"></rect>
                            <path d="M24.5402329,154.678901 C33.4003886,156.273823 42.2605444,156.273823 51.1207001,154.678901" id="Path-2" stroke="#443C77" stroke-width="1.79999989" stroke-linecap="round" transform="translate(37.830466, 155.276997) scale(1, -1) translate(-37.830466, -155.276997) "></path>
                            <path d="M59.1269139,110.728454 C44.5398365,114.923455 30.891914,114.927166 18.205178,110.729043 C15.7497753,115.454788 12.6726314,117.894528 8.97890571,117.894528 L8.60061177,117.894528 L8.33591745,117.624263 C2.97322668,112.148709 0.306980677,108.252546 0.341290747,105.675519 C0.402562829,101.073376 2.2479805,97.4404157 5.92708643,93.1017892 C6.46604457,92.4662168 8.23268,90.4633386 8.29902288,90.3868514 C8.88657649,89.709456 8.95938161,87.9895191 8.69105429,83.9485891 C8.68774627,83.8987836 8.68774627,83.8987836 8.6844349,83.8489546 C8.31432359,78.2797197 8.43486113,76.5361404 10.1221261,75.659391 C12.3642071,74.4943439 14.5417433,73.92203 16.8374442,73.8468759 C19.9519899,73.7449155 19.1895332,73.5663845 29.2808902,76.3218817 C30.1754423,76.5661438 30.985361,76.7777034 31.7837719,76.9735755 C33.5315157,77.402345 36.4603545,75.8522477 41.9456917,71.9330699 C42.1685576,71.7738361 42.4009062,71.6073048 42.6831195,71.4046355 C50.2134764,65.9967686 52.403217,64.7414577 54.6724369,65.6408609 C58.7549723,67.2589699 59.8113952,69.7568161 60.4864366,76.1366284 C60.766474,78.7832605 60.9014635,79.7876829 61.2183226,81.1717509 C61.4731311,82.2847763 61.7997921,83.2963992 62.22394,84.2449091 C62.8958552,85.7474942 64.4936303,86.953244 68.1791048,89.0258715 C68.3689083,89.1326127 69.0500202,89.514333 69.0289862,89.5025325 C73.8314834,92.1968343 75.8107153,93.7312035 76.6976869,96.2280256 C78.4615909,101.193409 76.6454214,105.923602 72.2260219,111.417097 C71.7316636,112.031605 71.2254176,112.633317 70.5784949,113.382614 C70.6522787,113.297154 69.4188046,114.71881 69.1227855,115.067173 C68.1649289,116.194403 67.6782145,116.873475 67.538972,117.283764 L67.3316931,117.894528 L66.6867148,117.894528 C63.3938804,117.894528 60.8833591,115.434903 59.1269139,110.728454 Z" id="Path-3" stroke="#443C77" stroke-width="1.79999989" fill="#D0D0D0"></path>
                            <path d="M22.430858,191.473039 C33.0347637,200.928116 43.1216771,200.928116 52.6915984,191.473039" id="Path-4" stroke="#443C77" stroke-width="1.79999989" stroke-linecap="round"></path>
                            <path d="M34.8369141,129.568359 C36.4378255,127.503255 38.4075521,127.503255 40.7460938,129.568359" id="Path-14" stroke="#443C77" stroke-width="2"></path>
                            <path d="M62.4033203,127.338867 L66.5839844,118.430664" id="Path-15" stroke="#443C77" stroke-width="2"></path>
                            <path d="M8.40332031,127.338867 L12.5839844,118.430664" id="Path-15" stroke="#443C77" stroke-width="2" transform="translate(10.493652, 122.884766) scale(1, -1) translate(-10.493652, -122.884766) "></path>
                        </g>
                        <g id="Group-16">
                            <rect id="Rectangle-8" stroke="#443C77" stroke-width="1.79999989" fill="#979482" x="2.10000005" y="180.099993" width="77.9999954" height="149.800007" rx="38.9999977"></rect>
                            <circle id="Oval-4" fill="#443C77" cx="40.4999978" cy="250.899989" r="3.2999998"></circle>
                            <path d="M32.0999983,162.699994 L49.4999972,162.699994 L49.4999972,185.590223 L49.2151495,185.856946 C46.4965656,188.40255 43.6987438,189.699992 40.8369118,189.699992 C37.977577,189.699992 35.1580021,188.40478 32.3911037,185.86275 L32.0999983,185.595303 L32.0999983,162.699994 Z" id="Rectangle-7" stroke="#443C77" stroke-width="1.79999989" fill="#FCF2ED"></path>
                            <ellipse id="Oval-5" stroke="#443C77" stroke-width="1.79999989" fill="#FCF2ED" cx="11.6999995" cy="128.199996" rx="9.59999943" ry="10.4999994"></ellipse>
                            <circle id="Oval-4" fill="#443C77" cx="11.6999995" cy="128.499996" r="3.2999998"></circle>
                            <ellipse id="Oval-5" stroke="#443C77" stroke-width="1.79999989" fill="#FCF2ED" cx="69.299996" cy="128.199996" rx="9.59999943" ry="10.4999994"></ellipse>
                            <circle id="Oval-4" fill="#443C77" cx="69.899996" cy="128.499996" r="3.2999998"></circle>
                            <rect id="Rectangle-4" stroke="#443C77" stroke-width="1.79999989" fill="#FCF2ED" x="11.6999995" y="89.4999981" width="58.1999965" height="79.1999953" rx="29.0999983"></rect>
                            <path d="M41.4873047,168.25293 C62.6289062,168.25293 68.0058594,151.002248 68.0058594,145.900391 C68.0058594,142.499152 66.429362,139.927538 63.2763672,138.185547 C59.1682943,144.833333 51.9052734,148.157227 41.4873047,148.157227 C31.0693359,148.157227 23.1848958,144.833333 17.8339844,138.185547 C13.8272081,141.562187 12.0130805,144.133802 12.3916016,145.900391 C15.4454398,160.152905 29.6025618,168.25293 41.4873047,168.25293 Z" id="Path-17" fill-opacity="0.217476223" fill="#8A5C47"></path>
                            <circle id="Oval-4" fill="#443C77" cx="29.6999984" cy="127.299996" r="3.2999998"></circle>
                            <circle id="Oval-4" fill="#443C77" cx="50.6999972" cy="127.299996" r="3.2999998"></circle>
                            <rect id="Rectangle-6" fill="#DAB9A9" x="38.3999979" y="133.599995" width="4.79999971" height="8.3999995" rx="2.39999986"></rect>
                            <path d="M27.5402329,155.678901 C35.3591141,157.273823 44.2192698,157.273823 54.1207001,155.678901" id="Path-2" stroke="#443C77" stroke-width="1.79999989" stroke-linecap="round" transform="translate(40.830466, 156.276997) scale(1, -1) translate(-40.830466, -156.276997) "></path>
                            <path d="M25.430858,191.473039 C36.0347637,200.928116 46.1216771,200.928116 55.6915984,191.473039" id="Path-4" stroke="#443C77" stroke-width="1.79999989" stroke-linecap="round"></path>
                            <path d="M40.8203125,199.180664 L40.8203125,240.500977" id="Path-16" stroke="#443C77" stroke-width="2"></path>
                        </g>
                        <g id="Group-16" transform="translate(65.000000, 139.000000)">
                            <rect id="Rectangle-8" stroke="#443C77" stroke-width="1.79999989" fill="#FFB4C5" x="4.10000005" y="106.099993" width="77.9999954" height="74.9999955" rx="37.4999978"></rect>
                            <circle id="Oval-4" fill="#443C77" cx="42.4999978" cy="137.899991" r="3.2999998"></circle>
                            <circle id="Oval-4" fill="#443C77" cx="42.4999978" cy="158.89999" r="3.2999998"></circle>
                            <circle id="Oval-4" fill="#443C77" cx="42.4999978" cy="176.899989" r="3.2999998"></circle>
                            <path d="M34.0999983,88.6999938 L51.4999972,88.6999938 L51.4999972,111.590223 L51.2151495,111.856946 C48.4965656,114.40255 45.6987438,115.699992 42.8369118,115.699992 C39.977577,115.699992 37.1580021,114.40478 34.3911037,111.86275 L34.0999983,111.595303 L34.0999983,88.6999938 Z" id="Rectangle-7" stroke="#443C77" stroke-width="1.79999989" fill="#D7B8A8"></path>
                            <ellipse id="Oval-5" stroke="#443C77" stroke-width="1.79999989" fill="#FCF2ED" cx="13.6999995" cy="54.1999958" rx="9.59999943" ry="10.4999994"></ellipse>
                            <circle id="Oval-4" fill="#443C77" cx="13.6999995" cy="54.4999958" r="3.2999998"></circle>
                            <ellipse id="Oval-5" stroke="#443C77" stroke-width="1.79999989" fill="#FCF2ED" cx="71.299996" cy="54.1999958" rx="9.59999943" ry="10.4999994"></ellipse>
                            <circle id="Oval-4" fill="#443C77" cx="71.899996" cy="54.4999958" r="3.2999998"></circle>
                            <rect id="Rectangle-4" stroke="#443C77" stroke-width="1.79999989" fill="#D7B8A8" x="13.6999995" y="15.4999981" width="58.1999965" height="87.5999948" rx="29.0999983"></rect>
                            <circle id="Oval-4" fill="#443C77" cx="31.6999984" cy="61.2999959" r="3.2999998"></circle>
                            <circle id="Oval-4" fill="#443C77" cx="52.6999972" cy="61.2999959" r="3.2999998"></circle>
                            <rect id="Rectangle-6" fill="#8A5C47" x="40" y="70" width="4.79999971" height="8.3999995" rx="2.39999986"></rect>
                            <path d="M43.4873047,103.25293 C64.6289062,103.25293 70.0058594,86.0022484 70.0058594,80.9003906 C70.0058594,77.4991521 68.429362,74.9275375 65.2763672,73.1855469 C61.1682943,79.8333333 53.9052734,83.1572266 43.4873047,83.1572266 C33.0693359,83.1572266 25.1848958,79.8333333 19.8339844,73.1855469 C15.8272081,76.562187 14.0130805,79.1338016 14.3916016,80.9003906 C17.4454398,95.1529049 31.6025618,103.25293 43.4873047,103.25293 Z" id="Path-17" fill-opacity="0.217476223" fill="#8A5C47"></path>
                            <path d="M30,91 C38.8601557,92.5949218 47.7203114,92.5949218 56.5804672,91" id="Path-2" stroke="#443C77" stroke-width="1.79999989" stroke-linecap="round" transform="translate(43.290234, 91.598096) scale(1, -1) translate(-43.290234, -91.598096) "></path>
                            <path d="M22.9014693,36.626859 C15.1052824,42.3794624 12.2387211,53.4153192 13.0846419,67.5504553 C13.3792064,72.4725572 14.1122705,77.3752508 15.0836944,81.8331825 C15.4113068,83.3366183 15.7413562,84.6647496 16.0060838,85.6005299 C16.0938921,85.9109214 16.1660822,86.1439735 16.1842055,86.1903146 C16.1789608,86.1768959 16.1770648,86.1732104 16.1467324,86.1142488 C16.1185141,86.0631158 16.1185141,86.0631158 16.022426,85.9447396 C15.8232188,85.6966357 15.8232188,85.6966357 14.9080833,85.7864073 C14.5819571,86.2771061 14.465825,86.4518417 14.4428277,86.5309819 C14.4394611,86.5176549 14.4358813,86.5036086 14.4320995,86.4889103 C14.4664562,86.6224402 9.4502801,79.6440751 6.9604313,75.2128463 C2.12318528,66.6039124 -0.72222694,57.5436887 -0.723171614,47.9105737 C-0.72438807,35.5060099 4.07670186,23.1612296 14.626339,11.1023267 C27.8595837,-4.02410953 53.5149769,-3.2196243 71.5119317,10.9894169 C86.2045847,22.6270002 88.7279989,40.5049672 82.5469534,61.53668 C80.4123896,68.7997767 77.3541733,75.9339653 73.9536481,82.2292751 C72.719308,84.514379 71.5196472,86.5285377 70.5751704,87.9465367 C70.1710091,88.553328 69.8407615,89.0086854 69.6187624,89.2643643 C69.5495089,89.3441243 69.4861145,89.4103727 69.4216567,89.4673872 C69.2270177,89.6395502 69.0695771,89.7352038 68.7538068,89.733156 C68.183986,89.5978784 68.183986,89.5978784 67.9023341,89.1374334 C67.8328967,88.8226782 67.8328967,88.8226782 67.8522144,88.6740506 C67.8675198,88.5583425 67.8983371,88.4569153 67.9441694,88.3398528 C69.4487955,84.4968133 71.7246564,74.410048 72.3535441,65.6290421 C73.314877,52.2061845 70.886165,41.8264551 64.1226421,36.3239181 C61.8202922,34.4508165 59.3449773,33.7562097 56.2655125,33.9531703 C53.9116627,34.103721 52.9372045,34.3377122 46.6330446,36.0768901 C36.9404216,38.7508698 30.7267392,39.2313825 22.9014693,36.626859 Z" id="Path-3" stroke="#443C77" stroke-width="1.79999989" fill="#AD745A"></path>
                            <path d="M27.430858,117.473039 C38.0347637,126.928116 48.1216771,126.928116 57.6915984,117.473039" id="Path-4" stroke="#443C77" stroke-width="1.79999989" stroke-linecap="round"></path>
                        </g>
                    </g>
                    <g id="Group-3" transform="translate(432.199219, 141.273438) rotate(-315.000000) translate(-432.199219, -141.273438) translate(389.199219, 93.773438)" fill="#443C77">
                        <g id="exclamatin" transform="translate(72.809259, 47.980064) rotate(8.000000) translate(-72.809259, -47.980064) translate(63.809259, 19.980064)">
                            <polygon id="Rectangle-11" points="0.312268991 0.453533535 17.0657482 6.88974441 12.6890257 41.8737848 2.53780514 41.8737848"></polygon>
                            <polygon id="Rectangle-11" points="2.53780514 46.3149437 12.6890257 46.3149437 12.1537074 55.3323305 3.4882429 55.023779"></polygon>
                        </g>
                        <text id="?" transform="translate(30.232042, 47.544363) rotate(-18.000000) translate(-30.232042, -47.544363) " font-family="Quatro-Medium, Quatro" font-size="72" font-weight="400">
                            <tspan x="13.6040418" y="72.0443631">?</tspan>
                        </text>
                    </g>
                    <g id="Desk" transform="translate(15.000000, 229.000000)" stroke="#443C77" stroke-width="1.79999989">
                        <g id="Bureau" transform="translate(0.000000, 71.000000)">
                            <path d="M76.9663687,-0.899999946 L414.148126,-0.899999946 L501.837286,32.8999999 L1.80423124,32.8999999 L76.9663687,-0.899999946 Z" id="Rectangle-12" fill="#DCD0C7"></path>
                            <rect id="Rectangle-13" fill="#AEA197" x="-0.899999946" y="33.1000001" width="504.8" height="12.7999999"></rect>
                        </g>
                        <g id="Livres" transform="translate(13.000000, 0.000000)">
                            <g id="Livre" transform="translate(17.200013, 48.700020) rotate(-270.000000) translate(-17.200013, -48.700020) translate(-31.299987, 31.700020)">
                                <path d="M11.5862058,2.49999955 L48.4999928,2.49999955 L48.4999928,34.8999976 L-1.11967576,34.8999976 L11.5862058,2.49999955 Z" id="Rectangle-14" fill="#FFFFFF"></path>
                                <path d="M60.7862029,2.49999955 L97.6999898,2.49999955 L97.6999898,34.8999976 L48.0803213,34.8999976 L60.7862029,2.49999955 Z" id="Rectangle-14" fill="#ECECEC" transform="translate(73.099991, 18.699999) scale(-1, 1) translate(-73.099991, -18.699999) "></path>
                                <path d="M11.5862058,-0.500000268 L48.4999928,-0.500000268 L48.4999928,31.8999978 L-1.11967576,31.8999978 L11.5862058,-0.500000268 Z" id="Rectangle-14" fill="#FFFFFF"></path>
                                <path d="M60.7862029,-0.500000268 L97.6999898,-0.500000268 L97.6999898,31.8999978 L48.0803213,31.8999978 L60.7862029,-0.500000268 Z" id="Rectangle-14" fill="#ECECEC" transform="translate(73.099991, 15.699999) scale(-1, 1) translate(-73.099991, -15.699999) "></path>
                                <path d="M41.8999932,24.6999982 L9.49999508,24.6999982" id="Line-3" stroke-linecap="round"></path>
                                <path d="M41.8999932,18.6999986 L11.8999949,18.6999986" id="Line-3" stroke-linecap="round"></path>
                                <path d="M41.8999932,12.6999989 L29.2999939,12.6999989" id="Line-3" stroke-linecap="round"></path>
                                <path d="M87.4999904,24.6999982 L55.0999924,24.6999982" id="Line-3" stroke-linecap="round"></path>
                                <path d="M72.4999913,18.6999986 L54.4999924,18.6999986" id="Line-3" stroke-linecap="round"></path>
                                <path d="M61.699992,12.6999989 L54.4999924,12.6999989" id="Line-3" stroke-linecap="round"></path>
                            </g>
                            <g id="Livre" transform="translate(37.200013, 48.700020) rotate(-270.000000) translate(-37.200013, -48.700020) translate(-11.299987, 31.700020)">
                                <path d="M11.5862058,2.49999955 L48.4999928,2.49999955 L48.4999928,34.8999976 L-1.11967576,34.8999976 L11.5862058,2.49999955 Z" id="Rectangle-14" fill="#FFFFFF"></path>
                                <path d="M60.7862029,2.49999955 L97.6999898,2.49999955 L97.6999898,34.8999976 L48.0803213,34.8999976 L60.7862029,2.49999955 Z" id="Rectangle-14" fill="#ECECEC" transform="translate(73.099991, 18.699999) scale(-1, 1) translate(-73.099991, -18.699999) "></path>
                                <path d="M11.5862058,-0.500000268 L48.4999928,-0.500000268 L48.4999928,31.8999978 L-1.11967576,31.8999978 L11.5862058,-0.500000268 Z" id="Rectangle-14" fill="#FFFFFF"></path>
                                <path d="M60.7862029,-0.500000268 L97.6999898,-0.500000268 L97.6999898,31.8999978 L48.0803213,31.8999978 L60.7862029,-0.500000268 Z" id="Rectangle-14" fill="#ECECEC" transform="translate(73.099991, 15.699999) scale(-1, 1) translate(-73.099991, -15.699999) "></path>
                                <path d="M41.8999932,24.6999982 L9.49999508,24.6999982" id="Line-3" stroke-linecap="round"></path>
                                <path d="M41.8999932,18.6999986 L11.8999949,18.6999986" id="Line-3" stroke-linecap="round"></path>
                                <path d="M41.8999932,12.6999989 L29.2999939,12.6999989" id="Line-3" stroke-linecap="round"></path>
                                <path d="M87.4999904,24.6999982 L55.0999924,24.6999982" id="Line-3" stroke-linecap="round"></path>
                                <path d="M72.4999913,18.6999986 L54.4999924,18.6999986" id="Line-3" stroke-linecap="round"></path>
                                <path d="M61.699992,12.6999989 L54.4999924,12.6999989" id="Line-3" stroke-linecap="round"></path>
                            </g>
                            <g id="Livre" transform="translate(57.200013, 48.700020) rotate(-270.000000) translate(-57.200013, -48.700020) translate(8.700013, 31.700020)">
                                <path d="M11.5862058,2.49999955 L48.4999928,2.49999955 L48.4999928,34.8999976 L-1.11967576,34.8999976 L11.5862058,2.49999955 Z" id="Rectangle-14" fill="#FFFFFF"></path>
                                <path d="M60.7862029,2.49999955 L97.6999898,2.49999955 L97.6999898,34.8999976 L48.0803213,34.8999976 L60.7862029,2.49999955 Z" id="Rectangle-14" fill="#ECECEC" transform="translate(73.099991, 18.699999) scale(-1, 1) translate(-73.099991, -18.699999) "></path>
                                <path d="M11.5862058,-0.500000268 L48.4999928,-0.500000268 L48.4999928,31.8999978 L-1.11967576,31.8999978 L11.5862058,-0.500000268 Z" id="Rectangle-14" fill="#FFFFFF"></path>
                                <path d="M60.7862029,-0.500000268 L97.6999898,-0.500000268 L97.6999898,31.8999978 L48.0803213,31.8999978 L60.7862029,-0.500000268 Z" id="Rectangle-14" fill="#ECECEC" transform="translate(73.099991, 15.699999) scale(-1, 1) translate(-73.099991, -15.699999) "></path>
                                <path d="M41.8999932,24.6999982 L9.49999508,24.6999982" id="Line-3" stroke-linecap="round"></path>
                                <path d="M41.8999932,18.6999986 L11.8999949,18.6999986" id="Line-3" stroke-linecap="round"></path>
                                <path d="M41.8999932,12.6999989 L29.2999939,12.6999989" id="Line-3" stroke-linecap="round"></path>
                                <path d="M87.4999904,24.6999982 L55.0999924,24.6999982" id="Line-3" stroke-linecap="round"></path>
                                <path d="M72.4999913,18.6999986 L54.4999924,18.6999986" id="Line-3" stroke-linecap="round"></path>
                                <path d="M61.699992,12.6999989 L54.4999924,12.6999989" id="Line-3" stroke-linecap="round"></path>
                            </g>
                            <g id="Livre" transform="translate(77.200013, 48.700020) rotate(-270.000000) translate(-77.200013, -48.700020) translate(28.700013, 31.700020)">
                                <path d="M11.5862058,2.49999955 L48.4999928,2.49999955 L48.4999928,34.8999976 L-1.11967576,34.8999976 L11.5862058,2.49999955 Z" id="Rectangle-14" fill="#FFFFFF"></path>
                                <path d="M60.7862029,2.49999955 L97.6999898,2.49999955 L97.6999898,34.8999976 L48.0803213,34.8999976 L60.7862029,2.49999955 Z" id="Rectangle-14" fill="#ECECEC" transform="translate(73.099991, 18.699999) scale(-1, 1) translate(-73.099991, -18.699999) "></path>
                                <path d="M11.5862058,-0.500000268 L48.4999928,-0.500000268 L48.4999928,31.8999978 L-1.11967576,31.8999978 L11.5862058,-0.500000268 Z" id="Rectangle-14" fill="#FFFFFF"></path>
                                <path d="M60.7862029,-0.500000268 L97.6999898,-0.500000268 L97.6999898,31.8999978 L48.0803213,31.8999978 L60.7862029,-0.500000268 Z" id="Rectangle-14" fill="#ECECEC" transform="translate(73.099991, 15.699999) scale(-1, 1) translate(-73.099991, -15.699999) "></path>
                                <path d="M41.8999932,24.6999982 L9.49999508,24.6999982" id="Line-3" stroke-linecap="round"></path>
                                <path d="M41.8999932,18.6999986 L11.8999949,18.6999986" id="Line-3" stroke-linecap="round"></path>
                                <path d="M41.8999932,12.6999989 L29.2999939,12.6999989" id="Line-3" stroke-linecap="round"></path>
                                <path d="M87.4999904,24.6999982 L55.0999924,24.6999982" id="Line-3" stroke-linecap="round"></path>
                                <path d="M72.4999913,18.6999986 L54.4999924,18.6999986" id="Line-3" stroke-linecap="round"></path>
                                <path d="M61.699992,12.6999989 L54.4999924,12.6999989" id="Line-3" stroke-linecap="round"></path>
                            </g>
                            <g id="Livre" transform="translate(97.200013, 48.700020) rotate(-270.000000) translate(-97.200013, -48.700020) translate(48.700013, 31.700020)">
                                <path d="M11.5862058,2.49999955 L48.4999928,2.49999955 L48.4999928,34.8999976 L-1.11967576,34.8999976 L11.5862058,2.49999955 Z" id="Rectangle-14" fill="#FFFFFF"></path>
                                <path d="M60.7862029,2.49999955 L97.6999898,2.49999955 L97.6999898,34.8999976 L48.0803213,34.8999976 L60.7862029,2.49999955 Z" id="Rectangle-14" fill="#ECECEC" transform="translate(73.099991, 18.699999) scale(-1, 1) translate(-73.099991, -18.699999) "></path>
                                <path d="M11.5862058,-0.500000268 L48.4999928,-0.500000268 L48.4999928,31.8999978 L-1.11967576,31.8999978 L11.5862058,-0.500000268 Z" id="Rectangle-14" fill="#FFFFFF"></path>
                                <path d="M60.7862029,-0.500000268 L97.6999898,-0.500000268 L97.6999898,31.8999978 L48.0803213,31.8999978 L60.7862029,-0.500000268 Z" id="Rectangle-14" fill="#ECECEC" transform="translate(73.099991, 15.699999) scale(-1, 1) translate(-73.099991, -15.699999) "></path>
                                <path d="M41.8999932,24.6999982 L9.49999508,24.6999982" id="Line-3" stroke-linecap="round"></path>
                                <path d="M41.8999932,18.6999986 L11.8999949,18.6999986" id="Line-3" stroke-linecap="round"></path>
                                <path d="M41.8999932,12.6999989 L29.2999939,12.6999989" id="Line-3" stroke-linecap="round"></path>
                                <path d="M87.4999904,24.6999982 L55.0999924,24.6999982" id="Line-3" stroke-linecap="round"></path>
                                <path d="M72.4999913,18.6999986 L54.4999924,18.6999986" id="Line-3" stroke-linecap="round"></path>
                                <path d="M61.699992,12.6999989 L54.4999924,12.6999989" id="Line-3" stroke-linecap="round"></path>
                            </g>
                            <g id="Livre" transform="translate(117.200013, 48.700020) rotate(-270.000000) translate(-117.200013, -48.700020) translate(68.700013, 31.700020)">
                                <path d="M11.5862058,2.49999955 L48.4999928,2.49999955 L48.4999928,34.8999976 L-1.11967576,34.8999976 L11.5862058,2.49999955 Z" id="Rectangle-14" fill="#FFFFFF"></path>
                                <path d="M60.7862029,2.49999955 L97.6999898,2.49999955 L97.6999898,34.8999976 L48.0803213,34.8999976 L60.7862029,2.49999955 Z" id="Rectangle-14" fill="#ECECEC" transform="translate(73.099991, 18.699999) scale(-1, 1) translate(-73.099991, -18.699999) "></path>
                                <path d="M11.5862058,-0.500000268 L48.4999928,-0.500000268 L48.4999928,31.8999978 L-1.11967576,31.8999978 L11.5862058,-0.500000268 Z" id="Rectangle-14" fill="#FFFFFF"></path>
                                <path d="M60.7862029,-0.500000268 L97.6999898,-0.500000268 L97.6999898,31.8999978 L48.0803213,31.8999978 L60.7862029,-0.500000268 Z" id="Rectangle-14" fill="#ECECEC" transform="translate(73.099991, 15.699999) scale(-1, 1) translate(-73.099991, -15.699999) "></path>
                                <path d="M41.8999932,24.6999982 L9.49999508,24.6999982" id="Line-3" stroke-linecap="round"></path>
                                <path d="M41.8999932,18.6999986 L11.8999949,18.6999986" id="Line-3" stroke-linecap="round"></path>
                                <path d="M41.8999932,12.6999989 L29.2999939,12.6999989" id="Line-3" stroke-linecap="round"></path>
                                <path d="M87.4999904,24.6999982 L55.0999924,24.6999982" id="Line-3" stroke-linecap="round"></path>
                                <path d="M72.4999913,18.6999986 L54.4999924,18.6999986" id="Line-3" stroke-linecap="round"></path>
                                <path d="M61.699992,12.6999989 L54.4999924,12.6999989" id="Line-3" stroke-linecap="round"></path>
                            </g>
                            <g id="Livre" transform="translate(137.200013, 48.700020) rotate(-270.000000) translate(-137.200013, -48.700020) translate(88.700013, 31.700020)">
                                <path d="M11.5862058,2.49999955 L48.4999928,2.49999955 L48.4999928,34.8999976 L-1.11967576,34.8999976 L11.5862058,2.49999955 Z" id="Rectangle-14" fill="#FFFFFF"></path>
                                <path d="M60.7862029,2.49999955 L97.6999898,2.49999955 L97.6999898,34.8999976 L48.0803213,34.8999976 L60.7862029,2.49999955 Z" id="Rectangle-14" fill="#ECECEC" transform="translate(73.099991, 18.699999) scale(-1, 1) translate(-73.099991, -18.699999) "></path>
                                <path d="M11.5862058,-0.500000268 L48.4999928,-0.500000268 L48.4999928,31.8999978 L-1.11967576,31.8999978 L11.5862058,-0.500000268 Z" id="Rectangle-14" fill="#FFFFFF"></path>
                                <path d="M60.7862029,-0.500000268 L97.6999898,-0.500000268 L97.6999898,31.8999978 L48.0803213,31.8999978 L60.7862029,-0.500000268 Z" id="Rectangle-14" fill="#ECECEC" transform="translate(73.099991, 15.699999) scale(-1, 1) translate(-73.099991, -15.699999) "></path>
                                <path d="M41.8999932,24.6999982 L9.49999508,24.6999982" id="Line-3" stroke-linecap="round"></path>
                                <path d="M41.8999932,18.6999986 L11.8999949,18.6999986" id="Line-3" stroke-linecap="round"></path>
                                <path d="M41.8999932,12.6999989 L29.2999939,12.6999989" id="Line-3" stroke-linecap="round"></path>
                                <path d="M87.4999904,24.6999982 L55.0999924,24.6999982" id="Line-3" stroke-linecap="round"></path>
                                <path d="M72.4999913,18.6999986 L54.4999924,18.6999986" id="Line-3" stroke-linecap="round"></path>
                                <path d="M61.699992,12.6999989 L54.4999924,12.6999989" id="Line-3" stroke-linecap="round"></path>
                            </g>
                            <g id="Livre" transform="translate(152.500000, 48.700020) rotate(-270.000000) translate(-152.500000, -48.700020) translate(104.000000, 36.200020)">
                                <path d="M11.6725867,2.47999842 L48.4999928,2.47999842 L48.4999928,25.6999855 L-1.33581643,25.6999855 L11.6725867,2.47999842 Z" id="Rectangle-14" fill="#FFFFFF"></path>
                                <path d="M60.8725838,2.47999842 L97.6999898,2.47999842 L97.6999898,25.6999855 L47.8641806,25.6999855 L60.8725838,2.47999842 Z" id="Rectangle-14" fill="#ECECEC" transform="translate(73.099991, 14.089992) scale(-1, 1) translate(-73.099991, -14.089992) "></path>
                                <path d="M11.6725867,-0.620000322 L48.4999928,-0.620000322 L48.4999928,22.5999868 L-1.33581643,22.5999868 L11.6725867,-0.620000322 Z" id="Rectangle-14" fill="#FFFFFF"></path>
                                <path d="M60.8725838,-0.620000322 L97.6999898,-0.620000322 L97.6999898,22.5999868 L47.8641806,22.5999868 L60.8725838,-0.620000322 Z" id="Rectangle-14" fill="#ECECEC" transform="translate(73.099991, 10.989993) scale(-1, 1) translate(-73.099991, -10.989993) "></path>
                                <path d="M41.8999932,17.2899895 L9.49999508,17.2899895" id="Line-3" stroke-linecap="round"></path>
                                <path d="M41.8999932,13.089992 L11.8999949,13.089992" id="Line-3" stroke-linecap="round"></path>
                                <path d="M41.8999932,8.88999448 L29.2999939,8.88999448" id="Line-3" stroke-linecap="round"></path>
                                <path d="M87.4999904,17.2899895 L55.0999924,17.2899895" id="Line-3" stroke-linecap="round"></path>
                                <path d="M72.4999913,13.089992 L54.4999924,13.089992" id="Line-3" stroke-linecap="round"></path>
                                <path d="M61.699992,8.88999448 L54.4999924,8.88999448" id="Line-3" stroke-linecap="round"></path>
                            </g>
                            <g id="Livre" transform="translate(169.500000, 48.700020) rotate(-270.000000) translate(-169.500000, -48.700020) translate(121.000000, 39.200020)">
                                <path d="M11.7599278,2.53359888 L48.4999928,2.53359888 L48.4999928,19.7559896 L-1.64063239,19.7559896 L11.7599278,2.53359888 Z" id="Rectangle-14" fill="#FFFFFF"></path>
                                <path d="M60.9599249,2.53359888 L97.6999898,2.53359888 L97.6999898,19.7559896 L47.5593647,19.7559896 L60.9599249,2.53359888 Z" id="Rectangle-14" fill="#ECECEC" transform="translate(73.099991, 11.144794) scale(-1, 1) translate(-73.099991, -11.144794) "></path>
                                <path d="M11.7599278,-0.698400217 L48.4999928,-0.698400217 L48.4999928,16.5239905 L-1.64063239,16.5239905 L11.7599278,-0.698400217 Z" id="Rectangle-14" fill="#FFFFFF"></path>
                                <path d="M60.9599249,-0.698400217 L97.6999898,-0.698400217 L97.6999898,16.5239905 L47.5593647,16.5239905 L60.9599249,-0.698400217 Z" id="Rectangle-14" fill="#ECECEC" transform="translate(73.099991, 7.912795) scale(-1, 1) translate(-73.099991, -7.912795) "></path>
                                <path d="M41.8999932,12.4487924 L9.49999508,12.4487924" id="Line-3" stroke-linecap="round"></path>
                                <path d="M41.8999932,9.42479422 L11.8999949,9.42479422" id="Line-3" stroke-linecap="round"></path>
                                <path d="M41.8999932,6.40079603 L29.2999939,6.40079603" id="Line-3" stroke-linecap="round"></path>
                                <path d="M87.4999904,12.4487924 L55.0999924,12.4487924" id="Line-3" stroke-linecap="round"></path>
                                <path d="M72.4999913,9.42479422 L54.4999924,9.42479422" id="Line-3" stroke-linecap="round"></path>
                                <path d="M61.699992,6.40079603 L54.4999924,6.40079603" id="Line-3" stroke-linecap="round"></path>
                            </g>
                            <g id="Livre" transform="translate(188.000000, 48.700020) rotate(-270.000000) translate(-188.000000, -48.700020) translate(139.500000, 40.700020)">
                                <path d="M11.8233682,2.81073597 L48.4999928,2.81073597 L48.4999928,16.7863075 L-1.95067485,16.7863075 L11.8233682,2.81073597 Z" id="Rectangle-14" fill="#FFFFFF"></path>
                                <path d="M61.0233653,2.81073597 L97.6999898,2.81073597 L97.6999898,16.7863075 L47.2493222,16.7863075 L61.0233653,2.81073597 Z" id="Rectangle-14" fill="#ECECEC" transform="translate(73.099991, 9.798522) scale(-1, 1) translate(-73.099991, -9.798522) "></path>
                                <path d="M11.8233682,-0.740842265 L48.4999928,-0.740842265 L48.4999928,13.2347293 L-1.95067485,13.2347293 L11.8233682,-0.740842265 Z" id="Rectangle-14" fill="#FFFFFF"></path>
                                <path d="M61.0233653,-0.740842265 L97.6999898,-0.740842265 L97.6999898,13.2347293 L47.2493222,13.2347293 L61.0233653,-0.740842265 Z" id="Rectangle-14" fill="#ECECEC" transform="translate(73.099991, 6.246944) scale(-1, 1) translate(-73.099991, -6.246944) "></path>
                                <path d="M41.8999932,9.82799401 L9.49999508,9.82799401" id="Line-3" stroke-linecap="round"></path>
                                <path d="M41.8999932,7.44062701 L11.8999949,7.44062701" id="Line-3" stroke-linecap="round"></path>
                                <path d="M41.8999932,5.05326002 L29.2999939,5.05326002" id="Line-3" stroke-linecap="round"></path>
                                <path d="M87.4999904,9.82799401 L55.0999924,9.82799401" id="Line-3" stroke-linecap="round"></path>
                                <path d="M72.4999913,7.44062701 L54.4999924,7.44062701" id="Line-3" stroke-linecap="round"></path>
                                <path d="M61.699992,5.05326002 L54.4999924,5.05326002" id="Line-3" stroke-linecap="round"></path>
                            </g>
                        </g>
                        <g id="Livres" transform="translate(381.000000, 49.000000) scale(-1, 1) translate(-381.000000, -49.000000) translate(283.000000, 0.000000)">
                            <g id="Livre" transform="translate(17.200013, 48.700020) rotate(-270.000000) translate(-17.200013, -48.700020) translate(-31.299987, 31.700020)">
                                <path d="M11.5862058,2.49999955 L48.4999928,2.49999955 L48.4999928,34.8999976 L-1.11967576,34.8999976 L11.5862058,2.49999955 Z" id="Rectangle-14" fill="#FFFFFF"></path>
                                <path d="M60.7862029,2.49999955 L97.6999898,2.49999955 L97.6999898,34.8999976 L48.0803213,34.8999976 L60.7862029,2.49999955 Z" id="Rectangle-14" fill="#ECECEC" transform="translate(73.099991, 18.699999) scale(-1, 1) translate(-73.099991, -18.699999) "></path>
                                <path d="M11.5862058,-0.500000268 L48.4999928,-0.500000268 L48.4999928,31.8999978 L-1.11967576,31.8999978 L11.5862058,-0.500000268 Z" id="Rectangle-14" fill="#FFFFFF"></path>
                                <path d="M60.7862029,-0.500000268 L97.6999898,-0.500000268 L97.6999898,31.8999978 L48.0803213,31.8999978 L60.7862029,-0.500000268 Z" id="Rectangle-14" fill="#ECECEC" transform="translate(73.099991, 15.699999) scale(-1, 1) translate(-73.099991, -15.699999) "></path>
                                <path d="M41.8999932,24.6999982 L9.49999508,24.6999982" id="Line-3" stroke-linecap="round"></path>
                                <path d="M41.8999932,18.6999986 L11.8999949,18.6999986" id="Line-3" stroke-linecap="round"></path>
                                <path d="M41.8999932,12.6999989 L29.2999939,12.6999989" id="Line-3" stroke-linecap="round"></path>
                                <path d="M87.4999904,24.6999982 L55.0999924,24.6999982" id="Line-3" stroke-linecap="round"></path>
                                <path d="M72.4999913,18.6999986 L54.4999924,18.6999986" id="Line-3" stroke-linecap="round"></path>
                                <path d="M61.699992,12.6999989 L54.4999924,12.6999989" id="Line-3" stroke-linecap="round"></path>
                            </g>
                            <g id="Livre" transform="translate(37.200013, 48.700020) rotate(-270.000000) translate(-37.200013, -48.700020) translate(-11.299987, 31.700020)">
                                <path d="M11.5862058,2.49999955 L48.4999928,2.49999955 L48.4999928,34.8999976 L-1.11967576,34.8999976 L11.5862058,2.49999955 Z" id="Rectangle-14" fill="#FFFFFF"></path>
                                <path d="M60.7862029,2.49999955 L97.6999898,2.49999955 L97.6999898,34.8999976 L48.0803213,34.8999976 L60.7862029,2.49999955 Z" id="Rectangle-14" fill="#ECECEC" transform="translate(73.099991, 18.699999) scale(-1, 1) translate(-73.099991, -18.699999) "></path>
                                <path d="M11.5862058,-0.500000268 L48.4999928,-0.500000268 L48.4999928,31.8999978 L-1.11967576,31.8999978 L11.5862058,-0.500000268 Z" id="Rectangle-14" fill="#FFFFFF"></path>
                                <path d="M60.7862029,-0.500000268 L97.6999898,-0.500000268 L97.6999898,31.8999978 L48.0803213,31.8999978 L60.7862029,-0.500000268 Z" id="Rectangle-14" fill="#ECECEC" transform="translate(73.099991, 15.699999) scale(-1, 1) translate(-73.099991, -15.699999) "></path>
                                <path d="M41.8999932,24.6999982 L9.49999508,24.6999982" id="Line-3" stroke-linecap="round"></path>
                                <path d="M41.8999932,18.6999986 L11.8999949,18.6999986" id="Line-3" stroke-linecap="round"></path>
                                <path d="M41.8999932,12.6999989 L29.2999939,12.6999989" id="Line-3" stroke-linecap="round"></path>
                                <path d="M87.4999904,24.6999982 L55.0999924,24.6999982" id="Line-3" stroke-linecap="round"></path>
                                <path d="M72.4999913,18.6999986 L54.4999924,18.6999986" id="Line-3" stroke-linecap="round"></path>
                                <path d="M61.699992,12.6999989 L54.4999924,12.6999989" id="Line-3" stroke-linecap="round"></path>
                            </g>
                            <g id="Livre" transform="translate(57.200013, 48.700020) rotate(-270.000000) translate(-57.200013, -48.700020) translate(8.700013, 31.700020)">
                                <path d="M11.5862058,2.49999955 L48.4999928,2.49999955 L48.4999928,34.8999976 L-1.11967576,34.8999976 L11.5862058,2.49999955 Z" id="Rectangle-14" fill="#FFFFFF"></path>
                                <path d="M60.7862029,2.49999955 L97.6999898,2.49999955 L97.6999898,34.8999976 L48.0803213,34.8999976 L60.7862029,2.49999955 Z" id="Rectangle-14" fill="#ECECEC" transform="translate(73.099991, 18.699999) scale(-1, 1) translate(-73.099991, -18.699999) "></path>
                                <path d="M11.5862058,-0.500000268 L48.4999928,-0.500000268 L48.4999928,31.8999978 L-1.11967576,31.8999978 L11.5862058,-0.500000268 Z" id="Rectangle-14" fill="#FFFFFF"></path>
                                <path d="M60.7862029,-0.500000268 L97.6999898,-0.500000268 L97.6999898,31.8999978 L48.0803213,31.8999978 L60.7862029,-0.500000268 Z" id="Rectangle-14" fill="#ECECEC" transform="translate(73.099991, 15.699999) scale(-1, 1) translate(-73.099991, -15.699999) "></path>
                                <path d="M41.8999932,24.6999982 L9.49999508,24.6999982" id="Line-3" stroke-linecap="round"></path>
                                <path d="M41.8999932,18.6999986 L11.8999949,18.6999986" id="Line-3" stroke-linecap="round"></path>
                                <path d="M41.8999932,12.6999989 L29.2999939,12.6999989" id="Line-3" stroke-linecap="round"></path>
                                <path d="M87.4999904,24.6999982 L55.0999924,24.6999982" id="Line-3" stroke-linecap="round"></path>
                                <path d="M72.4999913,18.6999986 L54.4999924,18.6999986" id="Line-3" stroke-linecap="round"></path>
                                <path d="M61.699992,12.6999989 L54.4999924,12.6999989" id="Line-3" stroke-linecap="round"></path>
                            </g>
                            <g id="Livre" transform="translate(77.200013, 48.700020) rotate(-270.000000) translate(-77.200013, -48.700020) translate(28.700013, 31.700020)">
                                <path d="M11.5862058,2.49999955 L48.4999928,2.49999955 L48.4999928,34.8999976 L-1.11967576,34.8999976 L11.5862058,2.49999955 Z" id="Rectangle-14" fill="#FFFFFF"></path>
                                <path d="M60.7862029,2.49999955 L97.6999898,2.49999955 L97.6999898,34.8999976 L48.0803213,34.8999976 L60.7862029,2.49999955 Z" id="Rectangle-14" fill="#ECECEC" transform="translate(73.099991, 18.699999) scale(-1, 1) translate(-73.099991, -18.699999) "></path>
                                <path d="M11.5862058,-0.500000268 L48.4999928,-0.500000268 L48.4999928,31.8999978 L-1.11967576,31.8999978 L11.5862058,-0.500000268 Z" id="Rectangle-14" fill="#FFFFFF"></path>
                                <path d="M60.7862029,-0.500000268 L97.6999898,-0.500000268 L97.6999898,31.8999978 L48.0803213,31.8999978 L60.7862029,-0.500000268 Z" id="Rectangle-14" fill="#ECECEC" transform="translate(73.099991, 15.699999) scale(-1, 1) translate(-73.099991, -15.699999) "></path>
                                <path d="M41.8999932,24.6999982 L9.49999508,24.6999982" id="Line-3" stroke-linecap="round"></path>
                                <path d="M41.8999932,18.6999986 L11.8999949,18.6999986" id="Line-3" stroke-linecap="round"></path>
                                <path d="M41.8999932,12.6999989 L29.2999939,12.6999989" id="Line-3" stroke-linecap="round"></path>
                                <path d="M87.4999904,24.6999982 L55.0999924,24.6999982" id="Line-3" stroke-linecap="round"></path>
                                <path d="M72.4999913,18.6999986 L54.4999924,18.6999986" id="Line-3" stroke-linecap="round"></path>
                                <path d="M61.699992,12.6999989 L54.4999924,12.6999989" id="Line-3" stroke-linecap="round"></path>
                            </g>
                            <g id="Livre" transform="translate(97.200013, 48.700020) rotate(-270.000000) translate(-97.200013, -48.700020) translate(48.700013, 31.700020)">
                                <path d="M11.5862058,2.49999955 L48.4999928,2.49999955 L48.4999928,34.8999976 L-1.11967576,34.8999976 L11.5862058,2.49999955 Z" id="Rectangle-14" fill="#FFFFFF"></path>
                                <path d="M60.7862029,2.49999955 L97.6999898,2.49999955 L97.6999898,34.8999976 L48.0803213,34.8999976 L60.7862029,2.49999955 Z" id="Rectangle-14" fill="#ECECEC" transform="translate(73.099991, 18.699999) scale(-1, 1) translate(-73.099991, -18.699999) "></path>
                                <path d="M11.5862058,-0.500000268 L48.4999928,-0.500000268 L48.4999928,31.8999978 L-1.11967576,31.8999978 L11.5862058,-0.500000268 Z" id="Rectangle-14" fill="#FFFFFF"></path>
                                <path d="M60.7862029,-0.500000268 L97.6999898,-0.500000268 L97.6999898,31.8999978 L48.0803213,31.8999978 L60.7862029,-0.500000268 Z" id="Rectangle-14" fill="#ECECEC" transform="translate(73.099991, 15.699999) scale(-1, 1) translate(-73.099991, -15.699999) "></path>
                                <path d="M41.8999932,24.6999982 L9.49999508,24.6999982" id="Line-3" stroke-linecap="round"></path>
                                <path d="M41.8999932,18.6999986 L11.8999949,18.6999986" id="Line-3" stroke-linecap="round"></path>
                                <path d="M41.8999932,12.6999989 L29.2999939,12.6999989" id="Line-3" stroke-linecap="round"></path>
                                <path d="M87.4999904,24.6999982 L55.0999924,24.6999982" id="Line-3" stroke-linecap="round"></path>
                                <path d="M72.4999913,18.6999986 L54.4999924,18.6999986" id="Line-3" stroke-linecap="round"></path>
                                <path d="M61.699992,12.6999989 L54.4999924,12.6999989" id="Line-3" stroke-linecap="round"></path>
                            </g>
                            <g id="Livre" transform="translate(117.200013, 48.700020) rotate(-270.000000) translate(-117.200013, -48.700020) translate(68.700013, 31.700020)">
                                <path d="M11.5862058,2.49999955 L48.4999928,2.49999955 L48.4999928,34.8999976 L-1.11967576,34.8999976 L11.5862058,2.49999955 Z" id="Rectangle-14" fill="#FFFFFF"></path>
                                <path d="M60.7862029,2.49999955 L97.6999898,2.49999955 L97.6999898,34.8999976 L48.0803213,34.8999976 L60.7862029,2.49999955 Z" id="Rectangle-14" fill="#ECECEC" transform="translate(73.099991, 18.699999) scale(-1, 1) translate(-73.099991, -18.699999) "></path>
                                <path d="M11.5862058,-0.500000268 L48.4999928,-0.500000268 L48.4999928,31.8999978 L-1.11967576,31.8999978 L11.5862058,-0.500000268 Z" id="Rectangle-14" fill="#FFFFFF"></path>
                                <path d="M60.7862029,-0.500000268 L97.6999898,-0.500000268 L97.6999898,31.8999978 L48.0803213,31.8999978 L60.7862029,-0.500000268 Z" id="Rectangle-14" fill="#ECECEC" transform="translate(73.099991, 15.699999) scale(-1, 1) translate(-73.099991, -15.699999) "></path>
                                <path d="M41.8999932,24.6999982 L9.49999508,24.6999982" id="Line-3" stroke-linecap="round"></path>
                                <path d="M41.8999932,18.6999986 L11.8999949,18.6999986" id="Line-3" stroke-linecap="round"></path>
                                <path d="M41.8999932,12.6999989 L29.2999939,12.6999989" id="Line-3" stroke-linecap="round"></path>
                                <path d="M87.4999904,24.6999982 L55.0999924,24.6999982" id="Line-3" stroke-linecap="round"></path>
                                <path d="M72.4999913,18.6999986 L54.4999924,18.6999986" id="Line-3" stroke-linecap="round"></path>
                                <path d="M61.699992,12.6999989 L54.4999924,12.6999989" id="Line-3" stroke-linecap="round"></path>
                            </g>
                            <g id="Livre" transform="translate(137.200013, 48.700020) rotate(-270.000000) translate(-137.200013, -48.700020) translate(88.700013, 31.700020)">
                                <path d="M11.5862058,2.49999955 L48.4999928,2.49999955 L48.4999928,34.8999976 L-1.11967576,34.8999976 L11.5862058,2.49999955 Z" id="Rectangle-14" fill="#FFFFFF"></path>
                                <path d="M60.7862029,2.49999955 L97.6999898,2.49999955 L97.6999898,34.8999976 L48.0803213,34.8999976 L60.7862029,2.49999955 Z" id="Rectangle-14" fill="#ECECEC" transform="translate(73.099991, 18.699999) scale(-1, 1) translate(-73.099991, -18.699999) "></path>
                                <path d="M11.5862058,-0.500000268 L48.4999928,-0.500000268 L48.4999928,31.8999978 L-1.11967576,31.8999978 L11.5862058,-0.500000268 Z" id="Rectangle-14" fill="#FFFFFF"></path>
                                <path d="M60.7862029,-0.500000268 L97.6999898,-0.500000268 L97.6999898,31.8999978 L48.0803213,31.8999978 L60.7862029,-0.500000268 Z" id="Rectangle-14" fill="#ECECEC" transform="translate(73.099991, 15.699999) scale(-1, 1) translate(-73.099991, -15.699999) "></path>
                                <path d="M41.8999932,24.6999982 L9.49999508,24.6999982" id="Line-3" stroke-linecap="round"></path>
                                <path d="M41.8999932,18.6999986 L11.8999949,18.6999986" id="Line-3" stroke-linecap="round"></path>
                                <path d="M41.8999932,12.6999989 L29.2999939,12.6999989" id="Line-3" stroke-linecap="round"></path>
                                <path d="M87.4999904,24.6999982 L55.0999924,24.6999982" id="Line-3" stroke-linecap="round"></path>
                                <path d="M72.4999913,18.6999986 L54.4999924,18.6999986" id="Line-3" stroke-linecap="round"></path>
                                <path d="M61.699992,12.6999989 L54.4999924,12.6999989" id="Line-3" stroke-linecap="round"></path>
                            </g>
                            <g id="Livre" transform="translate(152.500000, 48.700020) rotate(-270.000000) translate(-152.500000, -48.700020) translate(104.000000, 36.200020)">
                                <path d="M11.6725867,2.47999842 L48.4999928,2.47999842 L48.4999928,25.6999855 L-1.33581643,25.6999855 L11.6725867,2.47999842 Z" id="Rectangle-14" fill="#FFFFFF"></path>
                                <path d="M60.8725838,2.47999842 L97.6999898,2.47999842 L97.6999898,25.6999855 L47.8641806,25.6999855 L60.8725838,2.47999842 Z" id="Rectangle-14" fill="#ECECEC" transform="translate(73.099991, 14.089992) scale(-1, 1) translate(-73.099991, -14.089992) "></path>
                                <path d="M11.6725867,-0.620000322 L48.4999928,-0.620000322 L48.4999928,22.5999868 L-1.33581643,22.5999868 L11.6725867,-0.620000322 Z" id="Rectangle-14" fill="#FFFFFF"></path>
                                <path d="M60.8725838,-0.620000322 L97.6999898,-0.620000322 L97.6999898,22.5999868 L47.8641806,22.5999868 L60.8725838,-0.620000322 Z" id="Rectangle-14" fill="#ECECEC" transform="translate(73.099991, 10.989993) scale(-1, 1) translate(-73.099991, -10.989993) "></path>
                                <path d="M41.8999932,17.2899895 L9.49999508,17.2899895" id="Line-3" stroke-linecap="round"></path>
                                <path d="M41.8999932,13.089992 L11.8999949,13.089992" id="Line-3" stroke-linecap="round"></path>
                                <path d="M41.8999932,8.88999448 L29.2999939,8.88999448" id="Line-3" stroke-linecap="round"></path>
                                <path d="M87.4999904,17.2899895 L55.0999924,17.2899895" id="Line-3" stroke-linecap="round"></path>
                                <path d="M72.4999913,13.089992 L54.4999924,13.089992" id="Line-3" stroke-linecap="round"></path>
                                <path d="M61.699992,8.88999448 L54.4999924,8.88999448" id="Line-3" stroke-linecap="round"></path>
                            </g>
                            <g id="Livre" transform="translate(169.500000, 48.700020) rotate(-270.000000) translate(-169.500000, -48.700020) translate(121.000000, 39.200020)">
                                <path d="M11.7599278,2.53359888 L48.4999928,2.53359888 L48.4999928,19.7559896 L-1.64063239,19.7559896 L11.7599278,2.53359888 Z" id="Rectangle-14" fill="#FFFFFF"></path>
                                <path d="M60.9599249,2.53359888 L97.6999898,2.53359888 L97.6999898,19.7559896 L47.5593647,19.7559896 L60.9599249,2.53359888 Z" id="Rectangle-14" fill="#ECECEC" transform="translate(73.099991, 11.144794) scale(-1, 1) translate(-73.099991, -11.144794) "></path>
                                <path d="M11.7599278,-0.698400217 L48.4999928,-0.698400217 L48.4999928,16.5239905 L-1.64063239,16.5239905 L11.7599278,-0.698400217 Z" id="Rectangle-14" fill="#FFFFFF"></path>
                                <path d="M60.9599249,-0.698400217 L97.6999898,-0.698400217 L97.6999898,16.5239905 L47.5593647,16.5239905 L60.9599249,-0.698400217 Z" id="Rectangle-14" fill="#ECECEC" transform="translate(73.099991, 7.912795) scale(-1, 1) translate(-73.099991, -7.912795) "></path>
                                <path d="M41.8999932,12.4487924 L9.49999508,12.4487924" id="Line-3" stroke-linecap="round"></path>
                                <path d="M41.8999932,9.42479422 L11.8999949,9.42479422" id="Line-3" stroke-linecap="round"></path>
                                <path d="M41.8999932,6.40079603 L29.2999939,6.40079603" id="Line-3" stroke-linecap="round"></path>
                                <path d="M87.4999904,12.4487924 L55.0999924,12.4487924" id="Line-3" stroke-linecap="round"></path>
                                <path d="M72.4999913,9.42479422 L54.4999924,9.42479422" id="Line-3" stroke-linecap="round"></path>
                                <path d="M61.699992,6.40079603 L54.4999924,6.40079603" id="Line-3" stroke-linecap="round"></path>
                            </g>
                            <g id="Livre" transform="translate(188.000000, 48.700020) rotate(-270.000000) translate(-188.000000, -48.700020) translate(139.500000, 40.700020)">
                                <path d="M11.8233682,2.81073597 L48.4999928,2.81073597 L48.4999928,16.7863075 L-1.95067485,16.7863075 L11.8233682,2.81073597 Z" id="Rectangle-14" fill="#FFFFFF"></path>
                                <path d="M61.0233653,2.81073597 L97.6999898,2.81073597 L97.6999898,16.7863075 L47.2493222,16.7863075 L61.0233653,2.81073597 Z" id="Rectangle-14" fill="#ECECEC" transform="translate(73.099991, 9.798522) scale(-1, 1) translate(-73.099991, -9.798522) "></path>
                                <path d="M11.8233682,-0.740842265 L48.4999928,-0.740842265 L48.4999928,13.2347293 L-1.95067485,13.2347293 L11.8233682,-0.740842265 Z" id="Rectangle-14" fill="#FFFFFF"></path>
                                <path d="M61.0233653,-0.740842265 L97.6999898,-0.740842265 L97.6999898,13.2347293 L47.2493222,13.2347293 L61.0233653,-0.740842265 Z" id="Rectangle-14" fill="#ECECEC" transform="translate(73.099991, 6.246944) scale(-1, 1) translate(-73.099991, -6.246944) "></path>
                                <path d="M41.8999932,9.82799401 L9.49999508,9.82799401" id="Line-3" stroke-linecap="round"></path>
                                <path d="M41.8999932,7.44062701 L11.8999949,7.44062701" id="Line-3" stroke-linecap="round"></path>
                                <path d="M41.8999932,5.05326002 L29.2999939,5.05326002" id="Line-3" stroke-linecap="round"></path>
                                <path d="M87.4999904,9.82799401 L55.0999924,9.82799401" id="Line-3" stroke-linecap="round"></path>
                                <path d="M72.4999913,7.44062701 L54.4999924,7.44062701" id="Line-3" stroke-linecap="round"></path>
                                <path d="M61.699992,5.05326002 L54.4999924,5.05326002" id="Line-3" stroke-linecap="round"></path>
                            </g>
                        </g>
                    </g>
                    <path d="M175.588261,105 C174.950764,112.003508 171,117.612212 171,120.782901 C171,123.953589 171.778209,126.041877 174.950764,126.041877 C178.123319,126.041877 180.733398,123.794215 180.733398,120.202137 C180.733398,116.610058 175.588261,112.003508 175.588261,105 Z" id="Path-5" fill="#443C77"></path>
                    <path d="M350.588261,126 C349.950764,133.003508 346,138.612212 346,141.782901 C346,144.953589 346.778209,147.041877 349.950764,147.041877 C353.123319,147.041877 355.733398,144.794215 355.733398,141.202137 C355.733398,137.610058 350.588261,133.003508 350.588261,126 Z" id="Path-5" fill="#443C77"></path>
                    <path d="M248.588261,165 C247.950764,172.003508 244,177.612212 244,180.782901 C244,183.953589 244.778209,186.041877 247.950764,186.041877 C251.123319,186.041877 253.733398,183.794215 253.733398,180.202137 C253.733398,176.610058 248.588261,172.003508 248.588261,165 Z" id="Path-5" fill="#443C77"></path>
                </g>
            </g>
        </g>
    </g>
</svg>