<?xml version="1.0" encoding="UTF-8"?>
<svg width="1333px" height="386px" viewBox="0 0 1333 386" version="1.1" xmlns="http://www.w3.org/2000/svg" xmlns:xlink="http://www.w3.org/1999/xlink">
    <title>Reva-logo</title>
    <defs>
        <linearGradient x1="25.3734698%" y1="87.4782431%" x2="60.0459335%" y2="0%" id="linearGradient-1">
            <stop stop-color="#000091" offset="0%"></stop>
            <stop stop-color="#E10110" offset="100%"></stop>
        </linearGradient>
    </defs>
    <g id="Brand" stroke="none" stroke-width="1" fill="none" fill-rule="evenodd">
        <g id="Base---print-+-slogan" transform="translate(-503.000000, -347.000000)">
            <g id="Reva-logo" transform="translate(503.874867, 347.891475)">
                <path d="M210.247325,348.483403 C210.328387,348.690904 210.409605,348.898354 210.490608,349.105674 L210.732604,349.727159 C214.582353,359.662041 217.082202,369.108525 177.16685,369.108525 L22.0554764,369.108525 C6.03393099,369.108525 0,360.437871 0,348.483403 L0,286.360814 C1.13954367,272.226069 7.35164441,263.878697 18.6363022,261.3187 C35.5632889,257.478703 95.2751572,236.976689 127.764018,214.765569 C160.252879,192.554448 206.194255,338.108373 210.247325,348.483403 Z M277.708598,1.13686838e-13 C298.2343,1.13686838e-13 304.009958,22.0920726 304.123418,34.3158085 L304.125133,34.6831712 L304.125133,335.303655 C304.125133,359.42282 292.874441,368.918192 285.343729,369.105687 L285.116679,369.108525 L258.932811,369.108525 C237.7765,369.108525 231.763103,351.069066 228.058696,331.855138 C224.354289,312.641209 191.196147,237.100377 178.075908,217.174992 C164.955669,197.249608 163.915446,193.008183 173.416911,184.608525 C182.918376,176.208867 202.697643,152.198155 219.32368,117.983769 C235.949718,83.7693833 245.387218,34.8903016 248.568156,19.5021867 C251.749095,4.11407173 256.975566,1.13686838e-13 277.708598,1.13686838e-13 Z M116.890089,0.00112518887 L118.213736,0.00197255333 C118.680761,0.00229775672 119.165735,0.0026607385 119.667729,0.00305966757 L120.694137,0.00390491288 C129.606831,0.0114876773 143.259821,0.0291064172 157.09736,0.047764962 L159.497407,0.0510085621 C160.44483,0.0522916722 161.391884,0.0535772173 162.337109,0.0548623139 L163.753393,0.056789262 C163.98915,0.0571102438 164.224748,0.0574311074 164.460163,0.0577518078 L165.870278,0.0596736915 C179.007468,0.0775862652 191.42839,0.0947044352 199.12601,0.103115564 L199.932498,0.103983078 C200.326523,0.104399816 200.706581,0.104790754 201.072058,0.105154677 L201.783386,0.10584614 C201.898639,0.10595526 202.012226,0.106061289 202.124125,0.10616418 L202.77507,0.106743525 C202.880123,0.106833689 202.983441,0.106920625 203.085003,0.107004289 L204.053133,0.107738354 C204.204171,0.107841452 204.349977,0.107934784 204.490442,0.108018131 L205.912578,0.108525161 C206.48841,0.108525161 207.074868,0.105279305 207.668604,0.102844438 L208.264642,0.100830153 L209.166169,0.100794538 C218.118697,0.126516017 228.058696,1.07452606 228.058696,16.1853303 C228.058696,33.163762 203.698589,117.083684 163.788127,161.900075 C123.877666,206.716466 37.2377426,242.208897 18.6814377,242.208897 C2.97723684,242.208897 0.563501166,234.806185 0.192509993,226.604447 L0.170889771,226.062586 L0.170889771,226.062586 L0.15447339,225.518829 C0.149788965,225.337307 0.145852439,225.15554 0.142544406,224.973598 L0.134386378,224.427313 C0.13330115,224.336201 0.132343194,224.245062 0.131497583,224.153906 L0.127452308,223.565646 L0.125633791,222.977419 L0.12513277,149.108525 C0.12513277,139.70342 -1.92081144,118.11588 10.5330002,118.11588 C22.9868118,118.11588 50.0206101,102.763783 69.4768479,82.1940507 C88.9330857,61.624318 97.6736862,38.0816621 97.6736862,25.6784943 L97.6738843,25.3061518 L97.6757221,24.5602364 C97.67869,23.8136705 97.6853863,23.0654928 97.6988527,22.3187591 L97.7146886,21.5726199 C97.9864035,10.5153862 99.9708313,0 113.595561,0 L116.268893,0.000786807417 C116.471334,0.00088990632 116.678436,0.00100277249 116.890089,0.00112518887 Z M37.1189613,0.000903347178 C38.3025579,0.00379987473 39.4929514,0.0133913726 40.6865704,0.0257349154 L42.1202326,0.041615801 C44.7506136,0.0722272842 47.3896903,0.108525161 49.9994309,0.108525161 C73.7243454,0.108525161 79.0364792,12.9006242 79.0364792,29.785901 C79.0364792,46.6711777 63.0833847,63.8143815 55.2120163,72.4404649 C47.3406479,81.0665482 24.0124008,101.005299 12.8221085,101.005299 C5.48835755,101.005299 1.27398427,97.6608154 0.178988629,90.9718474 L0.12513277,90.6228837 L0.12513277,22.6524552 C0.12513277,2.21745155 16.8607382,0.0503385155 35.7021367,0.000893447092 L37.1189613,0.000903347178 Z" id="Pictogramme" fill="url(#linearGradient-1)"></path>
                <g id="Reva" transform="translate(414.480133, 18.608525)" fill="#1F1F1F" fill-rule="nonzero">
                    <path d="M0,199.5 L40.47,199.5 L40.47,118.845 L61.275,118.845 L114.57,199.5 L162.165,199.5 L99.75,111.15 C120.27,101.745 131.955,83.79 131.955,59.565 C131.955,22.515 104.88,0 60.99,0 L0,0 L0,199.5 Z M63.27,33.63 C80.37,33.63 90.345,43.89 90.345,58.995 C90.345,75.24 80.37,85.215 63.27,85.215 L40.47,85.215 L40.47,33.63 L63.27,33.63 Z" id="Shape"></path>
                    <path d="M301.04,176.13 L275.105,155.61 C267.41,165.87 253.73,172.71 238.055,172.71 C215.54,172.71 199.01,161.88 195.59,135.09 L296.195,135.09 C297.335,130.245 298.475,122.835 298.475,114.855 C298.475,77.235 272.255,50.16 232.355,50.16 C185.33,50.16 158.54,85.215 158.54,127.68 C158.54,169.575 187.325,205.2 238.34,205.2 C265.415,205.2 287.645,194.085 301.04,176.13 Z M231.5,79.8 C251.735,79.8 262.28,94.335 262.85,108.87 L196.73,108.87 C200.72,90.06 212.975,79.8 231.5,79.8 Z" id="Shape"></path>
                    <polygon id="Path" points="298.555 55.86 350.71 199.5 398.305 199.5 450.745 55.86 411.7 55.86 374.65 158.46 337.315 55.86"></polygon>
                    <path d="M497.565,203.775 C514.38,203.775 531.48,196.65 540.6,185.535 L540.6,199.5 L576.795,199.5 L576.795,106.59 C576.795,74.955 555.42,50.16 513.81,50.16 C487.59,50.16 466.5,60.99 453.675,78.66 L480.18,98.895 C487.875,88.35 498.705,81.795 512.67,81.795 C529.2,81.795 540.6,91.485 540.6,106.59 L540.6,110.295 L496.71,117.705 C465.93,122.835 449.115,139.08 449.115,160.74 C449.115,187.245 468.78,203.775 497.565,203.775 Z M485.025,159.03 C485.025,150.195 491.295,143.925 506.4,141.36 L540.6,135.66 L540.6,155.895 C533.475,167.295 521.505,174.99 504.975,174.99 C492.72,174.99 485.025,168.72 485.025,159.03 Z" id="Shape"></path>
                </g>
                <g id="L’expérimentation" transform="translate(414.223133, 266.136525)" fill="#1F1F1F" fill-rule="nonzero">
                    <polygon id="Path" points="0 88.972 44.368 88.972 44.368 78.824 11.092 78.824 11.092 6.372 0 6.372"></polygon>
                    <polygon id="Path" points="47.7051228 37.996 59.8591228 6.372 48.4131228 6.372 38.3831228 37.996"></polygon>
                    <path d="M115.470246,79.178 L108.036246,73.396 C104.142246,78.706 97.6522456,82.246 89.9822456,82.246 C77.2382456,82.246 68.1522456,73.632 67.7982456,59.354 L113.464246,59.354 C113.818246,57.702 114.172246,55.46 114.172246,53.1 C114.172246,38.468 103.670246,27.14 87.5042456,27.14 C69.0962456,27.14 57.5322456,41.182 57.5322456,59.236 C57.5322456,76.582 69.9222456,91.332 89.9822456,91.332 C101.074246,91.332 109.924246,86.612 115.470246,79.178 Z M87.2682456,35.636 C97.7702456,35.636 103.788246,42.952 104.142246,51.684 L68.5062456,51.684 C70.6302456,41.418 77.4742456,35.636 87.2682456,35.636 Z" id="Shape"></path>
                    <polygon id="Path" points="128.129368 88.972 145.121368 64.9 162.113368 88.972 173.559368 88.972 151.611368 58.174 172.025368 29.5 160.461368 29.5 145.003368 51.448 129.545368 29.5 118.099368 29.5 138.395368 58.174 116.447368 88.972"></polygon>
                    <path d="M181.262491,118 L191.292491,118 L191.292491,81.892 C196.602491,87.91 203.564491,91.332 212.414491,91.332 C231.058491,91.332 242.976491,76.582 242.976491,59.236 C242.976491,41.89 231.058491,27.14 212.414491,27.14 C203.564491,27.14 196.602491,30.562 191.292491,36.58 L191.292491,29.5 L181.262491,29.5 L181.262491,118 Z M211.234491,36.58 C223.860491,36.58 232.474491,46.61 232.474491,59.236 C232.474491,71.862 223.860491,81.892 211.234491,81.892 C203.092491,81.892 195.894491,77.998 191.292491,70.8 L191.292491,47.672 C195.776491,40.592 202.974491,36.58 211.234491,36.58 Z" id="Shape"></path>
                    <path d="M284.309614,20.06 L298.115614,0.472 L286.787614,0.472 L274.515614,20.06 L284.309614,20.06 Z M306.965614,79.178 L299.531614,73.396 C295.637614,78.706 289.147614,82.246 281.477614,82.246 C268.733614,82.246 259.647614,73.632 259.293614,59.354 L304.959614,59.354 C305.313614,57.702 305.667614,55.46 305.667614,53.1 C305.667614,38.468 295.165614,27.14 278.999614,27.14 C260.591614,27.14 249.027614,41.182 249.027614,59.236 C249.027614,76.582 261.417614,91.332 281.477614,91.332 C292.569614,91.332 301.419614,86.612 306.965614,79.178 Z M278.763614,35.636 C289.265614,35.636 295.283614,42.952 295.637614,51.684 L260.001614,51.684 C262.125614,41.418 268.969614,35.636 278.763614,35.636 Z" id="Shape"></path>
                    <path d="M317.028737,88.972 L327.058737,88.972 L327.058737,48.144 C330.716737,42.126 335.790737,38.114 343.578737,38.114 C345.938737,38.114 347.708737,38.35 349.478737,38.822 L349.478737,29.028 C348.062737,28.556 346.292737,28.32 344.404737,28.32 C336.852737,28.32 331.424737,31.742 327.058737,36.934 L327.058737,29.5 L317.028737,29.5 L317.028737,88.972 Z" id="Path"></path>
                    <path d="M363.31786,14.042 C367.21186,14.042 370.27986,10.856 370.27986,6.962 C370.27986,3.186 367.21186,0 363.31786,0 C359.42386,0 356.23786,3.186 356.23786,6.962 C356.23786,10.856 359.42386,14.042 363.31786,14.042 Z M358.24386,88.972 L368.27386,88.972 L368.27386,29.5 L358.24386,29.5 L358.24386,88.972 Z" id="Shape"></path>
                    <path d="M383.882982,88.972 L393.912982,88.972 L393.912982,47.79 C397.334982,41.654 402.408982,36.58 410.550982,36.58 C419.164982,36.58 424.592982,42.244 424.592982,52.156 L424.592982,88.972 L434.622982,88.972 L434.622982,51.802 C434.622982,50.386 434.504982,49.088 434.386982,47.79 C438.280982,40.828 443.590982,36.58 451.142982,36.58 C459.638982,36.58 465.184982,42.244 465.184982,52.156 L465.184982,88.972 L475.214982,88.972 L475.214982,51.802 C475.214982,35.636 465.892982,27.14 453.148982,27.14 C442.882982,27.14 436.628982,32.096 431.908982,38.586 C428.250982,31.034 421.170982,27.14 412.556982,27.14 C404.296982,27.14 398.396982,30.798 393.912982,35.99 L393.912982,29.5 L383.882982,29.5 L383.882982,88.972 Z" id="Path"></path>
                    <path d="M542.626105,79.178 L535.192105,73.396 C531.298105,78.706 524.808105,82.246 517.138105,82.246 C504.394105,82.246 495.308105,73.632 494.954105,59.354 L540.620105,59.354 C540.974105,57.702 541.328105,55.46 541.328105,53.1 C541.328105,38.468 530.826105,27.14 514.660105,27.14 C496.252105,27.14 484.688105,41.182 484.688105,59.236 C484.688105,76.582 497.078105,91.332 517.138105,91.332 C528.230105,91.332 537.080105,86.612 542.626105,79.178 Z M514.424105,35.636 C524.926105,35.636 530.944105,42.952 531.298105,51.684 L495.662105,51.684 C497.786105,41.418 504.630105,35.636 514.424105,35.636 Z" id="Shape"></path>
                    <path d="M552.689228,88.972 L562.719228,88.972 L562.719228,47.79 C566.495228,41.536 571.923228,36.58 580.537228,36.58 C589.741228,36.58 595.759228,42.716 595.759228,53.336 L595.759228,88.972 L605.789228,88.972 L605.789228,52.982 C605.789228,36.108 595.877228,27.14 582.543228,27.14 C573.693228,27.14 567.557228,30.916 562.719228,36.226 L562.719228,29.5 L552.689228,29.5 L552.689228,88.972 Z" id="Path"></path>
                    <path d="M623.758351,69.03 C623.758351,83.544 631.192351,90.152 644.408351,90.152 C648.656351,90.152 651.842351,89.68 654.674351,88.5 L654.674351,79.532 C652.432351,80.476 649.718351,80.948 645.824351,80.948 C638.626351,80.948 633.906351,78.352 633.906351,69.03 L633.906351,38.586 L654.556351,38.586 L654.556351,29.5 L633.906351,29.5 L633.906351,14.632 L623.758351,14.632 L623.758351,29.5 L612.548351,29.5 L612.548351,38.586 L623.758351,38.586 L623.758351,69.03 Z" id="Path"></path>
                    <path d="M680.431474,90.624 C688.101474,90.624 695.889474,87.202 700.373474,81.42 L700.373474,88.972 L710.403474,88.972 L710.403474,49.088 C710.403474,35.99 701.435474,27.14 686.331474,27.14 C675.947474,27.14 667.569474,31.506 662.377474,38.586 L669.929474,44.368 C673.587474,39.294 679.133474,36.108 685.977474,36.108 C694.473474,36.108 700.373474,40.828 700.373474,49.088 L700.373474,53.218 L680.313474,56.522 C667.687474,58.646 660.843474,65.018 660.843474,73.986 C660.843474,84.134 668.749474,90.624 680.431474,90.624 Z M670.991474,73.632 C670.991474,68.558 674.649474,64.9 682.791474,63.484 L700.373474,60.534 L700.373474,72.216 C696.479474,78.588 689.989474,82.364 682.083474,82.364 C675.121474,82.364 670.991474,78.706 670.991474,73.632 Z" id="Shape"></path>
                    <path d="M728.372596,69.03 C728.372596,83.544 735.806596,90.152 749.022596,90.152 C753.270596,90.152 756.456596,89.68 759.288596,88.5 L759.288596,79.532 C757.046596,80.476 754.332596,80.948 750.438596,80.948 C743.240596,80.948 738.520596,78.352 738.520596,69.03 L738.520596,38.586 L759.170596,38.586 L759.170596,29.5 L738.520596,29.5 L738.520596,14.632 L728.372596,14.632 L728.372596,29.5 L717.162596,29.5 L717.162596,38.586 L728.372596,38.586 L728.372596,69.03 Z" id="Path"></path>
                    <path d="M773.953719,14.042 C777.847719,14.042 780.915719,10.856 780.915719,6.962 C780.915719,3.186 777.847719,0 773.953719,0 C770.059719,0 766.873719,3.186 766.873719,6.962 C766.873719,10.856 770.059719,14.042 773.953719,14.042 Z M768.879719,88.972 L778.909719,88.972 L778.909719,29.5 L768.879719,29.5 L768.879719,88.972 Z" id="Shape"></path>
                    <path d="M821.658842,27.14 C802.424842,27.14 789.444842,41.89 789.444842,59.236 C789.444842,76.582 802.424842,91.332 821.658842,91.332 C840.774842,91.332 853.872842,76.582 853.872842,59.236 C853.872842,41.89 840.774842,27.14 821.658842,27.14 Z M821.776842,81.892 C809.032842,81.892 799.946842,71.626 799.946842,59.236 C799.946842,46.846 809.032842,36.58 821.776842,36.58 C834.166842,36.58 843.252842,46.846 843.252842,59.236 C843.252842,71.508 834.166842,81.892 821.776842,81.892 Z" id="Shape"></path>
                    <path d="M864.407965,88.972 L874.437965,88.972 L874.437965,47.79 C878.213965,41.536 883.641965,36.58 892.255965,36.58 C901.459965,36.58 907.477965,42.716 907.477965,53.336 L907.477965,88.972 L917.507965,88.972 L917.507965,52.982 C917.507965,36.108 907.595965,27.14 894.261965,27.14 C885.411965,27.14 879.275965,30.916 874.437965,36.226 L874.437965,29.5 L864.407965,29.5 L864.407965,88.972 Z" id="Path"></path>
                </g>
            </g>
        </g>
    </g>
</svg>