<?xml version="1.0" encoding="UTF-8"?>
<svg width="529px" height="387px" viewBox="0 0 529 387" version="1.1" xmlns="http://www.w3.org/2000/svg" xmlns:xlink="http://www.w3.org/1999/xlink">
    <!-- Generator: Sketch 51.1 (57501) - http://www.bohemiancoding.com/sketch -->
    <title>Jury</title>
    <desc>Created with Sketch.</desc>
    <defs></defs>
    <g id="WebDesign" stroke="none" stroke-width="1" fill="none" fill-rule="evenodd">
        <g id="Étapes-VAE" transform="translate(-243.000000, -2028.000000)">
            <g id="Entretien" transform="translate(243.000000, 1994.000000)">
                <g id="Jury" transform="translate(0.000000, 34.000000)">
                    <path d="M415.166117,254.441352 L273.910332,314.400875 C261.353325,319.731008 246.852934,313.87247 241.522801,301.315463 L241.499604,301.260814 C239.126496,295.670122 238.971265,289.694203 240.637628,284.313888 L129.746775,329.116701 C117.098658,334.226872 102.70272,328.116159 97.5925492,315.468042 L97.5703091,315.412996 C92.460138,302.764878 98.5708508,288.368941 111.218968,283.25877 L113.275788,282.427761 C102.608562,283.531213 92.0623168,277.545107 87.8438678,267.104079 L87.8216277,267.049033 C84.4371728,258.672214 85.9746276,249.528733 91.0733985,242.82395 L33.9815675,265.890546 C21.3334501,271.000718 6.93751283,264.890005 1.82734168,252.241887 L1.80510164,252.186841 C-3.3050695,239.538724 2.80564332,225.142787 15.4537607,220.032616 L47.7167277,206.997531 C38.0678296,206.86742 28.9792949,201.05377 25.1379069,191.546001 L25.1156668,191.490955 C20.0054957,178.842838 26.1162085,164.4469 38.7643259,159.336729 L96.5972566,135.970708 C89.627639,133.90614 83.6307285,128.798657 80.6961181,121.535242 L80.673878,121.480196 C75.5637069,108.832078 81.6744197,94.4361412 94.3225371,89.32597 L213.747094,41.075317 C222.277579,37.6287772 231.603111,39.2863797 238.338676,44.6112719 L338.795445,1.96990338 C351.352452,-3.36022955 365.852843,2.49830884 371.182976,15.0553151 L371.206173,15.1099646 C373.919071,21.50115 373.733496,28.3957775 371.24149,34.3284936 L416.778974,14.9989786 C429.33598,9.66884564 443.836371,15.527384 449.166504,28.0843903 L449.189701,28.1390398 C452.241693,35.3290823 451.625349,43.1562863 448.183617,49.5342763 L479.005162,36.4513066 C491.562169,31.1211736 506.06256,36.979712 511.392693,49.5367183 L511.41589,49.5913678 C516.746023,62.1483741 510.887485,76.6487654 498.330479,81.9788983 L465.72975,95.8170864 C475.375243,95.7833234 484.558139,101.436727 488.563281,110.872251 L488.586478,110.926901 C492.115677,119.241172 490.739699,128.407434 485.761951,135.199641 L490.642885,133.127807 C503.199891,127.797674 517.700282,133.656213 523.030415,146.213219 L523.053613,146.267868 C528.383746,158.824875 522.525207,173.325266 509.968201,178.655399 L490.642357,186.858733 C501.278092,185.584678 511.910373,191.384578 516.306016,201.740065 L516.329213,201.794715 C521.659346,214.351721 515.800808,228.852113 503.243802,234.182246 L442.53009,259.953687 C432.873175,264.052804 422.066882,261.534587 415.166117,254.441352 Z" id="Bg" fill="#4FFFCE"></path>
                    <g id="Characters" transform="translate(148.000000, 49.000000)">
                        <g id="Charact2" transform="translate(178.000000, 0.000000)">
                            <rect id="Rectangle-8" stroke="#443C77" stroke-width="1.79999989" fill="#6C8EB1" x="-0.899999946" y="114.099993" width="77.9999954" height="98.3999941" rx="38.9999977"></rect>
                            <circle id="Oval-4" fill="#443C77" cx="37.4999978" cy="184.899989" r="3.2999998"></circle>
                            <path d="M29.0999983,96.6999938 L46.4999972,96.6999938 L46.4999972,119.590223 L46.2151495,119.856946 C43.4965656,122.40255 40.6987438,123.699992 37.8369118,123.699992 C34.977577,123.699992 32.1580021,122.40478 29.3911037,119.86275 L29.0999983,119.595303 L29.0999983,96.6999938 Z" id="Rectangle-7" stroke="#443C77" stroke-width="1.79999989" fill="#FCF2ED"></path>
                            <ellipse id="Oval-5" stroke="#443C77" stroke-width="1.79999989" fill="#FCF2ED" cx="8.69999948" cy="62.1999958" rx="9.59999943" ry="10.4999994"></ellipse>
                            <circle id="Oval-4" fill="#443C77" cx="8.69999948" cy="62.4999958" r="3.2999998"></circle>
                            <ellipse id="Oval-5" stroke="#443C77" stroke-width="1.79999989" fill="#FCF2ED" cx="66.299996" cy="62.1999958" rx="9.59999943" ry="10.4999994"></ellipse>
                            <circle id="Oval-4" fill="#443C77" cx="66.899996" cy="62.4999958" r="3.2999998"></circle>
                            <rect id="Rectangle-4" stroke="#443C77" stroke-width="1.79999989" fill="#FCF2ED" x="8.69999948" y="23.4999981" width="58.1999965" height="79.1999953" rx="29.0999983"></rect>
                            <circle id="Oval-4" fill="#443C77" cx="26.6999984" cy="61.2999959" r="3.2999998"></circle>
                            <rect id="Rectangle-3" stroke="#443C77" stroke-width="2" fill-opacity="0.124773551" fill="#000000" transform="translate(24.000000, 61.000000) rotate(5.000000) translate(-24.000000, -61.000000) " x="13" y="54" width="22" height="14" rx="2"></rect>
                            <rect id="Rectangle-3" stroke="#443C77" stroke-width="2" fill-opacity="0.124773551" fill="#000000" transform="translate(51.000000, 61.000000) scale(1, -1) rotate(5.000000) translate(-51.000000, -61.000000) " x="40" y="54" width="22" height="14" rx="2"></rect>
                            <circle id="Oval-4" fill="#443C77" cx="47.6999972" cy="61.2999959" r="3.2999998"></circle>
                            <rect id="Rectangle-6" fill="#DAB9A9" x="35.3999979" y="67.5999955" width="4.79999971" height="8.3999995" rx="2.39999986"></rect>
                            <path d="M24.5402329,87.6789009 C33.4003886,89.2738227 42.2605444,89.2738227 51.1207001,87.6789009" id="Path-2" stroke="#443C77" stroke-width="1.79999989" stroke-linecap="round"></path>
                            <path d="M59.1269139,44.7284535 C44.5398365,48.9234551 30.891914,48.9271656 18.205178,44.7290428 C15.7497753,49.4547877 12.6726314,51.8945277 8.97890571,51.8945277 L8.60061177,51.8945277 L8.33591745,51.6242626 C2.97322668,46.1487085 0.306980677,42.2525459 0.341290747,39.6755186 C0.402562829,35.0733762 2.2479805,31.4404157 5.92708643,27.1017892 C6.46604457,26.4662168 8.23268,24.4633386 8.29902288,24.3868514 C8.88657649,23.709456 8.95938161,21.9895191 8.69105429,17.9485891 C8.68774627,17.8987836 8.68774627,17.8987836 8.6844349,17.8489546 C8.31432359,12.2797197 8.43486113,10.5361404 10.1221261,9.65939103 C12.3642071,8.49434388 14.5417433,7.92202999 16.8374442,7.84687593 C19.9519899,7.74491546 19.1895332,7.56638448 29.2808902,10.3218817 C30.1754423,10.5661438 30.985361,10.7777034 31.7837719,10.9735755 C33.5315157,11.402345 36.4603545,9.85224768 41.9456917,5.93306991 C42.1685576,5.77383607 42.4009062,5.60730476 42.6831195,5.40463551 C50.2134764,-0.00323143109 52.403217,-1.25854226 54.6724369,-0.359139094 C58.7549723,1.25896994 59.8113952,3.7568161 60.4864366,10.1366284 C60.766474,12.7832605 60.9014635,13.7876829 61.2183226,15.1717509 C61.4731311,16.2847763 61.7997921,17.2963992 62.22394,18.2449091 C62.8958552,19.7474942 64.4936303,20.953244 68.1791048,23.0258715 C68.3689083,23.1326127 69.0500202,23.514333 69.0289862,23.5025325 C73.8314834,26.1968343 75.8107153,27.7312035 76.6976869,30.2280256 C78.4615909,35.1934093 76.6454214,39.9236018 72.2260219,45.417097 C71.7316636,46.0316047 71.2254176,46.6333166 70.5784949,47.3826141 C70.6522787,47.297154 69.4188046,48.7188104 69.1227855,49.067173 C68.1649289,50.1944027 67.6782145,50.8734747 67.538972,51.2837639 L67.3316931,51.8945277 L66.6867148,51.8945277 C63.3938804,51.8945277 60.8833591,49.4349035 59.1269139,44.7284535 Z" id="Path-3" stroke="#443C77" stroke-width="1.79999989" fill="#D0D0D0"></path>
                            <path d="M22.430858,125.473039 C33.0347637,134.928116 43.1216771,134.928116 52.6915984,125.473039" id="Path-4" stroke="#443C77" stroke-width="1.79999989" stroke-linecap="round"></path>
                            <path d="M34.8369141,63.5683594 C36.4378255,61.5032552 38.4075521,61.5032552 40.7460938,63.5683594" id="Path-14" stroke="#443C77" stroke-width="2"></path>
                            <path d="M62.4033203,61.3388672 L66.5839844,52.4306641" id="Path-15" stroke="#443C77" stroke-width="2"></path>
                            <path d="M8.40332031,61.3388672 L12.5839844,52.4306641" id="Path-15" stroke="#443C77" stroke-width="2" transform="translate(10.493652, 56.884766) scale(1, -1) translate(-10.493652, -56.884766) "></path>
                        </g>
                        <g id="Charact1" transform="translate(0.000000, 24.000000)">
                            <rect id="Rectangle-8" stroke="#443C77" stroke-width="1.79999989" fill="#979482" x="-0.899999946" y="90.0999927" width="77.9999954" height="98.3999941" rx="38.9999977"></rect>
                            <circle id="Oval-4" fill="#443C77" cx="37.4999978" cy="160.899989" r="3.2999998"></circle>
                            <path d="M29.0999983,72.6999938 L46.4999972,72.6999938 L46.4999972,95.5902225 L46.2151495,95.8569457 C43.4965656,98.4025496 40.6987438,99.6999922 37.8369118,99.6999922 C34.977577,99.6999922 32.1580021,98.4047796 29.3911037,95.8627499 L29.0999983,95.5953028 L29.0999983,72.6999938 Z" id="Rectangle-7" stroke="#443C77" stroke-width="1.79999989" fill="#FCF2ED"></path>
                            <ellipse id="Oval-5" stroke="#443C77" stroke-width="1.79999989" fill="#FCF2ED" cx="8.69999948" cy="38.1999958" rx="9.59999943" ry="10.4999994"></ellipse>
                            <circle id="Oval-4" fill="#443C77" cx="8.69999948" cy="38.4999958" r="3.2999998"></circle>
                            <ellipse id="Oval-5" stroke="#443C77" stroke-width="1.79999989" fill="#FCF2ED" cx="66.299996" cy="38.1999958" rx="9.59999943" ry="10.4999994"></ellipse>
                            <circle id="Oval-4" fill="#443C77" cx="66.899996" cy="38.4999958" r="3.2999998"></circle>
                            <rect id="Rectangle-4" stroke="#443C77" stroke-width="1.79999989" fill="#FCF2ED" x="8.69999948" y="-0.500001878" width="58.1999965" height="79.1999953" rx="29.0999983"></rect>
                            <path d="M38.4873047,78.2529297 C59.6289062,78.2529297 65.0058594,61.0022484 65.0058594,55.9003906 C65.0058594,52.4991521 63.429362,49.9275375 60.2763672,48.1855469 C56.1682943,54.8333333 48.9052734,58.1572266 38.4873047,58.1572266 C28.0693359,58.1572266 20.1848958,54.8333333 14.8339844,48.1855469 C10.8272081,51.562187 9.01308049,54.1338016 9.39160156,55.9003906 C12.4454398,70.1529049 26.6025618,78.2529297 38.4873047,78.2529297 Z" id="Path-17" fill-opacity="0.217476223" fill="#8A5C47"></path>
                            <circle id="Oval-4" fill="#443C77" cx="26.6999984" cy="37.2999959" r="3.2999998"></circle>
                            <circle id="Oval-4" fill="#443C77" cx="47.6999972" cy="37.2999959" r="3.2999998"></circle>
                            <rect id="Rectangle-6" fill="#DAB9A9" x="35.3999979" y="43.5999955" width="4.79999971" height="8.3999995" rx="2.39999986"></rect>
                            <path d="M24.5402329,62.6789009 C32.3591141,64.2738227 41.2192698,64.2738227 51.1207001,62.6789009" id="Path-2" stroke="#443C77" stroke-width="1.79999989" stroke-linecap="round"></path>
                            <path d="M22.430858,101.473039 C33.0347637,110.928116 43.1216771,110.928116 52.6915984,101.473039" id="Path-4" stroke="#443C77" stroke-width="1.79999989" stroke-linecap="round"></path>
                            <path d="M37.8203125,109.180664 L37.8203125,150.500977" id="Path-16" stroke="#443C77" stroke-width="2"></path>
                        </g>
                        <g id="Charact3" transform="translate(86.000000, 27.000000)">
                            <rect id="Rectangle-8" stroke="#443C77" stroke-width="1.79999989" fill="#FFB4C5" x="4.10000005" y="106.099993" width="77.9999954" height="74.9999955" rx="37.4999978"></rect>
                            <circle id="Oval-4" fill="#443C77" cx="42.4999978" cy="137.899991" r="3.2999998"></circle>
                            <circle id="Oval-4" fill="#443C77" cx="42.4999978" cy="158.89999" r="3.2999998"></circle>
                            <circle id="Oval-4" fill="#443C77" cx="42.4999978" cy="176.899989" r="3.2999998"></circle>
                            <path d="M34.0999983,88.6999938 L51.4999972,88.6999938 L51.4999972,111.590223 L51.2151495,111.856946 C48.4965656,114.40255 45.6987438,115.699992 42.8369118,115.699992 C39.977577,115.699992 37.1580021,114.40478 34.3911037,111.86275 L34.0999983,111.595303 L34.0999983,88.6999938 Z" id="Rectangle-7" stroke="#443C77" stroke-width="1.79999989" fill="#D7B8A8"></path>
                            <ellipse id="Oval-5" stroke="#443C77" stroke-width="1.79999989" fill="#FCF2ED" cx="13.6999995" cy="54.1999958" rx="9.59999943" ry="10.4999994"></ellipse>
                            <circle id="Oval-4" fill="#443C77" cx="13.6999995" cy="54.4999958" r="3.2999998"></circle>
                            <ellipse id="Oval-5" stroke="#443C77" stroke-width="1.79999989" fill="#FCF2ED" cx="71.299996" cy="54.1999958" rx="9.59999943" ry="10.4999994"></ellipse>
                            <circle id="Oval-4" fill="#443C77" cx="71.899996" cy="54.4999958" r="3.2999998"></circle>
                            <rect id="Rectangle-4" stroke="#443C77" stroke-width="1.79999989" fill="#D7B8A8" x="13.6999995" y="15.4999981" width="58.1999965" height="87.5999948" rx="29.0999983"></rect>
                            <circle id="Oval-4" fill="#443C77" cx="31.6999984" cy="61.2999959" r="3.2999998"></circle>
                            <circle id="Oval-4" fill="#443C77" cx="52.6999972" cy="61.2999959" r="3.2999998"></circle>
                            <rect id="Rectangle-6" fill="#8A5C47" x="40" y="70" width="4.79999971" height="8.3999995" rx="2.39999986"></rect>
                            <path d="M30,88 C38.8601557,89.5949218 47.7203114,89.5949218 56.5804672,88" id="Path-2" stroke="#443C77" stroke-width="1.79999989" stroke-linecap="round"></path>
                            <path d="M22.9014693,36.626859 C15.1052824,42.3794624 12.2387211,53.4153192 13.0846419,67.5504553 C13.3792064,72.4725572 14.1122705,77.3752508 15.0836944,81.8331825 C15.4113068,83.3366183 15.7413562,84.6647496 16.0060838,85.6005299 C16.0938921,85.9109214 16.1660822,86.1439735 16.1842055,86.1903146 C16.1789608,86.1768959 16.1770648,86.1732104 16.1467324,86.1142488 C16.1185141,86.0631158 16.1185141,86.0631158 16.022426,85.9447396 C15.8232188,85.6966357 15.8232188,85.6966357 14.9080833,85.7864073 C14.5819571,86.2771061 14.465825,86.4518417 14.4428277,86.5309819 C14.4394611,86.5176549 14.4358813,86.5036086 14.4320995,86.4889103 C14.4664562,86.6224402 9.4502801,79.6440751 6.9604313,75.2128463 C2.12318528,66.6039124 -0.72222694,57.5436887 -0.723171614,47.9105737 C-0.72438807,35.5060099 4.07670186,23.1612296 14.626339,11.1023267 C27.8595837,-4.02410953 53.5149769,-3.2196243 71.5119317,10.9894169 C86.2045847,22.6270002 88.7279989,40.5049672 82.5469534,61.53668 C80.4123896,68.7997767 77.3541733,75.9339653 73.9536481,82.2292751 C72.719308,84.514379 71.5196472,86.5285377 70.5751704,87.9465367 C70.1710091,88.553328 69.8407615,89.0086854 69.6187624,89.2643643 C69.5495089,89.3441243 69.4861145,89.4103727 69.4216567,89.4673872 C69.2270177,89.6395502 69.0695771,89.7352038 68.7538068,89.733156 C68.183986,89.5978784 68.183986,89.5978784 67.9023341,89.1374334 C67.8328967,88.8226782 67.8328967,88.8226782 67.8522144,88.6740506 C67.8675198,88.5583425 67.8983371,88.4569153 67.9441694,88.3398528 C69.4487955,84.4968133 71.7246564,74.410048 72.3535441,65.6290421 C73.314877,52.2061845 70.886165,41.8264551 64.1226421,36.3239181 C61.8202922,34.4508165 59.3449773,33.7562097 56.2655125,33.9531703 C53.9116627,34.103721 52.9372045,34.3377122 46.6330446,36.0768901 C36.9404216,38.7508698 30.7267392,39.2313825 22.9014693,36.626859 Z" id="Path-3" stroke="#443C77" stroke-width="1.79999989" fill="#AD745A"></path>
                            <path d="M27.430858,117.473039 C38.0347637,126.928116 48.1216771,126.928116 57.6915984,117.473039" id="Path-4" stroke="#443C77" stroke-width="1.79999989" stroke-linecap="round"></path>
                            <path d="M43.4873047,103.25293 C64.6289062,103.25293 70.0058594,86.0022484 70.0058594,80.9003906 C70.0058594,77.4991521 68.429362,74.9275375 65.2763672,73.1855469 C61.1682943,79.8333333 53.9052734,83.1572266 43.4873047,83.1572266 C33.0693359,83.1572266 25.1848958,79.8333333 19.8339844,73.1855469 C15.8272081,76.562187 14.0130805,79.1338016 14.3916016,80.9003906 C17.4454398,95.1529049 31.6025618,103.25293 43.4873047,103.25293 Z" id="Path-17" fill-opacity="0.217476223" fill="#8A5C47"></path>
                        </g>
                    </g>
                    <g id="Desk" transform="translate(54.799987, 224.799980)" stroke="#443C77" stroke-width="1.79999989">
                        <rect id="Rectangle-13" fill="#AEA197" x="-0.899999946" y="44.6999973" width="472.999985" height="12.5999992"></rect>
                        <path d="M37.1747369,-0.899999946 L428.383887,-0.899999946 L472.109912,44.6999973 L-0.3047129,44.6999973 L37.1747369,-0.899999946 Z" id="Rectangle-12" fill="#DCD0C7"></path>
                        <g id="Livre" transform="translate(187.000000, 5.000000)">
                            <path d="M11.5862058,2.49999955 L48.4999928,2.49999955 L48.4999928,34.8999976 L-1.11967576,34.8999976 L11.5862058,2.49999955 Z" id="Rectangle-14" fill="#FFFFFF"></path>
                            <path d="M60.7862029,2.49999955 L97.6999898,2.49999955 L97.6999898,34.8999976 L48.0803213,34.8999976 L60.7862029,2.49999955 Z" id="Rectangle-14" fill="#ECECEC" transform="translate(73.099991, 18.699999) scale(-1, 1) translate(-73.099991, -18.699999) "></path>
                            <path d="M11.5862058,-0.500000268 L48.4999928,-0.500000268 L48.4999928,31.8999978 L-1.11967576,31.8999978 L11.5862058,-0.500000268 Z" id="Rectangle-14" fill="#FFFFFF"></path>
                            <path d="M60.7862029,-0.500000268 L97.6999898,-0.500000268 L97.6999898,31.8999978 L48.0803213,31.8999978 L60.7862029,-0.500000268 Z" id="Rectangle-14" fill="#ECECEC" transform="translate(73.099991, 15.699999) scale(-1, 1) translate(-73.099991, -15.699999) "></path>
                            <path d="M41.8999932,24.6999982 L9.49999508,24.6999982" id="Line-3" stroke-linecap="round"></path>
                            <path d="M41.8999932,18.6999986 L11.8999949,18.6999986" id="Line-3" stroke-linecap="round"></path>
                            <path d="M41.8999932,12.6999989 L29.2999939,12.6999989" id="Line-3" stroke-linecap="round"></path>
                            <path d="M87.4999904,24.6999982 L55.0999924,24.6999982" id="Line-3" stroke-linecap="round"></path>
                            <path d="M72.4999913,18.6999986 L54.4999924,18.6999986" id="Line-3" stroke-linecap="round"></path>
                            <path d="M61.699992,12.6999989 L54.4999924,12.6999989" id="Line-3" stroke-linecap="round"></path>
                        </g>
                    </g>
                    <g id="DE" transform="translate(186.000000, 196.000000)" stroke="#443C77" stroke-width="1.79999989">
                        <path d="M29.0999983,87.8999948 L46.4999972,87.8999948 L46.4999972,110.790224 L46.2151495,111.056947 C43.4965656,113.602551 40.6987438,114.899993 37.8369118,114.899993 C34.977577,114.899993 32.1580021,113.604781 29.3911037,111.062751 L29.0999983,110.795304 L29.0999983,87.8999948 Z" id="Rectangle-7" fill="#FCF2ED"></path>
                        <path d="M76.6936905,158.354673 C66.480921,165.054945 52.4683679,168.89999 37.4999978,168.89999 C23.1342583,168.89999 9.63977766,165.359992 -0.47201981,159.131303 L-0.899999946,158.867675 L-0.899999946,144.299991 C-0.899999946,122.760887 16.5608938,105.299994 38.0999977,105.299994 C59.6391017,105.299994 77.0999954,122.760887 77.0999954,144.299991 L77.0999954,158.088109 L76.6936905,158.354673 Z" id="Combined-Shape" fill="#8FE0FF"></path>
                        <rect id="Rectangle-4" fill="#FCF2ED" x="8.69999948" y="14.6999991" width="58.1999965" height="79.1999953" rx="29.0999983"></rect>
                        <ellipse id="Oval-5" fill="#FCF2ED" cx="8.69999948" cy="53.3999968" rx="9.59999943" ry="10.4999994"></ellipse>
                        <ellipse id="Oval-5" fill="#FCF2ED" cx="66.299996" cy="53.3999968" rx="9.59999943" ry="10.4999994"></ellipse>
                        <path d="M56.2992154,9.59350083 C59.7315144,8.09106635 62.9423148,4.86915124 65.9140401,-0.106412682 L67.1352416,-2.15107217 L67.5714872,0.190221384 C70.5094718,15.958142 70.3198167,34.2897857 67.538972,42.4837649 L67.3316931,43.0945287 L66.6867148,43.0945287 C65.0426968,43.0945287 64.2319204,49.7192323 64.3738566,61.4745613 C64.3936266,63.1119339 64.4230325,64.6448258 64.4790962,67.1720685 C64.5819604,71.8089827 64.6041015,73.0236351 64.6041015,74.8257792 L64.6041015,75.0695589 L64.4810651,75.2800122 C56.0958783,89.6228369 25.0791599,90.9030011 12.1652696,78.3654625 L11.8921868,78.1003381 L11.8921868,77.7197266 C11.8921868,67.4435822 10.6270243,55.6571055 8.09480105,42.3629296 L8.09296447,42.3529838 C5.85058016,29.8155463 7.15929506,20.6714338 12.1123039,14.9610692 C16.6957222,9.67680851 22.6244227,6.85005185 30.0111169,5.75578776 C33.9390558,5.17390333 37.2417989,5.10292627 43.5675313,5.25793051 C50.8455396,5.4362691 53.2279302,5.26720634 54.893316,4.13533135 L56.2992154,3.17981559 L56.2992154,4.87968721 C56.2992154,7.3748954 56.2992154,7.7981212 56.2992154,9.59358035 Z" id="Path-3" fill="#A0AAB4"></path>
                    </g>
                    <g id="Toque" transform="translate(106.000000, 277.000000)" stroke="#443C77">
                        <path d="M-0.168100776,95.5419978 L-0.192000342,95.5419978 L-0.192000342,12.2829993 L64.9919958,12.2829993 L64.9919958,95.5419978 L64.9680962,95.5419978 C64.9840086,95.7149853 64.9919958,95.8885237 64.9919958,96.0624977 C64.9919958,103.518515 50.3685539,109.191997 32.3999977,109.191997 C14.4314415,109.191997 -0.192000342,103.518515 -0.192000342,96.0624977 C-0.192000342,95.8885237 -0.184013226,95.7149853 -0.168100532,95.5419978 Z" id="Combined-Shape" stroke-width="1.5839999" fill="#FFFFFF"></path>
                        <ellipse id="Oval-10" stroke-width="1.5839999" fill="#FFFFFF" cx="32.7999981" cy="12.2999993" rx="32.5919981" ry="13.0919992"></ellipse>
                        <path d="M31.9933571,108.798434 L31.9933571,92.5058573" id="Path-6" stroke-width="1.79999989" stroke-linecap="round"></path>
                        <path d="M43.9933564,107.598435 L43.9933564,91.3058574" id="Path-6" stroke-width="1.79999989" stroke-linecap="round"></path>
                        <path d="M54.1933558,104.598435 L54.1933558,88.3058576" id="Path-6" stroke-width="1.79999989" stroke-linecap="round"></path>
                        <path d="M9.79335843,104.598435 L9.79335843,88.3058576" id="Path-6" stroke-width="1.79999989" stroke-linecap="round" transform="translate(9.793358, 96.452146) scale(-1, 1) translate(-9.793358, -96.452146) "></path>
                        <path d="M19.9933578,107.598435 L19.9933578,91.3058574" id="Path-6" stroke-width="1.79999989" stroke-linecap="round" transform="translate(19.993358, 99.452146) scale(-1, 1) translate(-19.993358, -99.452146) "></path>
                    </g>
                </g>
            </g>
        </g>
    </g>
</svg>