<?xml version="1.0" encoding="UTF-8"?>
<svg width="296px" height="337px" viewBox="0 0 296 337" version="1.1" xmlns="http://www.w3.org/2000/svg" xmlns:xlink="http://www.w3.org/1999/xlink">
    <!-- Generator: Sketch 51.1 (57501) - http://www.bohemiancoding.com/sketch -->
    <title>Diplome-ok</title>
    <desc>Created with Sketch.</desc>
    <defs></defs>
    <g id="WebDesign" stroke="none" stroke-width="1" fill="none" fill-rule="evenodd">
        <g id="Étapes-VAE" transform="translate(-579.000000, -2581.000000)">
            <g id="Group-9" transform="translate(-21.000000, -11.000000)">
                <g id="Diplome-ok" transform="translate(602.000000, 2594.000000)">
                    <g id="Toque" transform="translate(35.000000, 197.000000)" stroke="#443C77">
                        <path d="M-0.168100776,95.5419978 L-0.192000342,95.5419978 L-0.192000342,12.2829993 L64.9919958,12.2829993 L64.9919958,95.5419978 L64.9680962,95.5419978 C64.9840086,95.7149853 64.9919958,95.8885237 64.9919958,96.0624977 C64.9919958,103.518515 50.3685539,109.191997 32.3999977,109.191997 C14.4314415,109.191997 -0.192000342,103.518515 -0.192000342,96.0624977 C-0.192000342,95.8885237 -0.184013226,95.7149853 -0.168100532,95.5419978 Z" id="Combined-Shape" stroke-width="1.5839999" fill="#FFFFFF"></path>
                        <ellipse id="Oval-10" stroke-width="1.5839999" fill="#FFFFFF" cx="32.7999981" cy="12.2999993" rx="32.5919981" ry="13.0919992"></ellipse>
                        <path d="M31.9933571,108.798434 L31.9933571,92.5058573" id="Path-6" stroke-width="1.79999989" stroke-linecap="round"></path>
                        <path d="M43.9933564,107.598435 L43.9933564,91.3058574" id="Path-6" stroke-width="1.79999989" stroke-linecap="round"></path>
                        <path d="M54.1933558,104.598435 L54.1933558,88.3058576" id="Path-6" stroke-width="1.79999989" stroke-linecap="round"></path>
                        <path d="M9.79335843,104.598435 L9.79335843,88.3058576" id="Path-6" stroke-width="1.79999989" stroke-linecap="round" transform="translate(9.793358, 96.452146) scale(-1, 1) translate(-9.793358, -96.452146) "></path>
                        <path d="M19.9933578,107.598435 L19.9933578,91.3058574" id="Path-6" stroke-width="1.79999989" stroke-linecap="round" transform="translate(19.993358, 99.452146) scale(-1, 1) translate(-19.993358, -99.452146) "></path>
                    </g>
                    <g id="Charact" transform="translate(46.000000, 165.000000)">
                        <path d="M118.600888,115.686722 C147.356236,95.8484772 161.730749,65.0505481 161.730749,23.1894531 L161.730749,22.7107389 L162.127702,22.4431662 C168.176011,18.3662088 174.548505,18.3662088 181.074817,22.4252067 L181.482287,22.6786303 L181.498956,23.1581903 C183.243241,73.3426453 166.060917,110.641159 129.968468,134.936483 C130.717481,137.975559 131.099995,141.112867 131.099995,144.299991 L131.099995,158.088109 L130.693691,158.354673 C120.480921,165.054945 106.468368,168.89999 91.4999978,168.89999 C77.1342583,168.89999 63.6397777,165.359992 53.5279802,159.131303 L53.1000001,158.867675 L53.1000001,144.299991 C53.1000001,141.711007 53.3523987,139.154183 53.8491648,136.655075 C15.9712871,112.416696 -2.08585014,74.5428959 -0.299847426,23.1581903 L-0.283179132,22.6786303 L0.124291234,22.4252067 C6.65060349,18.3662088 13.023097,18.3662088 19.0714058,22.4431662 L19.4683593,22.7107389 L19.4683593,23.1894531 C19.4683593,65.8985688 34.4308147,97.0924171 64.3659741,116.880515 C71.6362482,109.525626 81.5318914,105.299994 92.0999977,105.299994 C102.068371,105.299994 111.447697,109.057191 118.600888,115.686722 Z" id="Combined-Shape" stroke="#443C77" stroke-width="1.79999989" fill="#8FE0FF"></path>
                        <path d="M171.823364,25.7124023 C177.070069,25.7124023 180.628418,24.3783732 180.628418,23.2738037 C180.628418,22.1692342 176.613771,20.2547607 171.367065,20.2547607 C166.12036,20.2547607 162.667725,22.1692342 162.667725,23.2738037 C162.667725,24.3783732 166.576659,25.7124023 171.823364,25.7124023 Z" id="Oval-16" fill="#6FC6E7"></path>
                        <path d="M83.0999983,87.8999948 L100.499997,87.8999948 L100.499997,110.790224 L100.215149,111.056947 C97.4965656,113.602551 94.6987438,114.899993 91.8369118,114.899993 C88.977577,114.899993 86.1580021,113.604781 83.3911037,111.062751 L83.0999983,110.795304 L83.0999983,87.8999948 Z" id="Rectangle-7" stroke="#443C77" stroke-width="1.79999989" fill="#FCF2ED"></path>
                        <ellipse id="Oval-5" stroke="#443C77" stroke-width="1.79999989" fill="#FCF2ED" cx="62.6999995" cy="53.3999968" rx="9.59999943" ry="10.4999994"></ellipse>
                        <circle id="Oval-4" fill="#443C77" cx="62.6999995" cy="53.6999968" r="3.2999998"></circle>
                        <ellipse id="Oval-5" stroke="#443C77" stroke-width="1.79999989" fill="#FCF2ED" cx="120.299996" cy="53.3999968" rx="9.59999943" ry="10.4999994"></ellipse>
                        <circle id="Oval-4" fill="#443C77" cx="120.899996" cy="53.6999968" r="3.2999998"></circle>
                        <rect id="Rectangle-4" stroke="#443C77" stroke-width="1.79999989" fill="#FCF2ED" x="62.6999995" y="14.6999991" width="58.1999965" height="79.1999953" rx="29.0999983"></rect>
                        <circle id="Oval-4" fill="#443C77" cx="80.6999984" cy="52.4999969" r="3.2999998"></circle>
                        <circle id="Oval-4" fill="#443C77" cx="101.699997" cy="52.4999969" r="3.2999998"></circle>
                        <rect id="Rectangle-6" fill="#DAB9A9" x="89.3999979" y="58.7999965" width="4.79999971" height="8.3999995" rx="2.39999986"></rect>
                        <path d="M110.299215,9.59350083 C113.731514,8.09106635 116.942315,4.86915124 119.91404,-0.106412682 L121.135242,-2.15107217 L121.571487,0.190221384 C124.509472,15.958142 124.319817,34.2897857 121.538972,42.4837649 L121.331693,43.0945287 L120.686715,43.0945287 C117.39388,43.0945287 114.883359,40.6349045 113.126914,35.9284545 C98.5398365,40.1234561 84.891914,40.1271666 72.205178,35.9290438 C69.7497753,40.6547887 66.6726314,43.0945287 62.9789057,43.0945287 L62.2255935,43.0945287 L62.0929645,42.3529838 C59.8505802,29.8155463 61.1592951,20.6714338 66.1123039,14.9610692 C70.6957222,9.67680851 76.6244227,6.85005185 84.0111169,5.75578776 C87.9390558,5.17390333 91.2417989,5.10292627 97.5675313,5.25793051 C104.84554,5.4362691 107.22793,5.26720634 108.893316,4.13533135 L110.299215,3.17981559 L110.299215,4.87968721 C110.299215,7.3748954 110.299215,7.7981212 110.299215,9.59358035 Z" id="Path-3" stroke="#443C77" stroke-width="1.79999989" fill="#A0AAB4"></path>
                        <path d="M76.430858,116.67304 C87.0347637,126.128117 97.1216771,126.128117 106.691598,116.67304" id="Path-4" stroke="#443C77" stroke-width="1.79999989" stroke-linecap="round"></path>
                        <path d="M77.1464857,74.9882712 L76.4404628,72.8776267 L78.4151447,73.9042328 C85.1727437,77.4174023 95.055541,78.2130578 105.160163,75.2044466 L107.148818,74.6123326 L106.22228,76.4689084 C101.774981,85.3803064 95.7303483,89.0295221 89.4366955,87.5218504 C84.0553832,86.2327338 79.2092992,81.15502 77.1464857,74.9882712 Z" id="Path-9" stroke="#443C77" stroke-width="1.8" fill="#FFFFFF"></path>
                        <path d="M9.5,26 C14.7467051,26 18.6029053,24.3965617 18.6029053,23.2919922 C18.6029053,22.1874227 14.7467051,20.2875977 9.5,20.2875977 C4.25329488,20.2875977 0.676635742,22.1874227 0.676635742,23.2919922 C0.676635742,24.3965617 4.25329488,26 9.5,26 Z" id="Oval-16" fill="#6FC6E7"></path>
                    </g>
                    <g id="diplome">
                        <rect id="Rectangle-21" stroke="#443C77" stroke-width="1.8" fill="#FFFFFF" x="-0.9" y="-0.9" width="293.8" height="171.8"></rect>
                        <g id="Lauriers" opacity="0.100260417" transform="translate(64.000000, 23.000000)" fill="#2E5266">
                            <path d="M85,126.974824 C85,126.974824 84.3477449,127.008229 83.1257668,126.998081 C81.9042097,126.990047 80.1120873,126.921121 77.8378268,126.725762 C75.5635662,126.534209 72.8080097,126.190005 69.6802172,125.595471 C66.5545301,124.997976 63.0448168,124.18398 59.3115092,122.963198 C55.579886,121.745798 51.6116151,120.165166 47.5957619,118.109667 C43.575698,116.065586 39.5438438,113.484478 35.6896859,110.408207 C31.856161,107.307834 28.2268605,103.681852 25.0304318,99.6063744 C21.8293711,95.5359714 19.0359172,91.0439819 16.753235,86.3096964 C16.2020395,85.1180908 15.682004,83.9108395 15.1455463,82.7141597 C15.0124846,82.4071669 14.8790018,82.1285054 14.7467823,81.7995241 C14.6305638,81.4836514 14.5248724,81.1698929 14.419602,80.8578259 C14.2128511,80.2324232 14.0225223,79.6044834 13.8368254,78.9756979 C13.1176184,76.4542131 12.5403158,73.9090483 12.101549,71.3600779 C11.6619401,68.8115303 11.3621301,66.2608685 11.1827494,63.7334637 C10.9903152,61.2073274 10.9637871,58.7006425 11.0387396,56.2408945 C11.2122251,51.3222442 11.8484791,46.578233 12.9870832,42.2118315 C14.1016856,37.8407785 15.6382115,33.8422609 17.3726458,30.3181866 C19.0965529,26.7818496 21.1038479,23.7774642 22.9625011,21.1938197 C23.4513766,20.565457 23.924251,19.9561229 24.3811243,19.3687772 C24.6118769,19.0770072 24.8287338,18.7827 25.0586442,18.5078442 C25.295713,18.2389084 25.5273078,17.974624 25.7546917,17.7162595 C26.2094596,17.1991077 26.6456999,16.702253 27.0625705,16.2278096 C27.2743744,15.9943936 27.4663876,15.7520977 27.6811391,15.5415158 C27.8925219,15.3275512 28.0988518,15.1190836 28.3001287,14.916536 C29.1048152,14.1063457 29.8240222,13.3836864 30.448907,12.7536323 C31.1095837,12.162058 31.6713062,11.6592833 32.1264952,11.2512282 C33.0372942,10.434695 33.5232222,10 33.5232222,10 L33.6061752,10.0989481 C33.6061752,10.0989481 33.1265635,10.5391402 32.2275547,11.3645533 C31.778682,11.7776828 31.2245389,12.2859546 30.573126,12.8842945 C29.957505,13.519 29.2496672,14.2492707 28.456771,15.0666496 C28.2592838,15.2713114 28.0559015,15.4814704 27.8474662,15.6967036 C27.6365044,15.9098226 27.44786,16.15381 27.2398458,16.3889174 C26.8305547,16.8667437 26.4023149,17.3669812 25.9555476,17.887093 C25.7323744,18.1475717 25.5045694,18.4139704 25.2725536,18.6841748 C25.0464329,18.960722 24.8342078,19.2562977 24.6085082,19.5497591 C24.1613198,20.1404877 23.6977092,20.7519361 23.2189397,21.3836816 C21.4019735,23.9770518 19.4443662,26.9856657 17.7764628,30.5165057 C16.0984535,34.0355056 14.6255108,38.0171091 13.5744917,42.358985 C12.5053661,46.6953639 11.9065883,51.3937067 11.7836326,56.2620372 C11.7322606,58.6959911 11.7811061,61.1756133 11.9945943,63.6729954 C12.1950291,66.1708003 12.5150509,68.6901709 12.9723453,71.2040444 C13.4292186,73.7187635 14.0233644,76.2284084 14.7535196,78.7033792 C14.942164,79.3199019 15.1350193,79.9347332 15.3421913,80.5449131 C15.4483038,80.8489459 15.5535742,81.1517101 15.6651607,81.4464401 C15.7784316,81.7204502 15.9279155,82.0295573 16.0576086,82.3200587 C16.5982771,83.4968644 17.1225234,84.6833958 17.6770876,85.8551272 C19.9833503,90.4984988 22.7852258,94.8856203 25.9761805,98.8469267 C29.1700828,102.807387 32.7459059,106.342033 36.5267956,109.358258 C37.4447531,110.146883 38.427557,110.835714 39.3813063,111.544419 C40.3224232,112.271307 41.3216493,112.895018 42.2884522,113.543255 C43.2451491,114.208829 44.253639,114.76742 45.226337,115.358572 C46.1901923,115.9641 47.1957346,116.470258 48.165485,117.010244 C52.0815419,119.099148 55.968123,120.726294 59.6344786,121.991054 C63.3037818,123.251585 66.7414902,124.199203 69.8267535,124.870274 C71.3687535,125.210672 72.8210632,125.489334 74.1697869,125.712179 C74.8422538,125.835652 75.4911402,125.930795 76.1105509,126.025937 C76.7303827,126.126154 77.3228442,126.200999 77.8858301,126.274153 C80.1377733,126.5655 81.9189475,126.696162 83.1333462,126.771853 C84.3490082,126.843739 84.9978946,126.845007 84.9978946,126.845007 L85,126.974824" id="Fill-135"></path>
                            <path d="M65.7485433,121.950713 C65.7485433,121.950713 53.9119629,123.516309 55.0812604,109 C55.0812604,109 67.9404865,113.411558 65.7485433,121.950713" id="Fill-136"></path>
                            <path d="M64,127.117822 C64,127.117822 54.8854958,119.744685 48,132.513045 C48,132.513045 61.2157933,135.399389 64,127.117822" id="Fill-137"></path>
                            <path d="M51.0826875,117 C51.0826875,117 39.4845206,115.767025 44.0748331,102 C44.0748331,102 55.2093793,109.250113 51.0826875,117" id="Fill-138"></path>
                            <path d="M49,120.486395 C49,120.486395 41.9131438,111.758921 32,121.920849 C32,121.920849 44.2160125,127.443987 49,120.486395" id="Fill-139"></path>
                            <path d="M38.5731393,108 C38.5731393,108 27.6985826,105.142049 33.9238782,92 C33.9238782,92 43.5459408,100.817137 38.5731393,108" id="Fill-140"></path>
                            <path d="M35,112.04108 C35,112.04108 29.3426009,101.264692 18,111.224066 C18,111.224066 29.2118417,119.145808 35,112.04108" id="Fill-141"></path>
                            <path d="M27.0254529,97 C27.0254529,97 17.8360357,90.731269 27.2258391,80 C27.2258391,80 33.5992208,91.6408751 27.0254529,97" id="Fill-142"></path>
                            <path d="M23,99.7149216 C23,99.7149216 20.7832821,87.7007221 7,93.6574917 C7,93.6574917 15.3677836,104.679787 23,99.7149216" id="Fill-143"></path>
                            <path d="M18.6140121,83 C18.6140121,83 10.3936698,74.5902702 23.1078514,67 C23.1078514,67 26.9727266,79.720468 18.6140121,83" id="Fill-144"></path>
                            <path d="M14.9920012,84.6151868 C14.9920012,84.6151868 15.8064012,73.1761847 1,75.2517882 C1,75.2517882 6.38374998,87.2776736 14.9920012,84.6151868" id="Fill-145"></path>
                            <path d="M15.1764803,70 C15.1764803,70 9.52682822,60.2896482 22.9886405,56 C22.9886405,56 23.634999,68.7835654 15.1764803,70" id="Fill-146"></path>
                            <path d="M10.6387612,69.9794376 C10.6387612,69.9794376 14.0350508,60.1939338 0,59 C0,59 2.14118713,70.5514302 10.6387612,69.9794376" id="Fill-147"></path>
                            <path d="M13.4705087,54.9939008 C13.4705087,54.9939008 9.61094918,45.5753614 24,44 C24,44 22.2313836,55.2997651 13.4705087,54.9939008" id="Fill-148"></path>
                            <path d="M10.007383,54 C10.007383,54 15.1562597,44.6385026 2.00050099,41 C2.00050099,41 1.7898512,53.1138781 10.007383,54" id="Fill-149"></path>
                            <path d="M16.0139831,41.6663485 C16.0139831,41.6663485 15.1023881,30.4213694 28,32.1883923 C28,32.1883923 23.5390122,44.1250709 16.0139831,41.6663485" id="Fill-150"></path>
                            <path d="M11.8437693,40 C11.8437693,40 18.8243894,31.9243609 7.66541265,25 C7.66541265,25 4.53785314,37.0609681 11.8437693,40" id="Fill-151"></path>
                            <path d="M22,28.0688757 C22,28.0688757 23.3500746,17.606047 35,22.1386366 C35,22.1386366 28.5177031,32.0156296 22,28.0688757" id="Fill-152"></path>
                            <path d="M17.8360163,25 C17.8360163,25 25.4814518,19.4191506 17.0030321,11 C17.0030321,11 11.9837887,20.8817872 17.8360163,25" id="Fill-153"></path>
                            <path d="M29,16.3427195 C29,16.3427195 32.2670648,6.70299144 43,13.3203282 C43,13.3203282 34.7444539,21.3824963 29,16.3427195" id="Fill-154"></path>
                            <path d="M27.0750589,14 C27.0750589,14 36.6927482,10.0669333 29.0477353,0 C29.0477353,0 21.4482045,8.72363713 27.0750589,14" id="Fill-155"></path>
                            <path d="M36.0009109,9.34726249 C36.0009109,9.34726249 42.9560741,13.6841886 50,0 C35.6275241,0.616572843 36.0009109,9.34726249 36.0009109,9.34726249" id="Fill-156"></path>
                            <path d="M70.0025265,126.845007 C70.0025265,126.845007 70.6509881,126.843739 71.8666431,126.771853 C73.081456,126.696162 74.8626201,126.5655 77.1145505,126.274153 C77.6771121,126.200999 78.2704124,126.126154 78.8893985,126.025937 C79.5092267,125.930795 80.1581095,125.835652 80.8305726,125.712179 C82.1792886,125.489334 83.63159,125.210672 85.1735813,124.870274 C88.258827,124.199203 91.6965158,123.251585 95.365377,121.991054 C99.0317118,120.726294 102.918692,119.099148 106.835148,117.010244 C107.804471,116.470258 108.809587,115.9641 109.773858,115.358572 C110.74655,114.76742 111.755034,114.208829 112.712147,113.543255 C113.678523,112.895018 114.677744,112.271307 115.618855,111.544419 C116.572599,110.835714 117.555397,110.146883 118.47335,109.358258 C122.253797,106.342033 125.829599,102.807387 129.023484,98.8469267 C132.214841,94.8856203 135.016701,90.4984988 137.323371,85.8551272 C137.877511,84.6833958 138.401755,83.4968644 138.942841,82.3200587 C139.072113,82.0295573 139.221596,81.7204502 139.334866,81.4464401 C139.446452,81.1517101 139.551721,80.8489459 139.657412,80.5449131 C139.865425,79.9347332 140.057858,79.3199019 140.246502,78.7033792 C140.976653,76.2284084 141.570795,73.7187635 142.027245,71.2040444 C142.485379,68.6901709 142.804978,66.1708003 143.005411,63.6729954 C143.218898,61.1756133 143.267744,58.6959911 143.215951,56.2620372 C143.093417,51.3937067 142.495064,46.6953639 141.425523,42.358985 C140.37451,38.0171091 138.901576,34.0355056 137.223576,30.5165057 C135.555682,26.9856657 133.598507,23.9770518 131.780709,21.3836816 C131.302363,20.7519361 130.838755,20.1404877 130.391569,19.5497591 C130.16545,19.2562977 129.953647,18.960722 129.727528,18.6841748 C129.495513,18.4139704 129.267709,18.1475717 129.044538,17.887093 C128.597773,17.3669812 128.169535,16.8667437 127.759826,16.3889174 C127.552234,16.15381 127.36359,15.9098226 127.15263,15.6967036 C126.944196,15.4814704 126.740814,15.2713114 126.543328,15.0666496 C125.750437,14.2492707 125.042603,13.519 124.426985,12.8842945 C123.775576,12.2859546 123.221436,11.7776828 122.772145,11.3645533 C121.873141,10.5391402 121.393953,10.0989481 121.393953,10.0989481 L121.477327,10 C121.477327,10 121.962831,10.434695 122.873625,11.2512282 C123.328811,11.6592833 123.890531,12.162058 124.551204,12.7536323 C125.176085,13.3836864 125.895288,14.1063457 126.69997,14.916536 C126.900824,15.1190836 127.107574,15.3275512 127.319377,15.5415158 C127.533706,15.7520977 127.725718,15.9943936 127.937521,16.2278096 C128.354389,16.702253 128.790627,17.1991077 129.245392,17.7162595 C129.472775,17.974624 129.704789,18.2389084 129.941436,18.5078442 C130.171766,18.7827 130.388201,19.0770072 130.618952,19.3687772 C131.075401,19.9561229 131.548694,20.565457 132.037567,21.1938197 C133.89621,23.7774642 135.903072,26.7818496 137.627391,30.3181866 C139.362236,33.8422609 140.898332,37.8407785 142.013349,42.2118315 C143.151947,46.578233 143.787776,51.3222442 143.961261,56.2408945 C144.036213,58.7006425 144.009685,61.2073274 143.817252,63.7334637 C143.637872,66.2608685 143.338064,68.8115303 142.898878,71.3600779 C142.459693,73.9090483 141.882815,76.4542131 141.163612,78.9756979 C140.977495,79.6044834 140.787588,80.2324232 140.580417,80.8578259 C140.475569,81.1698929 140.369457,81.4836514 140.253239,81.7995241 C140.12102,82.1285054 139.987538,82.4071669 139.854477,82.7141597 C139.318023,83.9108395 138.79799,85.1180908 138.246798,86.3096964 C135.964129,91.0439819 133.170691,95.5359714 129.969648,99.6063744 C126.773659,103.681852 123.143537,107.307834 119.310455,110.408207 C115.456319,113.484478 111.424487,116.065586 107.404446,118.109667 C103.388616,120.165166 99.4207887,121.745798 95.6887657,122.963198 C91.9554794,124.18398 88.445365,124.997976 85.3196957,125.595471 C82.192342,126.190005 79.4363801,126.534209 77.1625535,126.725762 C74.8883059,126.921121 73.0961938,126.990047 71.8742226,126.998081 C70.6526724,127.008229 70,126.974824 70,126.974824 L70.0025265,126.845007" id="Fill-157"></path>
                            <path d="M90.2514567,121.950713 C90.2514567,121.950713 102.088037,123.516309 100.91874,109 C100.91874,109 88.0595135,113.411558 90.2514567,121.950713" id="Fill-158"></path>
                            <path d="M91,127.117822 C91,127.117822 100.114072,119.744685 107,132.513045 C107,132.513045 93.7842067,135.399389 91,127.117822" id="Fill-159"></path>
                            <path d="M104.917363,117 C104.917363,117 116.515812,115.767025 111.924963,102 C111.924963,102 100.79057,109.250113 104.917363,117" id="Fill-160"></path>
                            <path d="M108,120.486395 C108,120.486395 115.086856,111.758921 125,121.920849 C125,121.920849 112.783987,127.443987 108,120.486395" id="Fill-161"></path>
                            <path d="M118.426861,108 C118.426861,108 129.301417,105.142049 123.076122,92 C123.076122,92 113.454059,100.817137 118.426861,108" id="Fill-162"></path>
                            <path d="M121,112.04108 C121,112.04108 126.656965,101.264692 138,111.224066 C138,111.224066 126.788158,119.145808 121,112.04108" id="Fill-163"></path>
                            <path d="M127.974547,97 C127.974547,97 137.163964,90.731269 127.774161,80 C127.774161,80 121.400779,91.6408751 127.974547,97" id="Fill-164"></path>
                            <path d="M133,99.7149216 C133,99.7149216 135.217033,87.7007221 149,93.6574917 C149,93.6574917 140.631801,104.679787 133,99.7149216" id="Fill-165"></path>
                            <path d="M136.385988,83 C136.385988,83 144.60633,74.5902702 131.892149,67 C131.892149,67 128.027273,79.720468 136.385988,83" id="Fill-166"></path>
                            <path d="M141.007987,84.6151868 C141.007987,84.6151868 140.194047,73.1761847 155,75.2517882 C155,75.2517882 149.615977,87.2776736 141.007987,84.6151868" id="Fill-167"></path>
                            <path d="M140.823294,70 C140.823294,70 146.473546,60.2896482 133.011361,56 C133.011361,56 132.364984,68.7835654 140.823294,70" id="Fill-168"></path>
                            <path d="M145.361268,69.9794376 C145.361268,69.9794376 141.964847,60.1939338 156,59 C156,59 153.85873,70.5514302 145.361268,69.9794376" id="Fill-169"></path>
                            <path d="M142.52953,54.9939008 C142.52953,54.9939008 146.388934,45.5753614 132,44 C132,44 133.769009,55.2997651 142.52953,54.9939008" id="Fill-170"></path>
                            <path d="M145.992617,54 C145.992617,54 140.84374,44.6385026 153.999499,41 C153.999499,41 154.210149,53.1138781 145.992617,54" id="Fill-171"></path>
                            <path d="M139.986017,41.6663485 C139.986017,41.6663485 140.897612,30.4213694 128,32.1883923 C128,32.1883923 132.460572,44.1250709 139.986017,41.6663485" id="Fill-172"></path>
                            <path d="M144.156392,40 C144.156392,40 137.175386,31.9243609 148.334732,25 C148.334732,25 151.461865,37.0609681 144.156392,40" id="Fill-173"></path>
                            <path d="M134,28.0688757 C134,28.0688757 132.649925,17.606047 121,22.1386366 C121,22.1386366 127.482718,32.0156296 134,28.0688757" id="Fill-174"></path>
                            <path d="M138.164158,25 C138.164158,25 130.518329,19.4191506 138.997142,11 C138.997142,11 144.01599,20.8817872 138.164158,25" id="Fill-175"></path>
                            <path d="M126,16.3427195 C126,16.3427195 122.732935,6.70299144 112,13.3203282 C112,13.3203282 120.255546,21.3824963 126,16.3427195" id="Fill-176"></path>
                            <path d="M128.925134,14 C128.925134,14 119.307002,10.0669333 126.952459,0 C126.952459,0 134.551541,8.72363713 128.925134,14" id="Fill-177"></path>
                            <path d="M119.999089,9.34726249 C119.999089,9.34726249 113.043926,13.6841886 106,0 C120.372476,0.616572843 119.999089,9.34726249 119.999089,9.34726249" id="Fill-178"></path>
                        </g>
                        <rect id="Rectangle-22" fill="#443C77" x="61" y="47" width="161" height="2"></rect>
                        <rect id="Rectangle-22" fill="#443C77" x="61" y="63" width="161" height="2"></rect>
                        <rect id="Rectangle-22" fill="#443C77" x="61" y="79" width="161" height="2"></rect>
                        <rect id="Rectangle-22" fill="#443C77" x="61" y="95" width="161" height="2"></rect>
                        <rect id="Rectangle-22" fill="#443C77" x="104" y="123" width="71" height="2"></rect>
                    </g>
                    <g id="Hands" transform="translate(45.000000, 158.000000)" fill="#FCF2ED">
                        <g id="hand" transform="translate(0.000000, 2.000000)" stroke="#443C77" stroke-width="1.8">
                            <path d="M13.3365573,28.1993884 C12.4271791,28.5660553 11.4945293,28.7698673 10.5,28.7698673 C9.50709086,28.7698673 8.57483221,28.566722 7.66459885,28.2011749 L7.1,27.9744337 L7.1,13.1 L13.9,13.1 L13.9,27.9722049 L13.3365573,28.1993884 Z" id="Combined-Shape"></path>
                            <ellipse id="Oval-17" cx="11" cy="10" rx="11.9" ry="10.9"></ellipse>
                        </g>
                        <g id="hand" transform="translate(162.000000, 2.000000)" stroke="#443C77" stroke-width="1.8">
                            <path d="M13.3365573,28.1993884 C12.4271791,28.5660553 11.4945293,28.7698673 10.5,28.7698673 C9.50709086,28.7698673 8.57483221,28.566722 7.66459885,28.2011749 L7.1,27.9744337 L7.1,13.1 L13.9,13.1 L13.9,27.9722049 L13.3365573,28.1993884 Z" id="Combined-Shape"></path>
                            <ellipse id="Oval-17" cx="11" cy="10" rx="11.9" ry="10.9"></ellipse>
                        </g>
                        <g id="Hand">
                            <path d="M21.6931216,15.54798 C12.0331266,16.6291381 6.63335005,17.1001953 5.24018408,16.9687762 C3.45647338,16.8005164 2.48337514,16.5568119 2.03518945,16.0323611 C1.57197449,15.4903236 1.71320891,14.8244349 2.18928982,14.3923347 C2.43184333,14.1721884 2.76858582,13.9931863 3.20783948,13.824286 C4.6655515,13.2637715 7.36813948,12.8111816 9.2512207,12.8111816 C12.375956,12.8111816 15.2532978,10.6871285 18.1863846,6.82654106 C19.1839197,5.51356536 21.8221175,1.48888091 22.2042071,1.02413754 C23.4269,-0.463049131 25.4375543,-0.700094882 26.995283,0.201851706 C28.645802,1.15752519 29.1466974,3.04698661 27.8238292,4.6322886 C26.5288456,6.18417427 24.7115688,9.66071437 22.4202712,15.0080379 L22.2138836,15.4896957 L21.6931216,15.54798 Z" id="Path-11" stroke="#443C77" stroke-width="1.8"></path>
                            <path d="M21.5930176,14.6535645 C23.9177246,9.22827148 25.7643229,5.69563802 27.1328125,4.05566406 C29.1855469,1.59570312 24.921875,-0.864257813 22.8994141,1.59570312 C20.8769531,4.05566406 16.2531738,13.7111816 9.2512207,13.7111816 C7.80017049,13.7111816 4.63354492,13.7111816 2.7019043,13.7111816 C2.34861754,13.7111816 1.24932372,13.5312023 1.0559082,13.7111816 C-0.352627874,15.0218695 1.26630873,18.0297763 4.63354492,18.3474121 C5.8157858,18.4589344 11.6265978,18.5620485 19.6523438,17.6855469 C20.1763179,17.628323 20.8232091,16.6176622 21.5930176,14.6535645 Z" id="Path-11"></path>
                        </g>
                        <g id="Hand" transform="translate(170.000000, 9.500000) scale(-1, 1) translate(-170.000000, -9.500000) translate(156.000000, 0.000000)">
                            <path d="M21.6931216,15.54798 C12.0331266,16.6291381 6.63335005,17.1001953 5.24018408,16.9687762 C3.45647338,16.8005164 2.48337514,16.5568119 2.03518945,16.0323611 C1.57197449,15.4903236 1.71320891,14.8244349 2.18928982,14.3923347 C2.43184333,14.1721884 2.76858582,13.9931863 3.20783948,13.824286 C4.6655515,13.2637715 7.36813948,12.8111816 9.2512207,12.8111816 C12.375956,12.8111816 15.2532978,10.6871285 18.1863846,6.82654106 C19.1839197,5.51356536 21.8221175,1.48888091 22.2042071,1.02413754 C23.4269,-0.463049131 25.4375543,-0.700094882 26.995283,0.201851706 C28.645802,1.15752519 29.1466974,3.04698661 27.8238292,4.6322886 C26.5288456,6.18417427 24.7115688,9.66071437 22.4202712,15.0080379 L22.2138836,15.4896957 L21.6931216,15.54798 Z" id="Path-11" stroke="#443C77" stroke-width="1.8"></path>
                            <path d="M21.5930176,14.6535645 C23.9177246,9.22827148 25.7643229,5.69563802 27.1328125,4.05566406 C29.1855469,1.59570312 24.921875,-0.864257813 22.8994141,1.59570312 C20.8769531,4.05566406 16.2531738,13.7111816 9.2512207,13.7111816 C7.80017049,13.7111816 4.63354492,13.7111816 2.7019043,13.7111816 C2.34861754,13.7111816 1.24932372,13.5312023 1.0559082,13.7111816 C-0.352627874,15.0218695 1.26630873,18.0297763 4.63354492,18.3474121 C5.8157858,18.4589344 11.6265978,18.5620485 19.6523438,17.6855469 C20.1763179,17.628323 20.8232091,16.6176622 21.5930176,14.6535645 Z" id="Path-11"></path>
                        </g>
                    </g>
                </g>
            </g>
        </g>
    </g>
</svg>