<?xml version="1.0" encoding="UTF-8"?>
<svg width="144px" height="63px" viewBox="0 0 144 63" version="1.1" xmlns="http://www.w3.org/2000/svg" xmlns:xlink="http://www.w3.org/1999/xlink">
    <!-- Generator: Sketch 50.2 (55047) - http://www.bohemiancoding.com/sketch -->
    <title>Logo</title>
    <desc>Created with Sketch.</desc>
    <defs></defs>
    <g id="WebDesign" stroke="none" stroke-width="1" fill="none" fill-rule="evenodd">
        <g id="Concept-Homepage-Alt" transform="translate(-85.000000, -35.000000)">
            <g id="Header" transform="translate(85.000000, 35.000000)">
                <g id="Logo">
                    <path d="M91.0989474,36.8320172 L88.5112782,30.2508155 L78.9428571,30.2508155 L76.5067669,36.8320172 L72.4330827,36.8320172 L82.4318797,10.9371245 L85.2956391,10.9371245 L95.5326316,36.8320172 L91.0989474,36.8320172 Z M84.7867669,19.9085408 C84.4094816,18.8711279 84.09493,17.8120097 83.844812,16.7369099 L83.8042105,16.7369099 C83.5335338,17.6372961 83.2168421,18.6539485 82.7864662,19.8706867 L80.2366917,26.8033906 L87.1768421,26.8033906 L84.7867669,19.9085408 Z" id="Shape" fill="#194164" fill-rule="nonzero"></path>
                    <polygon id="Shape" fill="#194164" fill-rule="nonzero" points="103.650226 36.9509871 100.63218 36.9509871 93.1804511 18.2943348 97.3759398 18.2943348 102.199398 31.6541202 102.277895 31.6541202 107.420752 18.2943348 111.380752 18.2943348"></polygon>
                    <path d="M123.769624,22.1419313 C123.140128,21.8136009 122.441545,21.6393743 121.731429,21.6336052 C120.513383,21.6336052 119.417143,22.2203433 117.966316,23.4749356 L117.966316,36.8320172 L113.887218,36.8320172 L113.887218,18.3024464 L117.300451,18.3024464 L117.768722,20.3411588 C119.934135,18.4214163 121.338947,17.8319742 122.868271,17.8319742 C123.734041,17.808173 124.585664,18.0548784 125.304361,18.5376824 L123.769624,22.1419313 Z" id="Shape" fill="#194164" fill-rule="nonzero"></path>
                    <path d="M132.163308,12.5432189 C132.148438,13.9584973 130.992503,15.0962823 129.575639,15.0902575 C128.17256,15.069425 127.050032,13.9200178 127.063884,12.5183574 C127.077736,11.116697 128.222761,9.98965072 129.625978,9.9964919 C131.029196,10.0033331 132.163153,11.1414902 132.163308,12.5432189 Z M127.537444,36.8320172 L127.537444,18.3024464 L131.613835,18.3024464 L131.613835,36.8320172 L127.537444,36.8320172 Z" id="Shape" fill="#194164" fill-rule="nonzero"></path>
                    <path d="M140.713985,37.2240773 C137.890827,37.2240773 136.829774,35.5395708 136.829774,33.3467382 L136.829774,9.09579399 L140.908872,9.09579399 L140.908872,31.5838197 C140.908872,33.1115021 141.179549,33.5414163 142.243308,33.5414163 C142.653934,33.5490776 143.063448,33.496235 143.458647,33.3845923 L143.967519,36.402103 C142.971049,36.9490833 141.850963,37.2320623 140.713985,37.2240773 Z" id="Shape" fill="#194164" fill-rule="nonzero"></path>
                    <polygon id="Shape" fill="#00CC99" fill-rule="nonzero" points="72.3843609 51.8438627 72.3843609 43.2942489 73.7377444 43.2942489 73.7377444 50.675794 76.8721805 50.675794 76.8721805 51.8438627"></polygon>
                    <path d="M81.5142857,51.8438627 L81.243609,51.2706438 C80.7543536,51.7362563 80.1002307,51.9890681 79.4246617,51.9736481 C78.9022868,51.9972949 78.3937415,51.8020531 78.0216823,51.4350133 C77.6496232,51.0679734 77.447826,50.5624556 77.4649624,50.0403863 C77.4649624,48.7803863 78.398797,48.0665665 80.0093233,48.0151931 L81.1515789,47.9773391 L81.1515789,47.7961803 C81.1515789,46.9255365 80.6102256,46.6281116 79.92,46.6281116 C79.3492281,46.6268379 78.7914746,46.7984153 78.3203008,47.1202146 L77.8682707,46.2522747 C78.5416288,45.7647721 79.3597561,45.5180733 80.1906767,45.5519742 C81.592782,45.5519742 82.5157895,46.1360086 82.5157895,47.7312876 L82.5157895,49.9754936 C82.5157895,51.1435622 82.5293233,51.5978112 82.6321805,51.8438627 L81.5142857,51.8438627 Z M81.1515789,48.9750644 L80.1500752,49.0156223 C79.2162406,49.0534764 78.8264662,49.3644206 78.8264662,49.9349356 C78.8264662,50.5054506 79.1756391,50.8839914 79.8902256,50.8839914 C80.3593604,50.8906432 80.8123387,50.7129477 81.1515789,50.3891845 L81.1515789,48.9750644 Z" id="Shape" fill="#00CC99" fill-rule="nonzero"></path>
                    <path d="M89.9296241,51.8952361 L89.0093233,51.8952361 L85.552782,43.2942489 L87.0333835,43.2942489 L89.0093233,48.4180687 C89.2042105,48.923691 89.3720301,49.4049785 89.5506767,49.8700429 L89.5777444,49.8700429 C89.7323901,49.3847939 89.9131033,48.908223 90.1190977,48.4424034 L92.2845113,43.3050644 L93.6541353,43.3050644 L89.9296241,51.8952361 Z" id="Shape" fill="#00CC99" fill-rule="nonzero"></path>
                    <path d="M98.8538346,51.8438627 L97.9849624,49.6645494 L94.8180451,49.6645494 L94.006015,51.8438627 L92.6526316,51.8438627 L95.9819549,43.2618026 L96.9320301,43.2618026 L100.320902,51.8384549 L98.8538346,51.8438627 Z M96.7642105,46.2360515 C96.6382151,45.8921614 96.5333583,45.540907 96.4502256,45.1842489 L96.4366917,45.1842489 C96.3473684,45.4843777 96.2445113,45.8196567 96.1010526,46.2225322 L95.2565414,48.5181116 L97.5545865,48.5181116 L96.7642105,46.2360515 Z" id="Shape" fill="#00CC99" fill-rule="nonzero"></path>
                    <polygon id="Shape" fill="#00CC99" fill-rule="nonzero" points="101.398195 51.8438627 101.398195 43.2942489 105.972632 43.2942489 105.56391 44.4623176 102.762406 44.4623176 102.762406 46.895794 105.542256 46.895794 105.542256 48.0638627 102.762406 48.0638627 102.762406 50.6839056 105.983459 50.6839056 105.983459 51.8519742"></polygon>
                    <path d="M113.841203,43.9296567 C113.596396,43.8169266 113.331135,43.7552828 113.061654,43.7484979 C112.555489,43.7484979 112.309173,44.0837768 112.309173,44.6542918 L112.309173,45.695279 L113.933233,45.695279 L113.543459,46.776824 L112.309173,46.776824 L112.309173,51.8492704 L110.955789,51.8492704 L110.955789,46.776824 L110.100451,46.776824 L110.100451,45.695279 L110.955789,45.695279 L110.955789,44.7624464 C110.955789,43.0238627 112.163008,42.6480258 112.993985,42.6480258 C113.378303,42.6498731 113.75673,42.7425255 114.098346,42.918412 L113.841203,43.9296567 Z" id="Shape" fill="#00CC99" fill-rule="nonzero"></path>
                    <path d="M118.361504,51.8438627 L118.090827,51.2706438 C117.602727,51.7363526 116.949382,51.9892401 116.274586,51.9736481 C115.751753,51.9980729 115.242482,51.8031759 114.869818,51.4360462 C114.497153,51.0689165 114.294993,50.5629474 114.31218,50.0403863 C114.31218,48.7803863 115.246015,48.0665665 116.856541,48.0151931 L118.001504,47.9773391 L118.001504,47.7961803 C118.001504,46.9255365 117.46015,46.6281116 116.767218,46.6281116 C116.197216,46.626363 115.640188,46.7980074 115.170226,47.1202146 L114.715489,46.2522747 C115.38968,45.76438 116.208792,45.5176717 117.040602,45.5519742 C118.442707,45.5519742 119.363008,46.1360086 119.363008,47.7312876 L119.363008,49.9754936 C119.363008,51.1435622 119.376541,51.5978112 119.482105,51.8438627 L118.361504,51.8438627 Z M117.998797,48.9750644 L116.997293,49.0156223 C116.063459,49.0534764 115.673684,49.3644206 115.673684,49.9349356 C115.673684,50.5054506 116.025564,50.8839914 116.74015,50.8839914 C117.208512,50.8908055 117.660708,50.7130356 117.998797,50.3891845 L117.998797,48.9750644 Z" id="Shape" fill="#00CC99" fill-rule="nonzero"></path>
                    <path d="M123.558496,51.9736481 C121.59609,51.9736481 120.597293,50.51897 120.597293,48.8209442 C120.597293,47.0039485 121.818045,45.5519742 123.73985,45.5519742 C124.325126,45.5395825 124.903238,45.682323 125.415338,45.9656652 L125.401805,47.1202146 C124.946994,46.7976686 124.400356,46.6298716 123.842707,46.6416309 C122.713985,46.6416309 121.94797,47.5230901 121.94797,48.7560515 C121.94797,49.9106009 122.570526,50.8704721 123.818346,50.8704721 C124.343654,50.8662624 124.857016,50.7134503 125.298947,50.4297425 L125.661654,51.324721 C125.041915,51.7474497 124.308937,51.9736092 123.558496,51.9736481 Z" id="Shape" fill="#00CC99" fill-rule="nonzero"></path>
                    <path d="M128.284511,43.8025751 C128.280046,44.2719103 127.896317,44.6491815 127.426466,44.6461803 C126.96189,44.6387422 126.590592,44.2578174 126.595537,43.7937065 C126.600481,43.3295955 126.97981,42.9566502 127.444439,42.9590899 C127.909068,42.9615297 128.284452,43.3384379 128.284511,43.8025751 Z M126.752481,51.8465665 L126.752481,45.695279 L128.105865,45.695279 L128.105865,51.8330472 L126.752481,51.8465665 Z" id="Shape" fill="#00CC99" fill-rule="nonzero"></path>
                    <path d="M131.115789,51.9736481 C130.181955,51.9736481 129.830075,51.4139485 129.830075,50.6893133 L129.830075,42.6588412 L131.183459,42.6588412 L131.183459,50.105279 C131.183459,50.6109013 131.275489,50.754206 131.624662,50.754206 C131.761075,50.7568823 131.897092,50.7386445 132.02797,50.7001288 L132.198496,51.7005579 C131.866968,51.8827245 131.494151,51.9767599 131.115789,51.9736481 Z" id="Shape" fill="#00CC99" fill-rule="nonzero"></path>
                    <path d="M134.298947,49.0913305 C134.29299,49.5747329 134.487862,50.0389826 134.837178,50.3735768 C135.186494,50.708171 135.65901,50.8831819 136.142256,50.8569528 C136.686131,50.8531026 137.219325,50.705722 137.68782,50.4297425 L138.039699,51.3112017 C137.411947,51.750325 136.662261,51.9819866 135.89594,51.9736481 C133.830677,51.9736481 132.918496,50.4027039 132.918496,48.7290129 C132.918496,46.9769099 133.944361,45.5519742 135.606316,45.5519742 C137.268271,45.5519742 138.256241,46.8092704 138.256241,48.7154936 L138.256241,49.0913305 L134.298947,49.0913305 Z M135.571128,46.601073 C134.759098,46.601073 134.285414,47.3148927 134.285414,48.0936052 L136.843308,48.0936052 C136.843308,47.3662661 136.421053,46.601073 135.571128,46.601073 Z" id="Shape" fill="#00CC99" fill-rule="nonzero"></path>
                    <path d="M62.7969925,31.4972961 C62.7969924,44.1604566 55.1605507,55.5766699 43.4486449,60.4223989 C31.7367391,65.268128 18.2559225,62.5890506 9.29248517,53.6344573 C0.329047821,44.679864 -2.35174291,31.2132805 2.50020252,19.5143597 C7.35214796,7.81543892 18.7812831,0.188176755 31.4580451,0.189270386 C48.7665057,0.190763597 62.7969925,14.2074068 62.7969925,31.4972961" id="Shape" fill="#194164" fill-rule="nonzero"></path>
                    <path d="M47.5524812,1.17077253 L53.2366917,1.17077253 C53.9621588,1.17226366 54.5494752,1.76015957 54.5494737,2.48484979 C54.5503584,2.65147882 54.5191128,2.81671908 54.4574436,2.97154506 L36.9717293,46.698412 C36.7724686,47.1976198 36.2889817,47.5253099 35.7509774,47.525794 L29.0679699,47.525794 C28.5378919,47.5236143 28.0609117,47.2038368 27.8580451,46.7146352 L15.4908271,17.6616309 C15.216236,16.9978316 15.526047,16.2367792 16.1864662,15.9527897 C16.3489021,15.8829735 16.5239182,15.8470877 16.7007519,15.8473391 L22.3362406,15.8473391 C22.8680688,15.8480664 23.347366,16.1679659 23.5515789,16.6584979 L27.557594,26.2653219 L31.1657143,36.1317167 C31.3541975,36.6520336 31.8487777,36.9986582 32.4027068,36.9986582 C32.9566358,36.9986582 33.451216,36.6520336 33.6396992,36.1317167 L42.3257143,11.7374678 L46.3371429,2.00356223 C46.5339487,1.50405533 47.0151143,1.17434488 47.5524812,1.17077253 Z" id="Shape" fill="#20D7A4"></path>
                </g>
            </g>
        </g>
    </g>
</svg>