<?xml version="1.0" encoding="UTF-8"?>
<svg width="482px" height="319px" viewBox="0 0 482 319" version="1.1" xmlns="http://www.w3.org/2000/svg" xmlns:xlink="http://www.w3.org/1999/xlink">
    <!-- Generator: Sketch 51.1 (57501) - http://www.bohemiancoding.com/sketch -->
    <title>Certificateur</title>
    <desc>Created with Sketch.</desc>
    <defs>
        <linearGradient x1="50%" y1="0%" x2="50%" y2="100%" id="linearGradient-1">
            <stop stop-color="#20D7A4" offset="0%"></stop>
            <stop stop-color="#0072CF" offset="100%"></stop>
        </linearGradient>
    </defs>
    <g id="WebDesign" stroke="none" stroke-width="1" fill="none" fill-rule="evenodd">
        <g id="C'est-quoi-un-certificateur" transform="translate(-811.000000, -443.000000)">
            <g id="Certificateur" transform="translate(809.000000, 443.000000)">
                <path d="M339.280544,214.113909 C270.759615,179.473852 94.857027,139.999032 27.8075578,228.651527 C-10.2299949,278.944602 151.489906,213.644706 198.553509,284.13025 C228.238451,328.588368 327.892438,319.815576 372.765044,335.119002 C423.840262,352.537776 485.849509,419.126149 481.117601,375.940889 C472.228431,294.814818 407.801474,248.753966 339.280544,214.113909 Z" id="Path-18" fill="url(#linearGradient-1)" transform="translate(251.720317, 282.477493) scale(-1, 1) rotate(-18.000000) translate(-251.720317, -282.477493) "></path>
                <g id="Lauriers" transform="translate(129.000000, 0.000000)" fill="#2E5266">
                    <path d="M122,181.96385 C122,181.96385 121.065689,182.011817 119.315288,181.997244 C117.56549,181.985708 114.998395,181.886738 111.740671,181.606223 C108.482946,181.331172 104.535798,180.83693 100.055446,179.98324 C95.5781106,179.125299 90.5506835,177.956484 85.2029727,176.203566 C79.8576746,174.455505 74.1733946,172.185879 68.4209563,169.234394 C62.6624863,166.299302 56.8871275,162.593097 51.3663068,158.175888 C45.8750414,153.724069 40.6763137,148.517531 36.0976455,142.665563 C31.5123424,136.820882 27.5109084,130.370846 24.2411205,123.572897 C23.4515701,121.861874 22.7066544,120.128385 21.938215,118.410075 C21.7476131,117.969265 21.556408,117.569136 21.3670124,117.096753 C21.2005373,116.643192 21.0491415,116.192667 20.8983488,115.74457 C20.6021921,114.846556 20.3295589,113.944899 20.0635607,113.042028 C19.0333453,109.421434 18.2063983,105.766839 17.5778945,102.106779 C16.9481844,98.4473256 16.5187269,94.7848368 16.2617762,91.1557427 C15.9861272,87.5284701 15.9481275,83.9291277 16.0554919,80.3971818 C16.3039982,73.3345045 17.215389,66.522591 18.8463624,60.2528862 C20.442955,53.9765025 22.6439246,48.2350412 25.1283845,43.1748321 C27.597765,38.0970148 30.4730794,33.7830256 33.1354745,30.073177 C33.8357556,29.1709127 34.5131163,28.2959713 35.1675564,27.4526031 C35.4980939,27.0336513 35.8087268,26.6110564 36.1380579,26.2163917 C36.477643,25.8302274 36.8093868,25.4507421 37.135099,25.0797572 C37.7865233,24.3371804 38.411408,23.6237479 39.0085469,22.9424959 C39.3119418,22.6073344 39.5869876,22.2594223 39.8946046,21.9570484 C40.1973963,21.6498171 40.4929499,21.350479 40.7812654,21.0596415 C41.9339245,19.8962912 42.9641399,18.8586266 43.8592451,17.9539335 C44.8056199,17.1044936 45.6102495,16.3825607 46.2622769,15.7966353 C47.566935,14.6241775 48.2629939,14 48.2629939,14 L48.3818185,14.1420793 C48.3818185,14.1420793 47.6948072,14.7741501 46.4070379,15.9593586 C45.764058,16.5525701 44.9702854,17.2823963 44.0371805,18.1415511 C43.155345,19.052923 42.1414152,20.1015169 41.0056449,21.2751891 C40.7227579,21.5690626 40.4314265,21.8708293 40.132857,22.1798822 C39.8306685,22.4858991 39.5604481,22.83624 39.2624818,23.1738301 C38.6761999,23.8599396 38.0627754,24.5782294 37.4228114,25.3250566 C37.1031309,25.6990773 36.7768156,26.0815985 36.4444686,26.4695843 C36.120566,26.8666778 35.816568,27.2910942 35.4932685,27.7124747 C34.8527013,28.5607003 34.1886105,29.4386775 33.5028055,30.3457993 C30.9001242,34.0696129 28.0959839,38.3896739 25.7068251,43.4595979 C23.3031901,48.5125209 21.1932993,54.2296951 19.6877854,60.4641837 C18.1563352,66.6907789 17.2986265,73.4371173 17.1225007,80.4275407 C17.0489139,83.9224487 17.1188817,87.4829319 17.4246892,91.0689164 C17.7117984,94.6555082 18.1702081,98.2730659 18.8252514,101.88273 C19.4796915,105.493609 20.3307653,109.097202 21.3766632,112.651006 C21.6468836,113.536269 21.9231357,114.419104 22.2198957,115.29526 C22.3718947,115.73182 22.5226873,116.166558 22.6825276,116.58976 C22.8447805,116.983211 23.058906,117.427057 23.2446826,117.844187 C24.0191537,119.533959 24.7701011,121.237696 25.5644768,122.920183 C28.8680424,129.587588 32.8815397,135.887045 37.4523667,141.575074 C42.0274159,147.26189 47.1495409,152.337278 52.56541,156.668268 C53.880322,157.800653 55.2881222,158.789743 56.6543037,159.807371 C58.00239,160.851107 59.4337139,161.746693 60.8185937,162.677494 C62.1889974,163.63319 63.633591,164.43527 65.0269152,165.284103 C66.4075727,166.15358 67.8479442,166.88037 69.2370461,167.655735 C74.846533,170.655187 80.4137979,172.991602 85.6656045,174.807667 C90.9216334,176.61766 95.8459184,177.978343 100.26535,178.941932 C102.47416,179.430709 104.554496,179.830838 106.486451,180.15082 C107.449715,180.328116 108.379201,180.464731 109.266465,180.601345 C110.154332,180.745246 111.002993,180.852717 111.809432,180.957758 C115.035189,181.376103 117.586601,181.56372 119.326145,181.672405 C121.067498,181.775625 121.996984,181.777446 121.996984,181.777446 L122,181.96385" id="Fill-135"></path>
                    <path d="M94.6342447,175.927965 C94.6342447,175.927965 77.4174006,178.216145 79.1181969,157 C79.1181969,157 97.8225258,163.447661 94.6342447,175.927965" id="Fill-136"></path>
                    <path d="M92,182.912005 C92,182.912005 78.8979002,172.773942 69,190.330437 C69,190.330437 87.9977029,194.29916 92,182.912005" id="Fill-137"></path>
                    <path d="M73.674993,168 C73.674993,168 56.9220853,166.191637 63.5525367,146 C63.5525367,146 79.6357701,156.633498 73.674993,168" id="Fill-138"></path>
                    <path d="M70,172.980565 C70,172.980565 59.9950265,160.512744 46,175.029784 C46,175.029784 63.2461353,182.919982 70,172.980565" id="Fill-139"></path>
                    <path d="M55.0380665,155 C55.0380665,155 40.0855511,150.891696 48.6453325,132 C48.6453325,132 61.8756687,144.674634 55.0380665,155" id="Fill-140"></path>
                    <path d="M50,160.931486 C50,160.931486 42.0130836,146.113951 26,159.80809 C26,159.80809 41.8284824,170.700487 50,160.931486" id="Fill-141"></path>
                    <path d="M38.750647,139 C38.750647,139 25.6229081,130.150027 39.0369129,115 C39.0369129,115 48.141744,131.434177 38.750647,139" id="Fill-142"></path>
                    <path d="M33,143.143776 C33,143.143776 29.813468,125.789932 10,134.394155 C10,134.394155 22.0286889,150.315248 33,143.143776" id="Fill-143"></path>
                    <path d="M26.5942667,119 C26.5942667,119 15.2912959,106.911013 32.7732956,96 C32.7732956,96 38.0874991,114.285673 26.5942667,119" id="Fill-144"></path>
                    <path d="M20.9885732,121.461262 C20.9885732,121.461262 22.1520017,105.446659 1,108.352503 C1,108.352503 8.69107139,125.188743 20.9885732,121.461262" id="Fill-145"></path>
                    <path d="M21.6993604,100 C21.6993604,100 13.5387519,86.1280689 32.9835918,80 C32.9835918,80 33.9172207,98.2622363 21.6993604,100" id="Fill-146"></path>
                    <path d="M15.4745617,100.970091 C15.4745617,100.970091 20.4146193,86.736631 0,85 C0,85 3.11445401,101.80208 15.4745617,100.970091" id="Fill-147"></path>
                    <path d="M19.6843762,78.9911284 C19.6843762,78.9911284 14.0704715,65.2914348 35,63 C35,63 32.427467,79.436022 19.6843762,78.9911284" id="Fill-148"></path>
                    <path d="M14.56622,78 C14.56622,78 22.0034863,64.3178114 3.00072366,59 C3.00072366,59 2.69645173,76.7048987 14.56622,78" id="Fill-149"></path>
                    <path d="M23.0198094,59.532888 C23.0198094,59.532888 21.7283832,43.7899172 40,46.2637492 C40,46.2637492 33.6802673,62.9750992 23.0198094,59.532888" id="Fill-150"></path>
                    <path d="M16.9196704,58 C16.9196704,58 26.8919848,46.1557293 10.9505895,36 C10.9505895,36 6.48264735,53.6894199 16.9196704,58" id="Fill-151"></path>
                    <path d="M32,39.7197041 C32,39.7197041 33.9731859,25.3333146 51,31.5656253 C51,31.5656253 41.5258738,45.1464907 32,39.7197041" id="Fill-152"></path>
                    <path d="M26.2540245,36 C26.2540245,36 37.7221777,28.027358 25.0045482,16 C25.0045482,16 17.4756831,30.1168389 26.2540245,36" id="Fill-153"></path>
                    <path d="M42,23.6324564 C42,23.6324564 46.6672355,9.86141634 62,19.3147545 C62,19.3147545 50.2063627,30.8321376 42,23.6324564" id="Fill-154"></path>
                    <path d="M38.9643698,20 C38.9643698,20 52.703926,14.3813333 41.782479,0 C41.782479,0 30.9260065,12.4623388 38.9643698,20" id="Fill-155"></path>
                    <path d="M52.0013013,13.0861675 C52.0013013,13.0861675 61.9372487,19.157864 72,0 C51.4678915,0.863201981 52.0013013,13.0861675 52.0013013,13.0861675" id="Fill-156"></path>
                    <path d="M101.003619,181.777446 C101.003619,181.777446 101.932496,181.775625 103.67384,181.672405 C105.413978,181.56372 107.965375,181.376103 111.191113,180.957758 C111.996944,180.852717 112.846807,180.745246 113.733463,180.601345 C114.621325,180.464731 115.550805,180.328116 116.514063,180.15082 C118.446008,179.830838 120.526332,179.430709 122.73513,178.941932 C127.154536,177.978343 132.078793,176.61766 137.334189,174.807667 C142.585965,172.991602 148.153802,170.655187 153.76386,167.655735 C155.152351,166.88037 156.592111,166.15358 157.973364,165.284103 C159.36668,164.43527 160.811265,163.63319 162.182265,162.677494 C163.566533,161.746693 164.997849,160.851107 166.345928,159.807371 C167.712101,158.789743 169.119894,157.800653 170.434798,156.668268 C175.850033,152.337278 180.972129,147.26189 185.547152,141.575074 C190.118556,135.887045 194.132031,129.587588 197.436181,122.920183 C198.229949,121.237696 198.980892,119.533959 199.755962,117.844187 C199.941134,117.427057 200.155258,116.983211 200.31751,116.58976 C200.47735,116.166558 200.628142,115.73182 200.779537,115.29526 C201.077501,114.419104 201.353149,113.536269 201.623367,112.651006 C202.669259,109.097202 203.520328,105.493609 204.174162,101.88273 C204.830407,98.2730659 205.288211,94.6555082 205.575319,91.0689164 C205.881125,87.4829319 205.951092,83.9224487 205.876903,80.4275407 C205.701381,73.4371173 204.84428,66.6907789 203.312236,60.4641837 C201.80673,54.2296951 199.696851,48.5125209 197.29323,43.4595979 C194.904085,38.3896739 192.100564,34.0696129 189.496691,30.3457993 C188.811493,29.4386775 188.147406,28.5607003 187.506842,27.7124747 C187.182942,27.2910942 186.879549,26.8666778 186.555648,26.4695843 C186.223303,26.0815985 185.896989,25.6990773 185.577311,25.3250566 C184.93735,24.5782294 184.323929,23.8599396 183.737047,23.1738301 C183.439686,22.83624 183.169467,22.4858991 182.86728,22.1798822 C182.568713,21.8708293 182.277383,21.5690626 181.994497,21.2751891 C180.858734,20.1015169 179.84481,19.052923 178.962979,18.1415511 C178.029879,17.2823963 177.236111,16.5525701 176.592532,15.9593586 C175.30477,14.7741501 174.618366,14.1420793 174.618366,14.1420793 L174.737793,14 C174.737793,14 175.433245,14.6241775 176.737895,15.7966353 C177.389919,16.3825607 178.194544,17.1044936 179.140913,17.9539335 C180.036014,18.8586266 181.066223,19.8962912 182.218876,21.0596415 C182.506586,21.350479 182.802741,21.6498171 183.106135,21.9570484 C183.413147,22.2594223 183.688191,22.6073344 183.991584,22.9424959 C184.588719,23.6237479 185.213601,24.3371804 185.865021,25.0797572 C186.190732,25.4507421 186.523077,25.8302274 186.862057,26.2163917 C187.191989,26.6110564 187.502017,27.0336513 187.832553,27.4526031 C188.486386,28.2959713 189.164346,29.1709127 189.864623,30.073177 C192.527003,33.7830256 195.401698,38.0970148 197.871667,43.1748321 C200.356716,48.2350412 202.55707,53.9765025 204.154257,60.2528862 C205.785221,66.522591 206.696004,73.3345045 206.944508,80.3971818 C207.051872,83.9291277 207.013873,87.5284701 206.738225,91.1557427 C206.481276,94.7848368 206.051821,98.4473256 205.422718,102.106779 C204.793614,105.766839 203.967275,109.421434 202.937066,113.042028 C202.670466,113.944899 202.398437,114.846556 202.101679,115.74457 C201.95149,116.192667 201.799492,116.643192 201.633018,117.096753 C201.443624,117.569136 201.25242,117.969265 201.061819,118.410075 C200.293384,120.128385 199.548472,121.861874 198.758926,123.572897 C195.489157,130.370846 191.487746,136.820882 186.902469,142.665563 C182.32443,148.517531 177.124525,153.724069 171.633894,158.175888 C166.113105,162.593097 160.337779,166.299302 154.579342,169.234394 C148.826936,172.185879 143.143292,174.455505 137.797421,176.203566 C132.449741,177.956484 127.421739,179.125299 122.944429,179.98324 C118.464706,180.83693 114.516977,181.331172 111.259874,181.606223 C108.002168,181.886738 105.435088,181.985708 103.684697,181.997244 C101.934909,182.011817 101,181.96385 101,181.96385 L101.003619,181.777446" id="Fill-157"></path>
                    <path d="M129.365755,175.927965 C129.365755,175.927965 146.582599,178.216145 144.881803,157 C144.881803,157 126.177474,163.447661 129.365755,175.927965" id="Fill-158"></path>
                    <path d="M131,182.912005 C131,182.912005 144.101478,172.773942 154,190.330437 C154,190.330437 135.002297,194.29916 131,182.912005" id="Fill-159"></path>
                    <path d="M150.32508,168 C150.32508,168 167.078396,166.191637 160.447169,146 C160.447169,146 144.364157,156.633498 150.32508,168" id="Fill-160"></path>
                    <path d="M155,172.980565 C155,172.980565 165.004973,160.512744 179,175.029784 C179,175.029784 161.753865,182.919982 155,172.980565" id="Fill-161"></path>
                    <path d="M169.961934,155 C169.961934,155 184.914449,150.891696 176.354667,132 C176.354667,132 163.124331,144.674634 169.961934,155" id="Fill-162"></path>
                    <path d="M174,160.931486 C174,160.931486 181.986303,146.113951 198,159.80809 C198,159.80809 182.171518,170.700487 174,160.931486" id="Fill-163"></path>
                    <path d="M183.249353,139 C183.249353,139 196.377092,130.150027 182.963087,115 C182.963087,115 173.858256,131.434177 183.249353,139" id="Fill-164"></path>
                    <path d="M191,143.143776 C191,143.143776 194.186985,125.789932 214,134.394155 C214,134.394155 201.970714,150.315248 191,143.143776" id="Fill-165"></path>
                    <path d="M195.405733,119 C195.405733,119 206.708704,106.911013 189.226704,96 C189.226704,96 183.912501,114.285673 195.405733,119" id="Fill-166"></path>
                    <path d="M202.011409,121.461262 C202.011409,121.461262 200.848638,105.446659 222,108.352503 C222,108.352503 214.308539,125.188743 202.011409,121.461262" id="Fill-167"></path>
                    <path d="M202.300314,100 C202.300314,100 210.461789,86.1280689 191.01641,80 C191.01641,80 190.082755,98.2622363 202.300314,100" id="Fill-168"></path>
                    <path d="M208.525481,100.970091 C208.525481,100.970091 203.585232,86.736631 224,85 C224,85 220.885425,101.80208 208.525481,100.970091" id="Fill-169"></path>
                    <path d="M205.31568,78.9911284 C205.31568,78.9911284 210.929358,65.2914348 190,63 C190,63 192.573105,79.436022 205.31568,78.9911284" id="Fill-170"></path>
                    <path d="M209.43378,78 C209.43378,78 201.996514,64.3178114 220.999276,59 C220.999276,59 221.303548,76.7048987 209.43378,78" id="Fill-171"></path>
                    <path d="M200.980191,59.532888 C200.980191,59.532888 202.271617,43.7899172 184,46.2637492 C184,46.2637492 190.319143,62.9750992 200.980191,59.532888" id="Fill-172"></path>
                    <path d="M207.080561,58 C207.080561,58 197.107695,46.1557293 213.049618,36 C213.049618,36 217.516951,53.6894199 207.080561,58" id="Fill-173"></path>
                    <path d="M193,39.7197041 C193,39.7197041 191.026814,25.3333146 174,31.5656253 C174,31.5656253 183.474742,45.1464907 193,39.7197041" id="Fill-174"></path>
                    <path d="M198.746237,36 C198.746237,36 187.277493,28.027358 199.995714,16 C199.995714,16 207.523985,30.1168389 198.746237,36" id="Fill-175"></path>
                    <path d="M181,23.6324564 C181,23.6324564 176.332765,9.86141634 161,19.3147545 C161,19.3147545 172.793637,30.8321376 181,23.6324564" id="Fill-176"></path>
                    <path d="M185.035906,20 C185.035906,20 171.295718,14.3813333 182.217798,0 C182.217798,0 193.07363,12.4623388 185.035906,20" id="Fill-177"></path>
                    <path d="M171.998699,13.0861675 C171.998699,13.0861675 162.062751,19.157864 152,0 C172.532108,0.863201981 171.998699,13.0861675 171.998699,13.0861675" id="Fill-178"></path>
                </g>
                <g id="Home" transform="translate(114.000000, 83.000000)">
                    <polygon id="Rectangle" fill="#E8E8E8" points="0 88 25.5 68 111 68 111 148 0 148"></polygon>
                    <rect id="Rectangle-5" fill="#CDCCCC" x="16" y="111" width="73" height="37"></rect>
                    <polygon id="Rectangle" fill="#2E5266" points="0 88 25.5 68 111 68 111 88"></polygon>
                    <polygon id="Rectangle" fill="#E8E8E8" points="143 68 228.5 68 254 88 254 148 143 148"></polygon>
                    <polygon id="Rectangle" fill="#2E5266" points="143 68 228.5 68 254 88 143 88"></polygon>
                    <rect id="Rectangle-5" fill="#CDCCCC" x="167" y="111" width="73" height="37"></rect>
                    <polygon id="Rectangle" fill="#F2F2F2" points="70 40 125.5 0 181 40 181 148 70 148"></polygon>
                    <path d="M158,83 C158,65.326888 143.673112,51 126,51 C108.326888,51 94,65.326888 94,83 C111.182617,83 137.076172,83 158,83 Z" id="Oval" fill="#CDCCCC"></path>
                    <rect id="Rectangle-12" fill="#CDCCCC" x="94" y="59" width="64" height="29" rx="4"></rect>
                    <rect id="Rectangle-11" fill="#D9D9D9" x="89" y="85" width="73" height="3" rx="1.5"></rect>
                    <polygon id="Rectangle" fill="#2E5266" points="70 40 125.5 0 181 40"></polygon>
                    <rect id="Rectangle-5" fill="#CDCCCC" x="108" y="110" width="36" height="37" rx="10.5"></rect>
                    <rect id="Rectangle-3" fill="#FFFFFF" x="102" y="142" width="48" height="9"></rect>
                    <rect id="Rectangle-3" fill="#E1E1E1" x="107" y="137" width="38" height="5"></rect>
                </g>
            </g>
        </g>
    </g>
</svg>