<?xml version="1.0" encoding="UTF-8"?>
<svg width="192px" height="164px" viewBox="0 0 192 164" version="1.1" xmlns="http://www.w3.org/2000/svg" xmlns:xlink="http://www.w3.org/1999/xlink">
    <!-- Generator: Sketch 49.3 (51167) - http://www.bohemiancoding.com/sketch -->
    <title>Laurrier</title>
    <desc>Created with Sketch.</desc>
    <defs></defs>
    <g id="WebDesign" stroke="none" stroke-width="1" fill="none" fill-rule="evenodd" opacity="0.100260417">
        <g id="Homepage-320" transform="translate(-59.000000, -4988.000000)" fill="#2E5266">
            <g id="80%" transform="translate(-2.000000, 4988.000000)">
                <g id="Laurrier" transform="translate(61.000000, 0.000000)">
                    <path d="M106,155.968799 C106,155.968799 105.189088,156.010199 103.669872,155.997622 C102.15118,155.987665 99.9231356,155.902244 97.0956765,155.660133 C94.2682175,155.422737 90.8423904,154.99616 86.9537835,154.259344 C83.0677941,153.51886 78.7043668,152.510061 74.0629574,150.997125 C69.4236421,149.488382 64.490116,147.529479 59.4974338,144.982066 C54.4995164,142.448803 49.4869409,139.249994 44.6952851,135.437522 C39.9292812,131.595179 35.417178,127.10144 31.4432395,122.050635 C27.4635424,117.006118 23.9905998,111.439123 21.1526706,105.571846 C20.4674005,104.09507 19.8208698,102.598904 19.1539225,101.115839 C18.9884944,100.735378 18.8225428,100.390028 18.6581617,99.9823162 C18.5136739,99.59085 18.3822738,99.202004 18.2513971,98.8152543 C17.9943554,98.0401826 17.7577304,97.2619666 17.526864,96.4827025 C16.6327148,93.3577854 15.9149872,90.2035214 15.3694934,87.044541 C14.8229525,83.8860846 14.4502158,80.7250079 14.227202,77.5927541 C13.9879595,74.4620724 13.9549786,71.3554971 14.0481628,68.3070915 C14.2638475,62.2113283 15.0548659,56.3319982 16.4704277,50.9206458 C17.8561496,45.5035289 19.7664252,40.5481011 21.9227488,36.1806586 C24.0659847,31.7980187 26.5615406,28.0746352 28.8722987,24.8726825 C29.4800898,24.0939425 30.0679877,23.3387848 30.6359923,22.6108777 C30.9228739,22.2492824 31.1924798,21.8845428 31.4783144,21.5439095 C31.7730486,21.210613 32.0609773,20.883081 32.3436708,20.5628857 C32.9090579,19.9219711 33.4514107,19.306211 33.9696823,18.7182256 C34.2330061,18.4289494 34.4717251,18.128668 34.7387134,17.8676906 C35.0015137,17.6025207 35.258032,17.3441634 35.5082681,17.0931429 C36.5086892,16.0890609 37.4028384,15.1934574 38.1797222,14.4126212 C39.001104,13.6794736 39.6994618,13.0563768 40.2653724,12.5506674 C41.3977172,11.5387246 42.0018438,11 42.0018438,11 L42.1049746,11.122628 C42.1049746,11.122628 41.5087006,11.6681652 40.391014,12.6911131 C39.832956,13.2031111 39.1440213,13.8330206 38.3341566,14.574553 C37.56879,15.3611538 36.6887754,16.2661902 35.7030126,17.2791811 C35.457488,17.5328219 35.2046343,17.7932753 34.9454985,18.0600173 C34.6832217,18.3241391 34.4486908,18.6265167 34.1900785,18.9178891 C33.6812301,19.5100669 33.1488239,20.1300195 32.5933835,20.7746024 C32.315925,21.0974179 32.0327079,21.4275701 31.7442558,21.7624388 C31.4631327,22.1051683 31.1992854,22.4714801 30.9186859,22.8351716 C30.3627219,23.5672711 29.7863412,24.3250491 29.1911142,25.1079815 C26.9321833,28.3219873 24.4984012,32.0506114 22.4247916,36.4264386 C20.3386179,40.7875925 18.5073918,45.7220583 17.2007194,51.1030157 C15.8715362,56.4771604 15.1271098,62.2998929 14.9742459,68.333294 C14.9103781,71.3497325 14.9711049,74.4227686 15.2365227,77.5178148 C15.4857118,80.613385 15.8835768,83.7356819 16.452105,86.8511661 C17.0201096,89.9676984 17.7587774,93.0779421 18.6665378,96.1452136 C18.9010688,96.9092802 19.1408348,97.6712506 19.3984,98.4274564 C19.5303237,98.8042492 19.6612003,99.1794698 19.7999296,99.5447335 C19.9407529,99.8843187 20.1265977,100.2674 20.2878377,100.627423 C20.9600202,102.085858 21.6117859,103.556345 22.301244,105.008491 C25.1684896,110.763097 28.6519024,116.200128 32.6190353,121.109439 C36.5898327,126.017702 41.0354506,130.398246 45.7360162,134.136303 C46.8772606,135.113658 48.0991249,135.967338 49.2848673,136.845648 C50.4549046,137.746492 51.6971857,138.519467 52.8991568,139.322837 C54.0885637,140.147694 55.342362,140.839966 56.5516622,141.572589 C57.7499688,142.32303 59.0001025,142.95032 60.2057382,143.619533 C65.0743494,146.208346 69.9063151,148.224895 74.464487,149.792332 C79.0263233,151.354528 83.3002311,152.528927 87.1359638,153.360596 C89.0530449,153.782457 90.8586191,154.127807 92.5354107,154.403982 C93.3714507,154.557005 94.1781743,154.674916 94.9482525,154.792828 C95.7188542,154.917028 96.455428,155.009785 97.1553563,155.100446 C99.9550695,155.461517 102.169502,155.623449 103.679295,155.717254 C105.190659,155.806343 105.997382,155.807915 105.997382,155.807915 L106,155.968799" id="Fill-135"></path>
                    <path d="M80.7028238,149.939339 C80.7028238,149.939339 66.714138,151.866227 68.096035,134 C68.096035,134 83.2933022,139.42961 80.7028238,149.939339" id="Fill-136"></path>
                    <path d="M79,156.647277 C79,156.647277 68.1765262,147.430856 60,163.391307 C60,163.391307 75.6937546,166.999237 79,156.647277" id="Fill-137"></path>
                    <path d="M62.8788403,144 C62.8788403,144 48.703303,142.438232 54.3136849,125 C54.3136849,125 67.9225747,134.183476 62.8788403,144" id="Fill-138"></path>
                    <path d="M59,148.482508 C59,148.482508 50.6625221,137.26147 39,150.326805 C39,150.326805 53.3717794,157.427983 59,148.482508" id="Fill-139"></path>
                    <path d="M47.2164241,133 C47.2164241,133 33.6232283,129.427562 41.4048478,113 C41.4048478,113 53.4324261,124.021421 47.2164241,133" id="Fill-140"></path>
                    <path d="M42,138.301351 C42,138.301351 35.3442363,124.830865 22,137.280082 C22,137.280082 35.190402,147.182261 42,138.301351" id="Fill-141"></path>
                    <path d="M33.1755823,119 C33.1755823,119 21.3606173,111.625022 33.4332217,99 C33.4332217,99 41.6275696,112.695147 33.1755823,119" id="Fill-142"></path>
                    <path d="M27,123.429349 C27,123.429349 24.3676475,108.745327 8,116.025823 C8,116.025823 17.936743,129.497518 27,123.429349" id="Fill-143"></path>
                    <path d="M23.2675152,104 C23.2675152,104 12.9920872,93.4878378 28.8848142,84 C28.8848142,84 33.7159083,99.900585 23.2675152,104" id="Fill-144"></path>
                    <path d="M17.9902872,105.499743 C17.9902872,105.499743 18.9792015,90.6290401 1,93.3273246 C1,93.3273246 7.53741068,108.960976 17.9902872,105.499743" id="Fill-145"></path>
                    <path d="M18.4379204,86 C18.4379204,86 11.53279,74.2088586 27.9861161,69 C27.9861161,69 28.7761098,84.5229009 18.4379204,86" id="Fill-146"></path>
                    <path d="M12.5730814,85.9738297 C12.5730814,85.9738297 16.5868782,73.5195521 0,72 C0,72 2.53049388,86.7018203 12.5730814,85.9738297" id="Fill-147"></path>
                    <path d="M16.5560557,66.9922374 C16.5560557,66.9922374 11.9947581,55.0050054 29,53 C29,53 26.909817,67.3815192 16.5560557,66.9922374" id="Fill-148"></path>
                    <path d="M11.7868015,67 C11.7868015,67 18.079873,55.478157 2.00061233,51 C2.00061233,51 1.74315146,65.9093884 11.7868015,67" id="Fill-149"></path>
                    <path d="M20.0174788,49.6329834 C20.0174788,49.6329834 18.8779851,37.2635064 35,39.2072316 C35,39.2072316 29.4237653,52.337578 20.0174788,49.6329834" id="Fill-150"></path>
                    <path d="M14.2277033,49 C14.2277033,49 23.2027864,39.3092331 8.85553056,31 C8.85553056,31 4.83438261,45.4731617 14.2277033,49" id="Fill-151"></path>
                    <path d="M26,34.8360947 C26,34.8360947 27.6616302,21.7575587 42,27.4232957 C42,27.4232957 34.0217885,39.769537 26,34.8360947" id="Fill-152"></path>
                    <path d="M21.7813551,31 C21.7813551,31 31.9752691,24.2232543 20.6707095,14 C20.6707095,14 13.978385,25.9993131 21.7813551,31" id="Fill-153"></path>
                    <path d="M36,20.1059651 C36,20.1059651 39.9671502,9.08913307 53,16.6518036 C53,16.6518036 42.9754083,25.8657101 36,20.1059651" id="Fill-154"></path>
                    <path d="M32.3714959,17 C32.3714959,17 43.3631408,12.2241333 34.6259832,0 C34.6259832,0 25.9408052,10.5929879 32.3714959,17" id="Fill-155"></path>
                    <path d="M44.0011061,10.2819887 C44.0011061,10.2819887 52.4466614,15.0526074 61,0 C43.5477078,0.678230128 44.0011061,10.2819887 44.0011061,10.2819887" id="Fill-156"></path>
                    <path d="M86.003141,155.807915 C86.003141,155.807915 86.8093366,155.806343 88.3206915,155.717254 C89.8309994,155.623449 92.0454196,155.461517 94.8451169,155.100446 C95.5445177,155.009785 96.2821343,154.917028 97.0516846,154.792828 C97.8222819,154.674916 98.6290009,154.557005 99.4650362,154.403982 C101.141818,154.127807 102.947382,153.782457 104.864452,153.360596 C108.700163,152.528927 112.974047,151.354528 117.535334,149.792332 C122.093479,148.224895 126.925941,146.208346 131.795048,143.619533 C133.000154,142.95032 134.249757,142.32303 135.44858,141.572589 C136.657873,140.839966 137.911664,140.147694 139.101588,139.322837 C140.303029,138.519467 141.545303,137.746492 142.715333,136.845648 C143.901069,135.967338 145.122927,135.113658 146.264164,134.136303 C150.96418,130.398246 155.409772,126.017702 159.380547,121.109439 C163.348181,116.200128 166.831574,110.763097 169.699327,105.008491 C170.388257,103.556345 171.040019,102.085858 171.712722,100.627423 C171.873437,100.2674 172.059281,99.8843187 172.200103,99.5447335 C172.338832,99.1794698 172.469708,98.8042492 172.601107,98.4274564 C172.859718,97.6712506 173.098959,96.9092802 173.333489,96.1452136 C174.241244,93.0779421 174.979908,89.9676984 175.547385,86.8511661 C176.116957,83.7356819 176.514297,80.613385 176.763484,77.5178148 C177.028901,74.4227686 177.089627,71.3497325 177.025236,68.333294 C176.872897,62.2998929 176.128998,56.4771604 174.799299,51.1030157 C173.492634,45.7220583 171.661418,40.7875925 169.575256,36.4264386 C167.501659,32.0506114 165.068414,28.3219873 162.808449,25.1079815 C162.213749,24.3250491 161.637371,23.5672711 161.08141,22.8351716 C160.800289,22.4714801 160.536967,22.1051683 160.255845,21.7624388 C159.967395,21.4275701 159.684179,21.0974179 159.406722,20.7746024 C158.851285,20.1300195 158.318882,19.5100669 157.809513,18.9178891 C157.551426,18.6265167 157.316896,18.3241391 157.054621,18.0600173 C156.795486,17.7932753 156.542634,17.5328219 156.297111,17.2791811 C155.311354,16.2661902 154.431344,15.3611538 153.665982,14.574553 C152.856122,13.8330206 152.167191,13.2031111 151.608613,12.6911131 C150.490932,11.6681652 149.895185,11.122628 149.895185,11.122628 L149.998839,11 C149.998839,11 150.602439,11.5387246 151.734777,12.5506674 C152.300684,13.0563768 152.999038,13.6794736 153.820415,14.4126212 C154.597295,15.1934574 155.491439,16.0890609 156.491854,17.0931429 C156.741566,17.3441634 156.998606,17.6025207 157.261928,17.8676906 C157.528391,18.128668 157.767109,18.4289494 158.030431,18.7182256 C158.5487,19.306211 159.09105,19.9219711 159.656434,20.5628857 C159.939126,20.883081 160.227576,21.210613 160.521785,21.5439095 C160.808141,21.8845428 161.077222,22.2492824 161.364102,22.6108777 C161.93158,23.3387848 162.519998,24.0939425 163.127786,24.8726825 C165.438531,28.0746352 167.933549,31.7980187 170.077296,36.1806586 C172.234131,40.5481011 174.143872,45.5035289 175.53011,50.9206458 C176.945664,56.3319982 177.736154,62.2113283 177.951838,68.3070915 C178.045021,71.3554971 178.01204,74.4620724 177.772799,77.5927541 C177.549787,80.7250079 177.177052,83.8860846 176.631038,87.044541 C176.085024,90.2035214 175.367824,93.3577854 174.47368,96.4827025 C174.242291,97.2619666 174.006191,98.0401826 173.748627,98.8152543 C173.618275,99.202004 173.486352,99.59085 173.341865,99.9823162 C173.177485,100.390028 173.011534,100.735378 172.846107,101.115839 C172.179163,102.598904 171.532636,104.09507 170.84737,105.571846 C168.009457,111.439123 164.536534,117.006118 160.55686,122.050635 C156.583467,127.10144 152.070343,131.595179 147.30489,135.437522 C142.513261,139.249994 137.500714,142.448803 132.502825,144.982066 C127.510171,147.529479 122.577197,149.488382 117.937384,150.997125 C113.296001,152.510061 108.932075,153.51886 105.046108,154.259344 C101.158047,154.99616 97.7317158,155.422737 94.9047963,155.660133 C92.0773533,155.902244 89.849322,155.987665 88.3301145,155.997622 C86.8114306,156.010199 86,155.968799 86,155.968799 L86.003141,155.807915" id="Fill-157"></path>
                    <path d="M111.297176,149.939339 C111.297176,149.939339 125.285862,151.866227 123.903965,134 C123.903965,134 108.706698,139.42961 111.297176,149.939339" id="Fill-158"></path>
                    <path d="M113,156.647277 C113,156.647277 123.82296,147.430856 132,163.391307 C132,163.391307 116.306245,166.999237 113,156.647277" id="Fill-159"></path>
                    <path d="M129.121221,144 C129.121221,144 143.297104,142.438232 137.686066,125 C137.686066,125 124.077364,134.183476 129.121221,144" id="Fill-160"></path>
                    <path d="M132,148.482508 C132,148.482508 140.337478,137.26147 152,150.326805 C152,150.326805 137.628221,157.427983 132,148.482508" id="Fill-161"></path>
                    <path d="M144.783576,133 C144.783576,133 158.376772,129.427562 150.595152,113 C150.595152,113 138.567574,124.021421 144.783576,133" id="Fill-162"></path>
                    <path d="M149,138.301351 C149,138.301351 155.655253,124.830865 169,137.280082 C169,137.280082 155.809598,147.182261 149,138.301351" id="Fill-163"></path>
                    <path d="M158.824418,119 C158.824418,119 170.639383,111.625022 158.566778,99 C158.566778,99 150.37243,112.695147 158.824418,119" id="Fill-164"></path>
                    <path d="M164,123.429349 C164,123.429349 166.632726,108.745327 183,116.025823 C183,116.025823 173.062764,129.497518 164,123.429349" id="Fill-165"></path>
                    <path d="M168.732485,104 C168.732485,104 179.007913,93.4878378 163.115186,84 C163.115186,84 158.284092,99.900585 168.732485,104" id="Fill-166"></path>
                    <path d="M174.009698,105.499743 C174.009698,105.499743 173.021342,90.6290401 191,93.3273246 C191,93.3273246 184.462258,108.960976 174.009698,105.499743" id="Fill-167"></path>
                    <path d="M173.561804,86 C173.561804,86 180.467668,74.2088586 164.013886,69 C164.013886,69 163.22387,84.5229009 173.561804,86" id="Fill-168"></path>
                    <path d="M179.426953,85.9738297 C179.426953,85.9738297 175.413001,73.5195521 192,72 C192,72 189.469408,86.7018203 179.426953,85.9738297" id="Fill-169"></path>
                    <path d="M175.44399,66.9922374 C175.44399,66.9922374 180.005103,55.0050054 163,53 C163,53 165.090647,67.3815192 175.44399,66.9922374" id="Fill-170"></path>
                    <path d="M180.213199,67 C180.213199,67 173.920127,55.478157 189.999388,51 C189.999388,51 190.256849,65.9093884 180.213199,67" id="Fill-171"></path>
                    <path d="M171.982521,49.6329834 C171.982521,49.6329834 173.122015,37.2635064 157,39.2072316 C157,39.2072316 162.575714,52.337578 171.982521,49.6329834" id="Fill-172"></path>
                    <path d="M177.772505,49 C177.772505,49 168.796925,39.3092331 183.144656,31 C183.144656,31 187.165256,45.4731617 177.772505,49" id="Fill-173"></path>
                    <path d="M165,34.8360947 C165,34.8360947 163.33837,21.7575587 149,27.4232957 C149,27.4232957 156.97873,39.769537 165,34.8360947" id="Fill-174"></path>
                    <path d="M170.218878,31 C170.218878,31 160.024438,24.2232543 171.329523,14 C171.329523,14 178.02132,25.9993131 170.218878,31" id="Fill-175"></path>
                    <path d="M155,20.1059651 C155,20.1059651 151.03285,9.08913307 138,16.6518036 C138,16.6518036 148.024592,25.8657101 155,20.1059651" id="Fill-176"></path>
                    <path d="M158.628725,17 C158.628725,17 147.636574,12.2241333 156.374238,0 C156.374238,0 165.058904,10.5929879 158.628725,17" id="Fill-177"></path>
                    <path d="M146.998894,10.2819887 C146.998894,10.2819887 138.553339,15.0526074 130,0 C147.452292,0.678230128 146.998894,10.2819887 146.998894,10.2819887" id="Fill-178"></path>
                </g>
            </g>
        </g>
    </g>
</svg>