<svg xmlns="http://www.w3.org/2000/svg" width="235" height="80" viewBox="0 0 235 80">
  <g fill="none" fill-rule="evenodd">
    <path fill="#FFF" d="M59.653 70.453l-4.68-10.477a2 2 0 0 0-1.826-1.185H20.142a2 2 0 0 0-1.82 1.173l-4.77 10.5a2 2 0 0 1-1.82 1.173h-9.53A2 2 0 0 1 .377 68.82L29.118 4.696a2 2 0 0 1 1.825-1.182h11.412a2 2 0 0 1 1.825 1.182L72.921 68.82a2 2 0 0 1-1.825 2.818H61.48a2 2 0 0 1-1.826-1.184zM48.07 44.022l-9.587-21.996a2 2 0 0 0-3.667 0l-9.588 21.996a2 2 0 0 0 1.833 2.8h19.176a2 2 0 0 0 1.833-2.8z"/>
    <path fill="#05CFA8" d="M121.255 1.228h8.64a2 2 0 0 1 1.858 2.742l-26.608 66.604a2 2 0 0 1-1.857 1.258H93.13a2 2 0 0 1-1.84-1.218l-18.82-44.27a2 2 0 0 1 1.841-2.782h8.577a2 2 0 0 1 1.846 1.23l6.1 14.633 5.487 15.03a2 2 0 0 0 3.763-.016l13.218-37.153 6.102-14.82a2 2 0 0 1 1.85-1.238z"/>
    <path fill="#FFF" d="M133.502 25.66v43.977a2 2 0 0 0 2 2h7.863a2 2 0 0 0 2-2V46.335c0-8.856 5.737-12.165 11.96-12.165 2.097 0 4.362.678 6.797 2.034a2 2 0 0 0 2.75-.826l3.491-6.735a2 2 0 0 0-.786-2.659c-4.2-2.393-7.766-3.59-10.695-3.59-4.862 0-9.822.876-13.517 6.812l-.609-3.858a2 2 0 0 0-1.975-1.689h-7.28a2 2 0 0 0-2 2zm54.066-.195v44.172a2 2 0 0 1-2 2h-7.864a2 2 0 0 1-2-2V25.465a2 2 0 0 1 2-2h7.864a2 2 0 0 1 2 2zm-12.933-15.333c0-9.245 14.002-9.245 14.002 0s-14.002 9.245-14.002 0zm23.629-4.52v64.025a2 2 0 0 0 2 2h7.767a2 2 0 0 0 2-2V5.612a2 2 0 0 0-2-2h-7.767a2 2 0 0 0-2 2zm21.88 59.894c0 9.246 14.002 9.246 14.002 0 0-9.245-14.002-9.245-14.002 0z"/>
  </g>
</svg>
