<?xml version="1.0" encoding="UTF-8"?>
<svg width="63px" height="50px" viewBox="0 0 63 50" version="1.1" xmlns="http://www.w3.org/2000/svg" xmlns:xlink="http://www.w3.org/1999/xlink">
    <!-- Generator: Sketch 49.3 (51167) - http://www.bohemiancoding.com/sketch -->
    <title>logo-pole-emploi</title>
    <desc>Created with Sketch.</desc>
    <defs></defs>
    <g id="WebDesign" stroke="none" stroke-width="1" fill="none" fill-rule="evenodd">
        <g id="Homepage-320" transform="translate(-224.000000, -733.000000)" fill-rule="nonzero">
            <g id="Head" transform="translate(17.000000, 86.000000)">
                <g id="Initiative-Pole-Emploi" transform="translate(18.000000, 641.000000)">
                    <g id="logo-pole-emploi" transform="translate(189.000000, 6.000000)">
                        <path d="M48.7474261,21.7684662 C49.0013797,20.5175095 48.234787,20.2458371 47.821521,20.1889755 C47.7397953,20.1800294 47.6576652,20.1752847 47.5754543,20.1747601 C47.1820153,20.159749 46.7970074,20.2914483 46.4949688,20.5443609 C46.2078909,20.8065563 45.3766268,21.5868247 44.9491647,21.9659025 C44.5031971,22.3572249 44.0286726,22.7146569 43.5295487,23.0352177 C43.0239532,23.36662 42.4714957,23.6200622 41.8906809,23.7870553 C41.284747,23.9518191 40.6588017,24.0310323 40.030984,24.0223994 C37.9695165,24.0539731 36.0778505,22.8824104 35.1853614,21.0213671 C34.7057939,20.0571628 34.4435597,18.9992546 34.4171914,17.9224063 C34.40834,17.7560552 34.470805,17.593828 34.5888913,17.4764865 C34.7069775,17.359145 34.8694601,17.2978433 35.035513,17.3079845 L45.300914,17.3079845 C46.6842509,17.3079845 47.7347667,17.1073891 48.4445747,16.7393678 C49.0755152,16.4108337 49.4367286,15.6858475 49.443038,14.3701318 C49.4314169,12.9074724 49.055135,11.4708837 48.3483563,10.1907994 C47.6227748,8.82927842 46.5375572,7.72047595 45.067466,6.85175607 C43.5973748,5.98303619 41.8591339,5.55657371 39.7912266,5.55657371 C38.315173,5.53716466 36.8485997,5.79540879 35.4677072,6.31788822 C34.2334488,6.7860178 33.1217462,7.52923843 32.2167866,8.49126741 C31.3135719,9.47304836 30.6272194,10.6344874 30.2025092,11.8998083 C29.7283261,13.300918 29.4931671,14.771988 29.5068974,16.2513052 C29.5068974,19.591928 30.4533081,22.1854517 32.3098503,24.1045329 C34.1663926,26.0236141 36.7690219,26.9807855 40.1887191,26.9823649 C41.4933623,27.0045048 42.7931661,26.8178811 44.0390331,26.4295432 C46.0706613,25.7124544 48.3578204,23.6828089 48.7474261,21.7684662 Z M34.437697,14.2595674 C34.649062,12.5221277 35.1774746,11.1479708 36.0623686,10.1923789 C36.9819643,9.19729975 38.1933699,8.69028324 39.6129859,8.69344222 C41.0909639,8.69344222 42.3354939,9.18624332 43.2582443,10.1718455 C44.1541797,11.1195399 44.6573547,12.5158097 44.8166672,14.2990547 C44.8403275,14.5975784 44.5248572,14.8581944 44.204655,14.8581944 L35.0560186,14.8581944 C34.7168881,14.8566149 34.3856444,14.5881015 34.437697,14.2595674 Z" id="Shape" fill="#004687"></path>
                        <path d="M47.8481013,16.268018 C47.8487457,22.8486027 43.8661255,28.7815771 37.7573991,31.3003022 C31.6486726,33.8190273 24.6169043,32.4274605 19.9411181,27.7745112 C15.2653319,23.1215619 13.8663861,16.123591 16.3966312,10.0438622 C18.9268763,3.96413333 24.8880009,1.08632228e-07 31.500239,7.73818647e-08 C35.8358151,-0.000420470508 39.9939619,1.71334084 43.0598266,4.7642316 C46.1256913,7.81512236 47.8481013,11.9531967 47.8481013,16.268018 Z" id="Shape" fill="#004687"></path>
                        <path d="M47.3340995,20.2526664 C47.134543,20.3090689 46.9502114,20.4083587 46.7944169,20.5433653 C46.5020889,20.8056262 45.6556226,21.5860895 45.2203429,21.965262 C44.7662193,22.3566821 44.2830167,22.7142034 43.7747647,23.0348443 C43.2599227,23.3663293 42.6973618,23.6198349 42.105925,23.7868696 C41.4889097,23.9516746 40.8515169,24.0309076 40.2122175,24.0222725 C38.1130495,24.0538542 36.1867884,22.8819988 35.2779772,21.0204906 C34.7896393,20.0560454 34.5226094,18.997873 34.4957588,17.9207558 C34.4867455,17.7543631 34.5503529,17.5920953 34.6705988,17.4747245 C34.7908446,17.3573537 34.9562988,17.2960368 35.1253884,17.3061804 L45.5785251,17.3061804 C46.3345873,17.3199505 47.0895837,17.2440964 47.8272023,17.0802568 C47.841658,16.8132562 47.8480828,16.5446757 47.8480828,16.2745154 C47.8535317,12.6976893 46.6506638,9.22044727 44.4284873,6.38917348 C43.1435289,5.83779353 41.6658267,5.55657396 39.9793188,5.55657396 C38.4762709,5.53716006 36.9828766,5.79546871 35.5767301,6.31807864 C34.3198993,6.78632515 33.1878656,7.52973143 32.266356,8.49200072 C31.3466231,9.4740269 30.6477185,10.6357561 30.2152411,11.901393 C29.732386,13.3028527 29.4929264,14.7742901 29.5069078,16.2539769 C29.5069078,19.5954341 30.4706266,22.1896057 32.3611217,24.1091662 C34.2516167,26.0287268 36.8906,26.9813976 40.3728373,26.9829775 C41.6571766,27.0001983 42.9366221,26.8238399 44.166677,26.4600355 C45.667984,24.6415494 46.7488174,22.5233817 47.3340995,20.2526664 Z M34.5166394,14.2570019 C34.7318699,12.5191282 35.2699462,11.144628 36.1710233,10.1887975 C37.1074368,9.19346976 38.3409968,8.6863266 39.786575,8.68948637 C41.2915826,8.68948637 42.5588728,9.18241057 43.4984986,10.1682589 C44.4108191,11.1161901 44.9231963,12.5128086 45.0854223,14.2964991 C45.1095152,14.5950974 44.7882756,14.8557784 44.4622174,14.8557784 L35.146269,14.8557784 C34.8009364,14.8541985 34.4636348,14.5856181 34.5166394,14.2570019 Z" id="Shape" fill="#FFFFFF"></path>
                        <path d="M5.58227848,43.9001439 C5.58227848,46.1743449 4.65060833,47.3114453 2.78726803,47.3114453 L1.17220106,47.3114453 L1.17220106,50 L0,50 L0,43.9017254 C0,41.6180355 0.929089345,40.4761905 2.78726803,40.4761905 C4.64544672,40.4761905 5.57711687,41.6175083 5.58227848,43.9001439 Z M4.41007742,43.9001439 C4.41007742,43.2011197 4.30684527,42.6966203 4.10038098,42.3866458 C3.84539757,41.9986505 3.40614477,41.8046528 2.78262259,41.8046528 C2.15910041,41.8046528 1.72552538,41.9986505 1.48189751,42.3866458 C1.27749785,42.7029463 1.17220106,43.2011197 1.17220106,43.9001439 L1.17220106,45.982983 L2.78417107,45.982983 C3.40356397,45.982983 3.84281676,45.7932027 4.10192946,45.413642 C4.30736144,45.0941785 4.41007742,44.5896791 4.41007742,43.9001439 Z" id="Shape" fill="#004687"></path>
                        <path d="M11.9620253,44.2100106 C11.9620253,46.4827019 11.0316456,47.6190476 9.17088608,47.6190476 C7.31012658,47.6190476 6.37974684,46.4827019 6.37974684,44.2100106 C6.37974684,41.9299438 7.31012658,40.7893836 9.17088608,40.7883299 C11.0316456,40.7872763 11.9620253,41.9278365 11.9620253,44.2100106 Z M11.5216456,39.4860367 L10.9913291,40.2193669 L9.11816456,39.1367566 L7.245,40.2193669 L6.71468354,39.4860367 L9.11816456,38.0952381 L11.5216456,39.4860367 Z M10.7773418,44.2100106 C10.7773418,43.5114504 10.6765506,43.0072859 10.4749684,42.6975171 C10.2279008,42.3097793 9.79424051,42.1159104 9.17398734,42.1159104 C8.55373418,42.1159104 8.11697257,42.3097793 7.86370253,42.6975171 C7.66212025,43.0072859 7.56132911,43.5114504 7.56132911,44.2100106 C7.56132911,44.9085708 7.66212025,45.4127353 7.86370253,45.7225041 C8.11800633,46.1018128 8.55476793,46.2914671 9.17398734,46.2914671 C9.79320675,46.2914671 10.2268671,46.1018128 10.4749684,45.7225041 C10.6765506,45.410628 10.7773418,44.9064635 10.7773418,44.2100106 Z" id="Shape" fill="#004687"></path>
                        <path d="M16.7468354,47.6190476 C14.6213516,47.6190476 13.5580605,46.7945984 13.556962,45.1457001 L13.556962,38.0952381 L14.8042421,38.0952381 L14.8042421,45.1504383 C14.7777611,45.4487945 14.8999431,45.7415957 15.1337745,45.9401406 C15.4303536,46.1717866 15.9658437,46.288136 16.7402448,46.289189 L16.7468354,47.6190476 Z" id="Shape" fill="#004687"></path>
                        <path d="M43.8607595,47.6190476 L42.6462924,47.6190476 L42.6462924,44.0443168 C42.6462924,43.3178126 42.5393381,42.7927482 42.3254293,42.4691236 C42.061252,42.0640424 41.606161,41.8620523 40.9601566,41.863153 C40.3141521,41.8642538 39.8628046,42.066244 39.606114,42.4691236 C39.3922053,42.7927482 39.2852509,43.3178126 39.2852509,44.0443168 L39.2852509,47.6190476 L38.0707838,47.6190476 L38.0707838,44.0443168 C38.0707838,43.3178126 37.9638294,42.7927482 37.7499207,42.4691236 C37.4846738,42.0640424 37.0290481,41.8620523 36.3830436,41.863153 C35.7370391,41.8642538 35.2856916,42.066244 35.0290011,42.4691236 C34.8150923,42.7927482 34.7081379,43.3178126 34.7081379,44.0443168 L34.7081379,47.6190476 L33.4936709,47.6190476 L33.4936709,44.0509213 C33.4936709,41.6688682 34.4562604,40.4772912 36.3814393,40.4761905 C37.4092709,40.4761905 38.1723905,40.8350395 38.6707979,41.5527376 C39.1617186,40.8350395 39.9205599,40.4761905 40.947322,40.4761905 C42.872501,40.4761905 43.8377643,41.6677674 43.843112,44.0509213 L43.8607595,47.6190476 Z" id="Shape" fill="#004687"></path>
                        <path d="M50.2405063,43.9001439 C50.2405063,46.1743449 49.3101266,47.3114453 47.4493671,47.3114453 L45.8258544,47.3114453 L45.8258544,50 L44.6582278,50 L44.6582278,43.9017254 C44.6582278,41.6180355 45.5886076,40.4761905 47.4493671,40.4761905 C49.3101266,40.4761905 50.2405063,41.6175083 50.2405063,43.9001439 Z M49.0666772,43.9001439 C49.0666772,43.2011197 48.9633017,42.6966203 48.7565506,42.3866458 C48.5001793,41.9986505 48.0597996,41.8046528 47.4354114,41.8046528 C46.8110232,41.8046528 46.3747785,41.9986505 46.1266772,42.3866458 C45.9199262,42.6966203 45.8165506,43.2011197 45.8165506,43.9001439 L45.8165506,45.982983 L47.4307595,45.982983 C48.0510127,45.982983 48.4913924,45.7932027 48.7518987,45.413642 C48.9617511,45.0941785 49.0661603,44.5896791 49.0651266,43.9001439 L49.0666772,43.9001439 Z" id="Shape" fill="#004687"></path>
                        <path d="M55.0253165,47.6190476 C52.8998326,47.6190476 51.8365415,46.7945984 51.835443,45.1457001 L51.835443,38.0952381 L53.0827231,38.0952381 L53.0827231,45.1504383 C53.0562421,45.4487945 53.1784241,45.7415957 53.4122555,45.9401406 C53.7071869,46.172313 54.2360864,46.289189 55.0187258,46.289189 L55.0253165,47.6190476 Z" id="Shape" fill="#004687"></path>
                        <path d="M60.6075949,44.0542301 C60.6075949,46.4307751 59.6772152,47.6190476 57.8164557,47.6190476 C55.9556962,47.6190476 55.0253165,46.4307751 55.0253165,44.0542301 C55.0253165,41.6699726 55.9556962,40.477293 57.8164557,40.4761912 C59.6772152,40.4750895 60.6075949,41.6677691 60.6075949,44.0542301 Z M59.4353165,44.0542301 C59.4353165,43.3237483 59.3319409,42.7965453 59.1251899,42.4726212 C58.8770886,42.0671653 58.4408439,41.8644373 57.8164557,41.8644373 C57.1920675,41.8644373 56.7553059,42.0671653 56.5061709,42.4726212 C56.2994198,42.7965453 56.1960443,43.3237483 56.1960443,44.0542301 C56.1960443,44.784712 56.2994198,45.3119149 56.5061709,45.635839 C56.7563397,46.0324807 57.1931013,46.2308016 57.8164557,46.2308016 C58.4398101,46.2308016 58.8760549,46.0324807 59.1251899,45.635839 C59.3319409,45.3097114 59.4353165,44.7825084 59.4353165,44.0542301 Z" id="Shape" fill="#004687"></path>
                        <path d="M63,39.4219379 L61.4050633,39.4219379 L61.4050633,38.0952381 L63,38.0952381 L63,39.4219379 Z M61.4050633,40.7865435 L63,40.7865435 L63,47.6190476 L61.4050633,47.6190476 L61.4050633,40.7865435 Z" id="Shape" fill="#004687"></path>
                        <path d="M18.0645737,44.4527948 C18.0645737,45.6503507 18.6625649,46.4133229 19.7398738,46.4133229 C20.4796567,46.4133229 20.8695839,46.1927635 21.3365719,45.6977301 L22.1734513,46.5309546 C21.4983994,47.2465473 20.863419,47.6190476 19.7075083,47.6190476 C18.0584089,47.6190476 16.7468354,46.6975994 16.7468354,44.041084 C16.7468354,41.7832092 17.8503449,40.4761905 19.5379747,40.4761905 C21.3042064,40.4761905 22.3291139,41.8518276 22.3291139,43.8335947 L22.3291139,44.4527948 L18.0645737,44.4527948 Z M20.8387596,42.526576 C20.6201981,41.9755237 20.1030809,41.625031 19.5395159,41.6459722 C18.9732789,41.6249114 18.4529714,41.9746622 18.2294837,42.526576 C18.1066971,42.8255552 18.0487628,43.1499308 18.0599501,43.4757984 L21.0206229,43.4757984 C21.0280432,43.1494304 20.9675285,42.8253387 20.8433833,42.526576 L20.8387596,42.526576 Z" id="Shape" fill="#004687"></path>
                        <path d="M28.4254975,44.4478935 C28.4254975,45.6454494 29.0219475,46.4084216 30.0992563,46.4084216 C30.8390392,46.4084216 31.2289664,46.1878622 31.6959544,45.6928288 L32.5405399,46.5309546 C31.865488,47.2465473 31.2289664,47.6190476 30.0745969,47.6190476 C28.4254975,47.6190476 27.1139241,46.6975994 27.1139241,44.041084 C27.1139241,41.7832092 28.2174335,40.4761905 29.9050633,40.4761905 C31.671295,40.4761905 32.6962025,41.8518276 32.6962025,43.8335947 L32.6962025,44.4527948 L28.4254975,44.4478935 Z M31.1996834,42.5216747 C30.9820321,41.9705638 30.465236,41.6198727 29.9019809,41.6410709 C29.3354283,41.6202557 28.8147929,41.9698156 28.5904074,42.5216747 C28.4688965,42.8210249 28.4115217,43.145215 28.4224151,43.4708971 L31.3815467,43.4708971 C31.3899851,43.1442695 31.3288777,42.8198252 31.2027658,42.5216747 L31.1996834,42.5216747 Z" id="Shape" fill="#004687"></path>
                    </g>
                </g>
            </g>
        </g>
    </g>
</svg>