<svg xmlns="http://www.w3.org/2000/svg" width="235" height="124" viewBox="0 0 235 124">
  <g fill="none" fill-rule="evenodd">
    <path fill="#FFF" stroke="#FFF" d="M13.614 114.43c.108 0 .162-.054.162-.162v-.486c0-.108-.054-.162-.162-.162h-6.7c-.107 0-.161.054-.161.162v.486c0 .108.054.163.162.163h6.699zm21.285 7.894c.108 0 .162-.054.162-.162v-.514c0-.108-.054-.162-.162-.162h-9.292v-18.328c0-.108-.054-.162-.162-.162h-.567c-.108 0-.19.054-.19.162v19.004c0 .108.082.162.19.162h10.02zm1.567 0h-.622c-.108 0-.162-.08-.135-.19l7.104-19.003c.027-.081.108-.135.162-.135h.757c.08 0 .162.054.189.135l7.104 19.004c.027.108-.027.19-.135.19h-.622c-.08 0-.135-.055-.189-.136l-2.188-5.92h-9.048l-2.215 5.92c-.027.081-.081.135-.162.135zm6.86-18.22l-4.186 11.327h8.454l-4.187-11.327h-.08zm29.362 18.22c.054 0 .162-.054.189-.135l7.24-19.004c.026-.108-.028-.19-.136-.19h-.594a.203.203 0 0 0-.19.136l-6.914 18.166h-.054L65.34 103.13c-.054-.081-.135-.135-.216-.135h-.595c-.108 0-.162.08-.135.189l7.24 19.004c.054.081.135.135.216.135h.837zm10.696-.676c0-.432-.297-.73-.729-.73s-.73.298-.73.73c0 .433.298.73.73.73s.73-.297.73-.73zm2.594.676h-.622c-.108 0-.162-.08-.135-.19l7.104-19.003c.027-.081.108-.135.162-.135h.757c.08 0 .162.054.189.135l7.104 19.004c.027.108-.027.19-.135.19h-.622c-.08 0-.135-.055-.189-.136l-2.188-5.92h-9.048l-2.215 5.92c-.027.081-.081.135-.162.135zm6.86-18.22l-4.186 11.327h8.454l-4.186-11.327h-.081zm10.994 17.544c0-.432-.297-.73-.73-.73-.431 0-.728.298-.728.73 0 .433.297.73.729.73s.73-.297.73-.73zm5.078-8.758h9.238c.108 0 .19-.054.19-.163v-.513c0-.108-.082-.162-.19-.162h-9.238v-8.218h9.806c.108 0 .162-.054.162-.163v-.513c0-.108-.054-.162-.162-.162H108.18c-.108 0-.189.054-.189.162v19.004c0 .108.081.162.189.162h10.94c.108 0 .162-.054.162-.162v-.514c0-.108-.054-.162-.162-.162h-10.21v-8.596zm38.276-9.732c0-.108-.081-.162-.19-.162h-10.804c-.108 0-.19.054-.19.162v19.004c0 .108.082.162.19.162h.567c.081 0 .162-.054.162-.162v-8.975h9.32c.107 0 .161-.054.161-.162v-.514c0-.08-.054-.162-.162-.162h-9.319v-8.515h10.076c.108 0 .189-.054.189-.163v-.513zm1.971 19.166h-.62c-.109 0-.163-.08-.136-.19l7.104-19.003c.027-.081.108-.135.162-.135h.757c.08 0 .162.054.189.135l7.104 19.004c.027.108-.027.19-.135.19h-.622c-.08 0-.135-.055-.189-.136l-2.188-5.92h-9.049l-2.214 5.92c-.027.081-.081.135-.163.135zm6.861-18.22l-4.186 11.327h8.454l-4.187-11.327h-.08zm22.555 16.274c.108-.081.108-.162.054-.243l-.324-.433c-.054-.081-.135-.108-.216-.027a8.442 8.442 0 0 1-5.592 2.081c-3.727 0-5.618-2.351-5.618-5.568v-7.056c0-3.217 1.864-5.569 5.564-5.569 1.891 0 3.728.65 5.214 1.839.108.08.189.054.243-.027l.297-.433c.08-.054.08-.162-.027-.216a8.998 8.998 0 0 0-5.7-2c-4.105 0-6.482 2.621-6.482 6.406v7.056c0 3.784 2.35 6.407 6.536 6.407 2.161 0 4.322-.676 6.051-2.217zm4.484-17.22c0-.108-.081-.162-.162-.162h-.567c-.108 0-.19.054-.19.162v19.004c0 .108.082.162.19.162h.567c.08 0 .162-.054.162-.162v-19.004zm15.45 19.166c.109 0 .163-.054.163-.162v-.514c0-.108-.054-.162-.163-.162h-9.291v-18.328c0-.108-.055-.162-.163-.162h-.567c-.108 0-.189.054-.189.162v19.004c0 .108.081.162.19.162h10.02zm4.052-9.434h9.238c.108 0 .19-.054.19-.163v-.513c0-.108-.082-.162-.19-.162h-9.238v-8.218h9.805c.108 0 .162-.054.162-.163v-.513c0-.108-.054-.162-.162-.162H201.83c-.108 0-.19.054-.19.162v19.004c0 .108.082.162.19.162h10.94c.108 0 .162-.054.162-.162v-.514c0-.108-.054-.162-.162-.162h-10.21v-8.596zm26.823 1.54c.108 0 .162-.054.162-.162v-.486c0-.108-.054-.162-.162-.162h-6.7c-.107 0-.161.054-.161.162v.486c0 .108.054.163.162.163h6.699z"/>
    <path fill="#FFF" d="M59.653 70.453l-4.68-10.477a2 2 0 0 0-1.826-1.185H20.142a2 2 0 0 0-1.82 1.173l-4.77 10.5a2 2 0 0 1-1.82 1.173h-9.53A2 2 0 0 1 .377 68.82L29.118 4.696a2 2 0 0 1 1.825-1.182h11.412a2 2 0 0 1 1.825 1.182L72.921 68.82a2 2 0 0 1-1.825 2.818H61.48a2 2 0 0 1-1.826-1.184zM48.07 44.022l-9.587-21.996a2 2 0 0 0-3.667 0l-9.588 21.996a2 2 0 0 0 1.833 2.8h19.176a2 2 0 0 0 1.833-2.8z"/>
    <path fill="#05CFA8" d="M121.255 1.228h8.64a2 2 0 0 1 1.858 2.742l-26.608 66.604a2 2 0 0 1-1.857 1.258H93.13a2 2 0 0 1-1.84-1.218l-18.82-44.27a2 2 0 0 1 1.841-2.782h8.577a2 2 0 0 1 1.846 1.23l6.1 14.633 5.487 15.03a2 2 0 0 0 3.763-.016l13.218-37.153 6.102-14.82a2 2 0 0 1 1.85-1.238z"/>
    <path fill="#FFF" d="M133.502 25.66v43.977a2 2 0 0 0 2 2h7.863a2 2 0 0 0 2-2V46.335c0-8.856 5.737-12.165 11.96-12.165 2.097 0 4.362.678 6.797 2.034a2 2 0 0 0 2.75-.826l3.491-6.735a2 2 0 0 0-.786-2.659c-4.2-2.393-7.766-3.59-10.695-3.59-4.862 0-9.822.876-13.517 6.812l-.609-3.858a2 2 0 0 0-1.975-1.689h-7.28a2 2 0 0 0-2 2zm54.066-.195v44.172a2 2 0 0 1-2 2h-7.864a2 2 0 0 1-2-2V25.465a2 2 0 0 1 2-2h7.864a2 2 0 0 1 2 2zm-12.933-15.333c0-9.245 14.002-9.245 14.002 0s-14.002 9.245-14.002 0zm23.629-4.52v64.025a2 2 0 0 0 2 2h7.767a2 2 0 0 0 2-2V5.612a2 2 0 0 0-2-2h-7.767a2 2 0 0 0-2 2zm21.88 59.894c0 9.246 14.002 9.246 14.002 0 0-9.245-14.002-9.245-14.002 0z"/>
  </g>
</svg>
