<?xml version="1.0" encoding="UTF-8"?>
<svg width="526px" height="331px" viewBox="0 0 526 331" version="1.1" xmlns="http://www.w3.org/2000/svg" xmlns:xlink="http://www.w3.org/1999/xlink">
    <!-- Generator: Sketch 51.1 (57501) - http://www.bohemiancoding.com/sketch -->
    <title>Cuisine</title>
    <desc>Created with Sketch.</desc>
    <defs></defs>
    <g id="WebDesign" stroke="none" stroke-width="1" fill="none" fill-rule="evenodd">
        <g id="Étapes-VAE" transform="translate(-629.000000, -1557.000000)">
            <g id="VAE" transform="translate(285.000000, 1557.000000)">
                <g id="Cuisine" transform="translate(344.000000, 0.000000)">
                    <path d="M415.166117,254.441352 L273.910332,314.400875 C261.353325,319.731008 246.852934,313.87247 241.522801,301.315463 L241.499604,301.260814 C239.126496,295.670122 238.971265,289.694203 240.637628,284.313888 L129.746775,329.116701 C117.098658,334.226872 102.70272,328.116159 97.5925492,315.468042 L97.5703091,315.412996 C92.460138,302.764878 98.5708508,288.368941 111.218968,283.25877 L113.275788,282.427761 C102.608562,283.531213 92.0623168,277.545107 87.8438678,267.104079 L87.8216277,267.049033 C84.4371728,258.672214 85.9746276,249.528733 91.0733985,242.82395 L33.9815675,265.890546 C21.3334501,271.000718 6.93751283,264.890005 1.82734168,252.241887 L1.80510164,252.186841 C-3.3050695,239.538724 2.80564332,225.142787 15.4537607,220.032616 L47.7167277,206.997531 C38.0678296,206.86742 28.9792949,201.05377 25.1379069,191.546001 L25.1156668,191.490955 C20.0054957,178.842838 26.1162085,164.4469 38.7643259,159.336729 L96.5972566,135.970708 C89.627639,133.90614 83.6307285,128.798657 80.6961181,121.535242 L80.673878,121.480196 C75.5637069,108.832078 81.6744197,94.4361412 94.3225371,89.32597 L213.747094,41.075317 C222.277579,37.6287772 231.603111,39.2863797 238.338676,44.6112719 L338.795445,1.96990338 C351.352452,-3.36022955 365.852843,2.49830884 371.182976,15.0553151 L371.206173,15.1099646 C373.919071,21.50115 373.733496,28.3957775 371.24149,34.3284936 L416.778974,14.9989786 C429.33598,9.66884564 443.836371,15.527384 449.166504,28.0843903 L449.189701,28.1390398 C452.241693,35.3290823 451.625349,43.1562863 448.183617,49.5342763 L479.005162,36.4513066 C491.562169,31.1211736 506.06256,36.979712 511.392693,49.5367183 L511.41589,49.5913678 C516.746023,62.1483741 510.887485,76.6487654 498.330479,81.9788983 L465.72975,95.8170864 C475.375243,95.7833234 484.558139,101.436727 488.563281,110.872251 L488.586478,110.926901 C492.115677,119.241172 490.739699,128.407434 485.761951,135.199641 L490.642885,133.127807 C503.199891,127.797674 517.700282,133.656213 523.030415,146.213219 L523.053613,146.267868 C528.383746,158.824875 522.525207,173.325266 509.968201,178.655399 L490.642357,186.858733 C501.278092,185.584678 511.910373,191.384578 516.306016,201.740065 L516.329213,201.794715 C521.659346,214.351721 515.800808,228.852113 503.243802,234.182246 L442.53009,259.953687 C432.873175,264.052804 422.066882,261.534587 415.166117,254.441352 Z" id="Bg" fill="#4FFFCE"></path>
                    <g id="Characters" transform="translate(157.000000, 7.000000)">
                        <g id="Charact" transform="translate(0.000000, 70.000000)">
                            <path d="M75.9160112,158.995894 C64.776843,174.456613 51.2521079,183.89999 37.4999978,183.89999 C24.5510492,183.89999 11.8107082,175.542462 0.992442938,161.552954 L0.892977536,161.424331 L0.844804939,161.269036 C-0.307474735,157.554411 -0.899999946,153.666527 -0.899999946,149.69999 L-0.899999946,129.299991 C-0.899999946,107.760887 16.5608938,90.2999937 38.0999977,90.2999937 C59.6391017,90.2999937 77.0999954,107.760887 77.0999954,129.299991 L77.0999954,149.69999 C77.0999954,152.75116 76.7494309,155.757248 76.0618183,158.676154 L76.0207387,158.850536 L75.9160112,158.995894 Z" id="Combined-Shape" stroke="#443C77" stroke-width="1.79999989" fill="#D7C2FF"></path>
                            <path d="M29.0999983,72.8999948 L46.4999972,72.8999948 L46.4999972,95.7902235 L46.2151495,96.0569467 C43.4965656,98.6025506 40.6987438,99.8999932 37.8369118,99.8999932 C34.977577,99.8999932 32.1580021,98.6047806 29.3911037,96.0627509 L29.0999983,95.7953038 L29.0999983,72.8999948 Z" id="Rectangle-7" stroke="#443C77" stroke-width="1.79999989" fill="#BF9D8C"></path>
                            <ellipse id="Oval-5" stroke="#443C77" stroke-width="1.79999989" fill="#BF9D8C" cx="8.69999948" cy="38.3999968" rx="9.59999943" ry="10.4999994"></ellipse>
                            <circle id="Oval-4" fill="#443C77" cx="8.69999948" cy="38.6999968" r="3.2999998"></circle>
                            <ellipse id="Oval-5" stroke="#443C77" stroke-width="1.79999989" fill="#BF9D8C" cx="66.299996" cy="38.3999968" rx="9.59999943" ry="10.4999994"></ellipse>
                            <circle id="Oval-4" fill="#443C77" cx="66.899996" cy="38.6999968" r="3.2999998"></circle>
                            <rect id="Rectangle-4" stroke="#443C77" stroke-width="1.79999989" fill="#BF9D8C" x="8.69999948" y="-0.300000876" width="58.1999965" height="79.1999953" rx="29.0999983"></rect>
                            <circle id="Oval-4" fill="#443C77" cx="33.6999984" cy="37.4999969" r="3.2999998"></circle>
                            <circle id="Oval-4" fill="#443C77" cx="54.6999972" cy="37.4999969" r="3.2999998"></circle>
                            <rect id="Rectangle-6" fill="#744F3D" x="42.3999979" y="43.7999965" width="4.79999971" height="8.3999995" rx="2.39999986"></rect>
                            <path d="M17.4269164,52.1312661 C25.1044893,57.5254003 34.5931111,60.2269635 45.9178888,60.2269635 C57.060658,60.2269635 63.9366951,56.4000647 66.7598385,48.7423639 L66.0148447,38.4025794 L67.8034,38.2101173 C72.5807829,71.5170749 63.6227403,88.4898541 40.9178888,88.4898541 C18.2850404,88.4898541 7.30388145,72.0843965 8.02348294,39.7709885 L8.09244464,36.6742916 L17.4269164,52.1312661 Z" id="Path-7" stroke="#443C77" stroke-width="1.8" fill="#FFFFFF"></path>
                            <path d="M33.5402329,65.8789019 C41.7292949,72.258589 50.5894506,72.258589 60.1207001,65.8789019" id="Path-2" stroke="#443C77" stroke-width="1.79999989" stroke-linecap="round" transform="translate(46.830466, 68.271285) rotate(-7.000000) translate(-46.830466, -68.271285) "></path>
                            <path d="M22.430858,101.67304 C33.0347637,111.128117 43.1216771,111.128117 52.6915984,101.67304" id="Path-4" stroke="#443C77" stroke-width="1.79999989" stroke-linecap="round"></path>
                            <path d="M8.90420112,27.8865553 C8.76652626,27.748522 8.60762992,27.6192351 8.34340427,27.4252343 C8.31544416,27.4047053 8.05975879,27.2187167 7.98023273,27.1598452 C7.82803333,27.047175 7.70010941,26.9483892 7.57515189,26.8455122 C5.75486752,25.34688 4.90509579,22.9826842 4.90509579,18.0171002 C4.90509579,12.2802999 10.0319362,7.84481736 20.0271464,4.61717963 L23.6204038,3.45685054 L20.936865,6.11325449 C17.0683884,9.94261475 15.1606622,13.9024539 15.1606622,18.0171002 C15.1606622,20.8660352 16.1280512,22.6839578 17.8795285,24.0295896 C18.4418798,24.4616351 20.5632678,25.6626361 20.8771465,25.9903229 C21.3576495,26.4919641 21.455026,27.1561665 21.048827,27.7557661 C19.2791391,30.3680429 12.2694859,31.2606003 8.90420112,27.8865553 Z" id="Path-8" stroke="#443C77" stroke-width="1.8" fill="#FFFFFF"></path>
                            <path d="M61.5199395,27.8931744 C61.4457214,27.89334 61.4457214,27.89334 61.3668619,27.8938637 C61.0882458,27.8957173 60.9576908,27.8943495 60.7854441,27.8837725 C58.1765292,27.7235692 57.1072442,25.2484248 57.1072442,18.0171002 C57.1072442,11.3859795 60.6625568,7.15725307 67.5745351,5.51453616 L70.4425476,4.8329176 L68.444315,7.0002122 C65.482922,10.212156 64.0136895,13.8709474 64.0136895,18.0171002 C64.0136897,18.0692248 64.0136897,18.0692248 64.01369,18.1211206 C64.0137208,22.5321838 63.984864,23.848733 63.8056401,25.1149605 C63.54971,26.9231207 62.8810523,27.8931744 61.5199395,27.8931744 Z" id="Path-8" stroke="#443C77" stroke-width="1.8" fill="#FFFFFF" transform="translate(62.894940, 16.692370) scale(-1, 1) translate(-62.894940, -16.692370) "></path>
                            <path d="M43.8925781,98.4414062 C40.1484375,100.835938 38.2763672,103.203776 38.2763672,105.544922 C38.2763672,107.886068 40.1484375,110.397461 43.8925781,113.079102 C47.75,110.222982 49.6787109,107.783366 49.6787109,105.760254 C49.6787109,103.737142 47.75,101.297526 43.8925781,98.4414062 Z" id="Path-12" fill="#443C77" transform="translate(43.977539, 105.760254) rotate(-10.000000) translate(-43.977539, -105.760254) "></path>
                            <path d="M43.6064453,110.390625 C40.7783203,109.604492 40.0712891,114.244792 41.4853516,124.311523 C42.8994141,134.378255 42.8994141,148.05957 41.4853516,165.355469 L55.1811523,162.120117 C57.0072936,145.896706 56.7262064,132.57737 54.3378906,122.162109 C52.5385742,114.31543 50.0400391,110.525391 45.7626953,108.874023 C42.9111328,107.773112 42.1923828,108.278646 43.6064453,110.390625 Z" id="Path-13" fill="#443C77"></path>
                        </g>
                        <g id="DE" transform="translate(111.000000, 0.000000)">
                            <rect id="Rectangle-8" stroke="#443C77" stroke-width="1.79999989" fill="#FFFFFF" x="-0.899999946" y="180.099993" width="77.9999954" height="98.3999941" rx="38.9999977"></rect>
                            <circle id="Oval-4" fill="#443C77" cx="37.4999978" cy="214.899991" r="3.2999998"></circle>
                            <circle id="Oval-4" fill="#443C77" cx="37.4999978" cy="232.89999" r="3.2999998"></circle>
                            <circle id="Oval-4" fill="#443C77" cx="37.4999978" cy="250.899989" r="3.2999998"></circle>
                            <path d="M29.0999983,162.699994 L46.4999972,162.699994 L46.4999972,185.590223 L46.2151495,185.856946 C43.4965656,188.40255 40.6987438,189.699992 37.8369118,189.699992 C34.977577,189.699992 32.1580021,188.40478 29.3911037,185.86275 L29.0999983,185.595303 L29.0999983,162.699994 Z" id="Rectangle-7" stroke="#443C77" stroke-width="1.79999989" fill="#FCF2ED"></path>
                            <ellipse id="Oval-5" stroke="#443C77" stroke-width="1.79999989" fill="#FCF2ED" cx="8.69999948" cy="128.199996" rx="9.59999943" ry="10.4999994"></ellipse>
                            <circle id="Oval-4" fill="#443C77" cx="8.69999948" cy="128.499996" r="3.2999998"></circle>
                            <ellipse id="Oval-5" stroke="#443C77" stroke-width="1.79999989" fill="#FCF2ED" cx="66.299996" cy="128.199996" rx="9.59999943" ry="10.4999994"></ellipse>
                            <circle id="Oval-4" fill="#443C77" cx="66.899996" cy="128.499996" r="3.2999998"></circle>
                            <rect id="Rectangle-4" stroke="#443C77" stroke-width="1.79999989" fill="#FCF2ED" x="8.69999948" y="89.4999981" width="58.1999965" height="79.1999953" rx="29.0999983"></rect>
                            <circle id="Oval-4" fill="#443C77" cx="26.6999984" cy="127.299996" r="3.2999998"></circle>
                            <circle id="Oval-4" fill="#443C77" cx="47.6999972" cy="127.299996" r="3.2999998"></circle>
                            <rect id="Rectangle-6" fill="#DAB9A9" x="35.3999979" y="133.599995" width="4.79999971" height="8.3999995" rx="2.39999986"></rect>
                            <path d="M24.5402329,147.678901 C32.7292949,154.058588 41.5894506,154.058588 51.1207001,147.678901" id="Path-2" stroke="#443C77" stroke-width="1.79999989" stroke-linecap="round"></path>
                            <path d="M56.2992154,84.3934998 C59.7315144,82.8910653 62.9423148,79.6691502 65.9140401,74.6935863 L67.1352416,72.6489268 L67.5714872,74.9902204 C70.5094718,90.758141 70.3198167,109.089785 67.538972,117.283764 L67.3316931,117.894528 L66.6867148,117.894528 C63.3938804,117.894528 60.8833591,115.434903 59.1269139,110.728454 C44.5398365,114.923455 30.891914,114.927166 18.205178,110.729043 C15.7497753,115.454788 12.6726314,117.894528 8.97890571,117.894528 L8.22559353,117.894528 L8.09296447,117.152983 C5.85058016,104.615545 7.15929506,95.4714328 12.1123039,89.7610682 C16.6957222,84.4768075 22.6244227,81.6500508 30.0111169,80.5557868 C33.9390558,79.9739023 37.2417989,79.9029253 43.5675313,80.0579295 C50.8455396,80.2362681 53.2279302,80.0672053 54.893316,78.9353304 L56.2992154,77.9798146 L56.2992154,79.6796862 C56.2992154,82.1748944 56.2992154,82.5981202 56.2992154,84.3935794 Z" id="Path-3" stroke="#443C77" stroke-width="1.79999989" fill="#A0AAB4"></path>
                            <path d="M22.430858,191.473039 C33.0347637,200.928116 43.1216771,200.928116 52.6915984,191.473039" id="Path-4" stroke="#443C77" stroke-width="1.79999989" stroke-linecap="round"></path>
                            <g id="Toque" transform="translate(6.000000, 0.000000)" stroke="#443C77">
                                <path d="M-0.168100776,95.5419978 L-0.192000342,95.5419978 L-0.192000342,12.2829993 L64.9919958,12.2829993 L64.9919958,95.5419978 L64.9680962,95.5419978 C64.9840086,95.7149853 64.9919958,95.8885237 64.9919958,96.0624977 C64.9919958,103.518515 50.3685539,109.191997 32.3999977,109.191997 C14.4314415,109.191997 -0.192000342,103.518515 -0.192000342,96.0624977 C-0.192000342,95.8885237 -0.184013226,95.7149853 -0.168100532,95.5419978 Z" id="Combined-Shape" stroke-width="1.5839999" fill="#FFFFFF"></path>
                                <ellipse id="Oval-10" stroke-width="1.5839999" fill="#FFFFFF" cx="32.7999981" cy="12.2999993" rx="32.5919981" ry="13.0919992"></ellipse>
                                <path d="M31.9933571,108.798434 L31.9933571,92.5058573" id="Path-6" stroke-width="1.79999989" stroke-linecap="round"></path>
                                <path d="M43.9933564,107.598435 L43.9933564,91.3058574" id="Path-6" stroke-width="1.79999989" stroke-linecap="round"></path>
                                <path d="M54.1933558,104.598435 L54.1933558,88.3058576" id="Path-6" stroke-width="1.79999989" stroke-linecap="round"></path>
                                <path d="M9.79335843,104.598435 L9.79335843,88.3058576" id="Path-6" stroke-width="1.79999989" stroke-linecap="round" transform="translate(9.793358, 96.452146) scale(-1, 1) translate(-9.793358, -96.452146) "></path>
                                <path d="M19.9933578,107.598435 L19.9933578,91.3058574" id="Path-6" stroke-width="1.79999989" stroke-linecap="round" transform="translate(19.993358, 99.452146) scale(-1, 1) translate(-19.993358, -99.452146) "></path>
                            </g>
                        </g>
                    </g>
                    <g id="Desk" transform="translate(112.799987, 197.799980)">
                        <path d="M36.1747369,38.1000001 L257.383887,38.1000001 L301.109912,83.6999973 L-1.3047129,83.6999973 L36.1747369,38.1000001 Z" id="Rectangle-12" stroke="#443C77" stroke-width="1.79999989" fill="#FFFFFF"></path>
                        <rect id="Rectangle-13" stroke="#443C77" stroke-width="1.79999989" fill="#F7F7F7" x="-0.899999946" y="83.6999973" width="301.8" height="12.5999992"></rect>
                        <path d="M67.4994439,45.1000001 L108.425301,45.1000001 L104.190007,77.4999981 L47.3817976,77.4999981 L67.4994439,45.1000001 Z" id="Rectangle-14" stroke="#443C77" stroke-width="1.79999989" fill="#FFFFFF"></path>
                        <path d="M97.6999981,69.8999999 L65.3,69.8999999" id="Line-3" stroke="#443C77" stroke-width="1.79999989" stroke-linecap="round"></path>
                        <path d="M98.2999982,63.8999999 L68.3,63.8999999" id="Line-3" stroke="#443C77" stroke-width="1.79999989" stroke-linecap="round"></path>
                        <path d="M98.8999992,57.8999999 L86.3,57.8999999" id="Line-3" stroke="#443C77" stroke-width="1.79999989" stroke-linecap="round"></path>
                        <rect id="Rectangle-17" stroke="#443C77" stroke-width="1.8" fill="#D8D8D8" transform="translate(257.962891, 11.601562) rotate(133.000000) translate(-257.962891, -11.601562) " x="244.062891" y="7.7015625" width="27.8" height="7.8" rx="3.9"></rect>
                        <path d="M215.477758,13.2372767 C223.857106,18.4859738 231.867288,21.1 239.514466,21.1 C247.152229,21.1 254.807359,18.4923934 262.493275,13.2562058 L263.9,12.2978457 L263.9,49.4431609 L263.54874,49.7133612 C255.598945,55.8285987 247.476799,58.9 239.200013,58.9 C230.927241,58.9 222.676748,55.8316365 214.462869,49.722143 L214.1,49.4522404 L214.1,12.3742695 L215.477758,13.2372767 Z" id="Rectangle-16" stroke="#443C77" stroke-width="1.8" fill="#C2C2C2" transform="translate(239.000000, 36.000000) scale(1, -1) translate(-239.000000, -36.000000) "></path>
                        <ellipse id="Oval-15" fill="#DAF5FF" cx="239" cy="29" rx="20" ry="9"></ellipse>
                        <path d="M215.477758,24.2372767 C223.857106,29.4859738 231.867288,32.1 239.514466,32.1 C247.152229,32.1 254.807359,29.4923934 262.493275,24.2562058 L263.9,23.2978457 L263.9,60.4431609 L263.54874,60.7133612 C255.598945,66.8285987 247.476799,69.9 239.200013,69.9 C230.927241,69.9 222.676748,66.8316365 214.462869,60.722143 L214.1,60.4522404 L214.1,23.3742695 L215.477758,24.2372767 Z" id="Rectangle-16" stroke="#443C77" stroke-width="1.8" fill="#D8D8D8"></path>
                        <rect id="Rectangle-19" stroke="#443C77" stroke-width="1.8" fill="#FFEAC8" x="130.1" y="63.1" width="15.8" height="6.8" rx="3.4"></rect>
                        <rect id="Rectangle-19" stroke="#443C77" stroke-width="1.8" fill="#FFEAC8" x="193.1" y="63.1" width="15.8" height="6.8" rx="3.4"></rect>
                        <path d="M142.340203,59.1 L195.694389,59.1 L195.870555,59.7716712 C196.555371,62.3826878 196.9,64.6371847 196.9,66.5418165 C196.9,68.4686055 196.547501,70.3926077 195.845055,72.3096471 L195.628737,72.9 L142.391533,72.9 L142.164811,72.3353501 C141.453366,70.5634979 141.1,68.5633276 141.1,66.339668 C141.1,64.1334549 141.447721,61.9290199 142.141698,59.7292281 L142.340203,59.1 Z" id="Rectangle-18" stroke="#443C77" stroke-width="1.8" fill="#FFEAC8"></path>
                    </g>
                </g>
            </g>
        </g>
    </g>
</svg>