<?xml version="1.0" encoding="UTF-8"?>
<svg width="399px" height="309px" viewBox="0 0 399 309" version="1.1" xmlns="http://www.w3.org/2000/svg" xmlns:xlink="http://www.w3.org/1999/xlink">
    <!-- Generator: Sketch 51.1 (57501) - http://www.bohemiancoding.com/sketch -->
    <title>Character</title>
    <desc>Created with Sketch.</desc>
    <defs></defs>
    <g id="WebDesign" stroke="none" stroke-width="1" fill="none" fill-rule="evenodd">
        <g id="Étapes-VAE-confirmation" transform="translate(-750.000000, -558.000000)">
            <g id="Group-9" transform="translate(-21.000000, -11.000000)">
                <g id="Group-6" transform="translate(254.000000, 343.000000)">
                    <g id="Group-13">
                        <g id="Group-8" transform="translate(487.000000, 12.000000)">
                            <g id="Character" transform="translate(30.000000, 214.000000)">
                                <path d="M314.799891,192.920647 L207.706727,238.378998 C198.173921,242.425434 187.165771,237.977852 183.119335,228.445046 C181.31633,224.197433 181.199729,219.656905 182.467972,215.569848 L98.3947102,249.537651 C88.7927361,253.4171 77.8638831,248.778077 73.9844338,239.176103 C70.1049844,229.574129 74.7440073,218.645276 84.3459814,214.765827 L85.902598,214.136913 C77.8033658,214.97612 69.7953895,210.431543 66.5924859,202.504078 C64.0223098,196.142669 65.1910634,189.198866 69.0648394,184.108402 L25.7806416,201.596353 C16.1786675,205.475803 5.24981449,200.83678 1.37036514,191.234806 C-2.50908421,181.632832 2.12993867,170.703979 11.7319128,166.824529 L36.1911256,156.942366 C28.864368,156.845342 21.9624611,152.431508 19.0456256,145.212086 C15.1661762,135.610112 19.8051991,124.681259 29.4071732,120.80181 L73.2517664,103.087444 C67.9574875,101.52155 63.4015988,97.6430801 61.1726972,92.1263552 C57.2932479,82.5243811 61.9322708,71.5955281 71.5342448,67.7160787 L162.046301,31.1468342 C168.518046,28.5320797 175.592562,29.7870793 180.705166,33.8231894 L256.864495,1.49547641 C266.397301,-2.55095964 277.405451,1.89662192 281.451887,11.4294278 C283.512702,16.2844021 283.370358,21.5220477 281.475155,26.0278399 L315.995586,11.3747863 C325.528392,7.32835024 336.536543,11.7759318 340.582979,21.3087377 C342.901042,26.7697527 342.431583,32.7149386 339.815454,37.5581284 L363.178659,27.6410364 C372.711465,23.5946003 383.719616,28.0421819 387.766052,37.5749878 C391.812488,47.1077937 387.364906,58.1159444 377.8321,62.1623804 L353.116754,72.6534224 C360.440898,72.6260099 367.414448,76.918153 370.455626,84.0827197 C373.135722,90.3966307 372.089598,97.3577571 368.307706,102.514642 L372.002974,100.946094 C381.53578,96.899658 392.543931,101.34724 396.590367,110.880045 C400.636803,120.412851 396.189221,131.421002 386.656415,135.467438 L372.005535,141.686368 C380.080841,140.717623 388.154141,145.120812 391.491584,152.983335 C395.53802,162.516141 391.090439,173.524291 381.557633,177.570727 L335.562835,197.094361 C328.236684,200.204127 320.03916,198.297133 314.799891,192.920647 Z" id="Bg" fill="#C2FFEE"></path>
                                <g transform="translate(96.000000, 25.000000)">
                                    <path d="M144.600888,229.686722 C173.356236,209.848477 187.730749,179.050548 187.730749,137.189453 L187.730749,136.710739 L188.127702,136.443166 C194.176011,132.366209 200.548505,132.366209 207.074817,136.425207 L207.482287,136.67863 L207.498956,137.15819 C209.243241,187.342645 192.060917,224.641159 155.968468,248.936483 C156.717481,251.975559 157.099995,255.112867 157.099995,258.299991 L157.099995,272.088109 L156.693691,272.354673 C146.480921,279.054945 132.468368,282.89999 117.499998,282.89999 C103.134258,282.89999 89.6397777,279.359992 79.5279802,273.131303 L79.1000001,272.867675 L79.1000001,258.299991 C79.1000001,255.711007 79.3523987,253.154183 79.8491648,250.655075 C41.9712871,226.416696 23.9141499,188.542896 25.7001526,137.15819 L25.7168209,136.67863 L26.1242912,136.425207 C32.6506035,132.366209 39.023097,132.366209 45.0714058,136.443166 L45.4683593,136.710739 L45.4683593,137.189453 C45.4683593,179.898569 60.4308147,211.092417 90.3659741,230.880515 C97.6362482,223.525626 107.531891,219.299994 118.099998,219.299994 C128.068371,219.299994 137.447697,223.057191 144.600888,229.686722 Z" id="Combined-Shape" stroke="#443C77" stroke-width="1.79999989" fill="#8FE0FF"></path>
                                    <path d="M197.823364,139.712402 C203.070069,139.712402 206.628418,138.378373 206.628418,137.273804 C206.628418,136.169234 202.613771,134.254761 197.367065,134.254761 C192.12036,134.254761 188.667725,136.169234 188.667725,137.273804 C188.667725,138.378373 192.576659,139.712402 197.823364,139.712402 Z" id="Oval-16" fill="#6FC6E7"></path>
                                    <path d="M109.099998,201.899995 L126.499997,201.899995 L126.499997,224.790224 L126.215149,225.056947 C123.496566,227.602551 120.698744,228.899993 117.836912,228.899993 C114.977577,228.899993 112.158002,227.604781 109.391104,225.062751 L109.099998,224.795304 L109.099998,201.899995 Z" id="Rectangle-7" stroke="#443C77" stroke-width="1.79999989" fill="#FCF2ED"></path>
                                    <ellipse id="Oval-5" stroke="#443C77" stroke-width="1.79999989" fill="#FCF2ED" cx="88.6999995" cy="167.399997" rx="9.59999943" ry="10.4999994"></ellipse>
                                    <circle id="Oval-4" fill="#443C77" cx="88.6999995" cy="167.699997" r="3.2999998"></circle>
                                    <ellipse id="Oval-5" stroke="#443C77" stroke-width="1.79999989" fill="#FCF2ED" cx="146.299996" cy="167.399997" rx="9.59999943" ry="10.4999994"></ellipse>
                                    <circle id="Oval-4" fill="#443C77" cx="146.899996" cy="167.699997" r="3.2999998"></circle>
                                    <rect id="Rectangle-4" stroke="#443C77" stroke-width="1.79999989" fill="#FCF2ED" x="88.6999995" y="128.699999" width="58.1999965" height="79.1999953" rx="29.0999983"></rect>
                                    <circle id="Oval-4" fill="#443C77" cx="106.699998" cy="166.499997" r="3.2999998"></circle>
                                    <circle id="Oval-4" fill="#443C77" cx="127.699997" cy="166.499997" r="3.2999998"></circle>
                                    <rect id="Rectangle-6" fill="#DAB9A9" x="115.399998" y="172.799996" width="4.79999971" height="8.3999995" rx="2.39999986"></rect>
                                    <path d="M136.299215,123.593501 C139.731514,122.091066 142.942315,118.869151 145.91404,113.893587 L147.135242,111.848928 L147.571487,114.190221 C150.509472,129.958142 150.319817,148.289786 147.538972,156.483765 L147.331693,157.094529 L146.686715,157.094529 C143.39388,157.094529 140.883359,154.634904 139.126914,149.928455 C124.539836,154.123456 110.891914,154.127167 98.205178,149.929044 C95.7497753,154.654789 92.6726314,157.094529 88.9789057,157.094529 L88.2255935,157.094529 L88.0929645,156.352984 C85.8505802,143.815546 87.1592951,134.671434 92.1123039,128.961069 C96.6957222,123.676809 102.624423,120.850052 110.011117,119.755788 C113.939056,119.173903 117.241799,119.102926 123.567531,119.257931 C130.84554,119.436269 133.22793,119.267206 134.893316,118.135331 L136.299215,117.179816 L136.299215,118.879687 C136.299215,121.374895 136.299215,121.798121 136.299215,123.59358 Z" id="Path-3" stroke="#443C77" stroke-width="1.79999989" fill="#A0AAB4"></path>
                                    <path d="M102.430858,230.67304 C113.034764,240.128117 123.121677,240.128117 132.691598,230.67304" id="Path-4" stroke="#443C77" stroke-width="1.79999989" stroke-linecap="round"></path>
                                    <path d="M103.146486,188.988271 L102.440463,186.877627 L104.415145,187.904233 C111.172744,191.417402 121.055541,192.213058 131.160163,189.204447 L133.148818,188.612333 L132.22228,190.468908 C127.774981,199.380306 121.730348,203.029522 115.436695,201.52185 C110.055383,200.232734 105.209299,195.15502 103.146486,188.988271 Z" id="Path-9" stroke="#443C77" stroke-width="1.8" fill="#FFFFFF"></path>
                                    <path d="M35.5,140 C40.7467051,140 44.6029053,138.396562 44.6029053,137.291992 C44.6029053,136.187423 40.7467051,134.287598 35.5,134.287598 C30.2532949,134.287598 26.6766357,136.187423 26.6766357,137.291992 C26.6766357,138.396562 30.2532949,140 35.5,140 Z" id="Oval-16" fill="#6FC6E7"></path>
                                    <g id="Group-25" transform="translate(25.000000, 109.000000)" fill="#FCF2ED" stroke="#443C77" stroke-width="1.8">
                                        <path d="M13.3365573,28.1993884 C12.4271791,28.5660553 11.4945293,28.7698673 10.5,28.7698673 C9.50709086,28.7698673 8.57483221,28.566722 7.66459885,28.2011749 L7.1,27.9744337 L7.1,13.1 L13.9,13.1 L13.9,27.9722049 L13.3365573,28.1993884 Z" id="Combined-Shape"></path>
                                        <ellipse id="Oval-17" cx="11" cy="10" rx="11.9" ry="10.9"></ellipse>
                                    </g>
                                    <g id="Group-25" transform="translate(187.000000, 109.000000)" fill="#FCF2ED" stroke="#443C77" stroke-width="1.8">
                                        <path d="M13.3365573,28.1993884 C12.4271791,28.5660553 11.4945293,28.7698673 10.5,28.7698673 C9.50709086,28.7698673 8.57483221,28.566722 7.66459885,28.2011749 L7.1,27.9744337 L7.1,13.1 L13.9,13.1 L13.9,27.9722049 L13.3365573,28.1993884 Z" id="Combined-Shape"></path>
                                        <ellipse id="Oval-17" cx="11" cy="10" rx="11.9" ry="10.9"></ellipse>
                                    </g>
                                    <rect id="Rectangle-5" stroke="#E0E0E0" fill="#FFFFFF" x="-0.5" y="-0.144921896" width="230" height="115" rx="2"></rect>
                                    <g id="Group-24" transform="translate(25.000000, 107.000000)" fill="#FCF2ED">
                                        <path d="M21.6931216,15.54798 C12.0331266,16.6291381 6.63335005,17.1001953 5.24018408,16.9687762 C3.45647338,16.8005164 2.48337514,16.5568119 2.03518945,16.0323611 C1.57197449,15.4903236 1.71320891,14.8244349 2.18928982,14.3923347 C2.43184333,14.1721884 2.76858582,13.9931863 3.20783948,13.824286 C4.6655515,13.2637715 7.36813948,12.8111816 9.2512207,12.8111816 C12.375956,12.8111816 15.2532978,10.6871285 18.1863846,6.82654106 C19.1839197,5.51356536 21.8221175,1.48888091 22.2042071,1.02413754 C23.4269,-0.463049131 25.4375543,-0.700094882 26.995283,0.201851706 C28.645802,1.15752519 29.1466974,3.04698661 27.8238292,4.6322886 C26.5288456,6.18417427 24.7115688,9.66071437 22.4202712,15.0080379 L22.2138836,15.4896957 L21.6931216,15.54798 Z" id="Path-11" stroke="#443C77" stroke-width="1.8"></path>
                                        <path d="M21.5930176,14.6535645 C23.9177246,9.22827148 25.7643229,5.69563802 27.1328125,4.05566406 C29.1855469,1.59570312 24.921875,-0.864257813 22.8994141,1.59570312 C20.8769531,4.05566406 16.2531738,13.7111816 9.2512207,13.7111816 C7.80017049,13.7111816 4.63354492,13.7111816 2.7019043,13.7111816 C2.34861754,13.7111816 1.24932372,13.5312023 1.0559082,13.7111816 C-0.352627874,15.0218695 1.26630873,18.0297763 4.63354492,18.3474121 C5.8157858,18.4589344 11.6265978,18.5620485 19.6523438,17.6855469 C20.1763179,17.628323 20.8232091,16.6176622 21.5930176,14.6535645 Z" id="Path-11"></path>
                                    </g>
                                    <g id="Group-24" transform="translate(195.000000, 116.500000) scale(-1, 1) translate(-195.000000, -116.500000) translate(181.000000, 107.000000)" fill="#FCF2ED">
                                        <path d="M21.6931216,15.54798 C12.0331266,16.6291381 6.63335005,17.1001953 5.24018408,16.9687762 C3.45647338,16.8005164 2.48337514,16.5568119 2.03518945,16.0323611 C1.57197449,15.4903236 1.71320891,14.8244349 2.18928982,14.3923347 C2.43184333,14.1721884 2.76858582,13.9931863 3.20783948,13.824286 C4.6655515,13.2637715 7.36813948,12.8111816 9.2512207,12.8111816 C12.375956,12.8111816 15.2532978,10.6871285 18.1863846,6.82654106 C19.1839197,5.51356536 21.8221175,1.48888091 22.2042071,1.02413754 C23.4269,-0.463049131 25.4375543,-0.700094882 26.995283,0.201851706 C28.645802,1.15752519 29.1466974,3.04698661 27.8238292,4.6322886 C26.5288456,6.18417427 24.7115688,9.66071437 22.4202712,15.0080379 L22.2138836,15.4896957 L21.6931216,15.54798 Z" id="Path-11" stroke="#443C77" stroke-width="1.8"></path>
                                        <path d="M21.5930176,14.6535645 C23.9177246,9.22827148 25.7643229,5.69563802 27.1328125,4.05566406 C29.1855469,1.59570312 24.921875,-0.864257813 22.8994141,1.59570312 C20.8769531,4.05566406 16.2531738,13.7111816 9.2512207,13.7111816 C7.80017049,13.7111816 4.63354492,13.7111816 2.7019043,13.7111816 C2.34861754,13.7111816 1.24932372,13.5312023 1.0559082,13.7111816 C-0.352627874,15.0218695 1.26630873,18.0297763 4.63354492,18.3474121 C5.8157858,18.4589344 11.6265978,18.5620485 19.6523438,17.6855469 C20.1763179,17.628323 20.8232091,16.6176622 21.5930176,14.6535645 Z" id="Path-11"></path>
                                    </g>
                                </g>
                            </g>
                        </g>
                    </g>
                </g>
            </g>
        </g>
    </g>
</svg>