<?xml version="1.0" encoding="UTF-8"?>
<svg width="534px" height="396px" viewBox="0 0 534 396" version="1.1" xmlns="http://www.w3.org/2000/svg" xmlns:xlink="http://www.w3.org/1999/xlink">
    <!-- Generator: Sketch 51.1 (57501) - http://www.bohemiancoding.com/sketch -->
    <title>Recevabilite</title>
    <desc>Created with Sketch.</desc>
    <defs>
        <path d="M275.099984,141.599992 C264.661802,141.599992 256.199985,133.138174 256.199985,122.699993 C256.199985,112.261812 264.661802,103.799994 275.099984,103.799994 C285.538165,103.799994 293.999982,112.261812 293.999982,122.699993 C293.999982,133.138174 285.538165,141.599992 275.099984,141.599992 Z M122.699993,173.99999 C54.9346579,173.99999 0,135.048765 0,86.9999948 C0,38.9512244 54.9346579,0 122.699993,0 C190.465327,0 245.399985,38.9512244 245.399985,86.9999948 C245.399985,135.048765 190.465327,173.99999 122.699993,173.99999 Z" id="path-1"></path>
    </defs>
    <g id="WebDesign" stroke="none" stroke-width="1" fill="none" fill-rule="evenodd">
        <g id="Étapes-VAE" transform="translate(-218.000000, -1040.000000)">
            <g id="Recevabilité" transform="translate(217.000000, 1042.000000)">
                <g id="Recevabilite">
                    <path d="M416.154615,317.481325 L274.89883,377.440849 C262.341824,382.770982 247.841433,376.912443 242.5113,364.355437 L242.488102,364.300788 C240.114995,358.710096 239.959763,352.734177 241.626126,347.353862 L130.735274,392.156675 C118.087156,397.266846 103.691219,391.156133 98.5810478,378.508015 L98.5588078,378.452969 C93.4486367,365.804852 99.5593495,351.408915 112.207467,346.298744 L114.264287,345.467735 C103.59706,346.571187 93.0508155,340.585081 88.8323664,330.144053 L88.8101264,330.089007 C85.4256715,321.712187 86.9631263,312.568707 92.0618972,305.863923 L34.9700662,328.93052 C22.3219488,334.040691 7.92601151,327.929979 2.81584037,315.281861 L2.79360033,315.226815 C-2.31657082,302.578698 3.79414201,288.18276 16.4422594,283.072589 L48.7052264,270.037505 C39.0563283,269.907394 29.9677936,264.093744 26.1264056,254.585975 L26.1041655,254.530929 C20.9939944,241.882811 27.1047072,227.486874 39.7528246,222.376703 L97.5857553,199.010682 C90.6161377,196.946113 84.6192271,191.838631 81.6846168,184.575216 L81.6623767,184.52017 C76.5522056,171.872052 82.6629184,157.476115 95.3110358,152.365944 L214.735593,104.115291 C223.266078,100.668751 232.59161,102.326353 239.327175,107.651246 L339.783944,65.0098771 C352.34095,59.6797442 366.841342,65.5382826 372.171475,78.0952889 L372.194672,78.1499384 C374.907569,84.5411238 374.721994,91.4357512 372.229989,97.3684673 L417.767472,78.0389523 C430.324479,72.7088194 444.82487,78.5673578 450.155003,91.124364 L450.1782,91.1790135 C453.230192,98.369056 452.613847,106.19626 449.172116,112.57425 L479.993661,99.4912803 C492.550667,94.1611474 507.051059,100.019686 512.381192,112.576692 L512.404389,112.631342 C517.734522,125.188348 511.875983,139.688739 499.318977,145.018872 L466.718249,158.85706 C476.363741,158.823297 485.546637,164.476701 489.551779,173.912225 L489.574977,173.966874 C493.104176,182.281146 491.728197,191.447408 486.75045,198.239614 L491.631384,196.167781 C504.18839,190.837648 518.688781,196.696186 524.018914,209.253193 L524.042111,209.307842 C529.372244,221.864848 523.513706,236.36524 510.9567,241.695373 L491.630856,249.898707 C502.266591,248.624652 512.898871,254.424552 517.294515,264.780039 L517.317712,264.834689 C522.647845,277.391695 516.789307,291.892086 504.2323,297.222219 L443.518588,322.993661 C433.861674,327.092778 423.05538,324.574561 416.154615,317.481325 Z" id="Bg" fill="#4FFFCE"></path>
                    <g id="Characters" transform="translate(67.000000, 0.000000)">
                        <g id="Thinking">
                            <circle id="Oval-11" stroke="#443C77" stroke-width="1.79999989" fill="#C2E8FF" cx="303.299982" cy="162.29999" r="7.79999954"></circle>
                            <mask id="mask-2" fill="white">
                                <use xlink:href="#path-1"></use>
                            </mask>
                            <path stroke="#443C77" stroke-width="1.79999989" d="M275.099984,142.499992 C264.164746,142.499992 255.299985,133.63523 255.299985,122.699993 C255.299985,111.764755 264.164746,102.899994 275.099984,102.899994 C286.035221,102.899994 294.899982,111.764755 294.899982,122.699993 C294.899982,133.63523 286.035221,142.499992 275.099984,142.499992 Z M122.699993,174.89999 C54.4908479,174.89999 -0.899999946,135.625305 -0.899999946,86.9999948 C-0.899999946,38.3746843 54.4908479,-0.899999946 122.699993,-0.899999946 C190.909137,-0.899999946 246.299985,38.3746843 246.299985,86.9999948 C246.299985,135.625305 190.909137,174.89999 122.699993,174.89999 Z"></path>
                            <g id="Charact" mask="url(#mask-2)">
                                <g transform="translate(32.999998, -41.000002)">
                                    <g>
                                        <g id="Charact2" transform="translate(100.000000, 0.000000)">
                                            <rect id="Rectangle-8" stroke="#443C77" stroke-width="1.79999989" fill="#FFFFFF" x="-0.899999946" y="190.099993" width="77.9999954" height="98.3999941" rx="38.9999977"></rect>
                                            <circle id="Oval-4" fill="#443C77" cx="37.4999978" cy="224.899991" r="3.2999998"></circle>
                                            <circle id="Oval-4" fill="#443C77" cx="37.4999978" cy="242.89999" r="3.2999998"></circle>
                                            <circle id="Oval-4" fill="#443C77" cx="37.4999978" cy="260.899989" r="3.2999998"></circle>
                                            <path d="M29.0999983,172.699994 L46.4999972,172.699994 L46.4999972,195.590223 L46.2151495,195.856946 C43.4965656,198.40255 40.6987438,199.699992 37.8369118,199.699992 C34.977577,199.699992 32.1580021,198.40478 29.3911037,195.86275 L29.0999983,195.595303 L29.0999983,172.699994 Z" id="Rectangle-7" stroke="#443C77" stroke-width="1.79999989" fill="#FCF2ED"></path>
                                            <ellipse id="Oval-5" stroke="#443C77" stroke-width="1.79999989" fill="#FCF2ED" cx="8.69999948" cy="138.199996" rx="9.59999943" ry="10.4999994"></ellipse>
                                            <circle id="Oval-4" fill="#443C77" cx="8.69999948" cy="138.499996" r="3.2999998"></circle>
                                            <ellipse id="Oval-5" stroke="#443C77" stroke-width="1.79999989" fill="#FCF2ED" cx="66.299996" cy="138.199996" rx="9.59999943" ry="10.4999994"></ellipse>
                                            <circle id="Oval-4" fill="#443C77" cx="66.899996" cy="138.499996" r="3.2999998"></circle>
                                            <rect id="Rectangle-4" stroke="#443C77" stroke-width="1.79999989" fill="#FCF2ED" x="8.69999948" y="99.4999981" width="58.1999965" height="79.1999953" rx="29.0999983"></rect>
                                            <circle id="Oval-4" fill="#443C77" cx="26.6999984" cy="137.299996" r="3.2999998"></circle>
                                            <circle id="Oval-4" fill="#443C77" cx="47.6999972" cy="137.299996" r="3.2999998"></circle>
                                            <rect id="Rectangle-6" fill="#DAB9A9" x="35.3999979" y="143.599995" width="4.79999971" height="8.3999995" rx="2.39999986"></rect>
                                            <path d="M24.5402329,157.678901 C32.7292949,164.058588 41.5894506,164.058588 51.1207001,157.678901" id="Path-2" stroke="#443C77" stroke-width="1.79999989" stroke-linecap="round"></path>
                                            <path d="M56.2992154,94.3934998 C59.7315144,92.8910653 62.9423148,89.6691502 65.9140401,84.6935863 L67.1352416,82.6489268 L67.5714872,84.9902204 C70.5094718,100.758141 70.3198167,119.089785 67.538972,127.283764 L67.3316931,127.894528 L66.6867148,127.894528 C63.3938804,127.894528 60.8833591,125.434903 59.1269139,120.728454 C44.5398365,124.923455 30.891914,124.927166 18.205178,120.729043 C15.7497753,125.454788 12.6726314,127.894528 8.97890571,127.894528 L8.22559353,127.894528 L8.09296447,127.152983 C5.85058016,114.615545 7.15929506,105.471433 12.1123039,99.7610682 C16.6957222,94.4768075 22.6244227,91.6500508 30.0111169,90.5557868 C33.9390558,89.9739023 37.2417989,89.9029253 43.5675313,90.0579295 C50.8455396,90.2362681 53.2279302,90.0672053 54.893316,88.9353304 L56.2992154,87.9798146 L56.2992154,89.6796862 C56.2992154,92.1748944 56.2992154,92.5981202 56.2992154,94.3935794 Z" id="Path-3" stroke="#443C77" stroke-width="1.79999989" fill="#A0AAB4"></path>
                                            <path d="M22.430858,201.473039 C33.0347637,210.928116 43.1216771,210.928116 52.6915984,201.473039" id="Path-4" stroke="#443C77" stroke-width="1.79999989" stroke-linecap="round"></path>
                                            <path d="M5.83189922,105.541998 L5.80799966,105.541998 L5.80799966,22.2829993 L70.9919958,22.2829993 L70.9919958,105.541998 L70.9680962,105.541998 C70.9840086,105.714985 70.9919958,105.888524 70.9919958,106.062498 C70.9919958,113.518515 56.3685539,119.191997 38.3999977,119.191997 C20.4314415,119.191997 5.80799966,113.518515 5.80799966,106.062498 C5.80799966,105.888524 5.81598677,105.714985 5.83189947,105.541998 Z" id="Combined-Shape" stroke="#443C77" stroke-width="1.5839999" fill="#FFFFFF"></path>
                                            <path d="M37.9933571,118.798434 L37.9933571,102.505857" id="Path-6" stroke="#443C77" stroke-width="1.79999989" stroke-linecap="round"></path>
                                            <path d="M49.9933564,117.598435 L49.9933564,101.305857" id="Path-6" stroke="#443C77" stroke-width="1.79999989" stroke-linecap="round"></path>
                                            <path d="M60.1933558,114.598435 L60.1933558,98.3058576" id="Path-6" stroke="#443C77" stroke-width="1.79999989" stroke-linecap="round"></path>
                                            <path d="M15.7933584,114.598435 L15.7933584,98.3058576" id="Path-6" stroke="#443C77" stroke-width="1.79999989" stroke-linecap="round" transform="translate(15.793358, 106.452146) scale(-1, 1) translate(-15.793358, -106.452146) "></path>
                                            <path d="M25.9933578,117.598435 L25.9933578,101.305857" id="Path-6" stroke="#443C77" stroke-width="1.79999989" stroke-linecap="round" transform="translate(25.993358, 109.452146) scale(-1, 1) translate(-25.993358, -109.452146) "></path>
                                        </g>
                                        <g id="Charact1" transform="translate(0.000000, 75.000000)">
                                            <rect id="Rectangle-8" stroke="#443C77" stroke-width="1.79999989" fill="#9B9B9B" x="-0.899999946" y="114.899993" width="77.9999954" height="98.3999941" rx="38.9999977"></rect>
                                            <path d="M29.0999983,97.4999942 L46.4999972,97.4999942 L46.4999972,120.390223 L46.2151495,120.656946 C43.4965656,123.20255 40.6987438,124.499993 37.8369118,124.499993 C34.977577,124.499993 32.1580021,123.20478 29.3911037,120.66275 L29.0999983,120.395303 L29.0999983,97.4999942 Z" id="Rectangle-7" stroke="#443C77" stroke-width="1.79999989" fill="#FCF2ED"></path>
                                            <ellipse id="Oval-5" stroke="#443C77" stroke-width="1.79999989" fill="#FCF2ED" cx="8.69999948" cy="62.9999962" rx="9.59999943" ry="10.4999994"></ellipse>
                                            <circle id="Oval-4" fill="#443C77" cx="8.69999948" cy="63.2999962" r="3.2999998"></circle>
                                            <ellipse id="Oval-5" stroke="#443C77" stroke-width="1.79999989" fill="#FCF2ED" cx="66.299996" cy="62.9999962" rx="9.59999943" ry="10.4999994"></ellipse>
                                            <circle id="Oval-4" fill="#443C77" cx="66.899996" cy="63.2999962" r="3.2999998"></circle>
                                            <rect id="Rectangle-4" stroke="#443C77" stroke-width="1.79999989" fill="#FCF2ED" x="8.69999948" y="24.2999986" width="58.1999965" height="79.1999953" rx="29.0999983"></rect>
                                            <ellipse id="Oval-9" fill="#E6D9D2" cx="37.7999977" cy="52.1999969" rx="28.1999983" ry="11.9999993"></ellipse>
                                            <circle id="Oval-4" fill="#443C77" cx="26.6999984" cy="62.0999963" r="3.2999998"></circle>
                                            <circle id="Oval-4" fill="#443C77" cx="47.6999972" cy="62.0999963" r="3.2999998"></circle>
                                            <rect id="Rectangle-6" fill="#DAB9A9" x="35.3999979" y="68.3999959" width="4.79999971" height="8.3999995" rx="2.39999986"></rect>
                                            <path d="M24.5402329,82.4789013 C32.7292949,88.8585885 41.5894506,88.8585885 51.1207001,82.4789013" id="Path-2" stroke="#443C77" stroke-width="1.79999989" stroke-linecap="round"></path>
                                            <path d="M53.7427318,34.2806232 C53.9880549,33.9439384 54.2896101,33.4881776 54.6265408,32.9240541 L55.8477423,30.8793946 L56.2839878,33.2206882 C57.2553588,38.433956 58.9807287,41.6758237 61.404728,43.7818304 C62.0591491,44.3504011 62.7462445,44.8248933 63.5723016,45.3050628 C63.9510623,45.5252283 65.2974558,46.2526454 65.5820257,46.4188312 C67.8532082,47.7451776 68.505215,49.2366529 67.538972,52.0837643 L67.3316931,52.6945281 L66.6867148,52.6945281 C63.3938804,52.6945281 60.8833591,50.2349039 59.1269139,45.5284539 C44.5398365,49.7234555 30.891914,49.727166 18.205178,45.5290432 C15.7497753,50.2547881 12.6726314,52.6945281 8.97890571,52.6945281 L8.22559353,52.6945281 L8.09296447,51.9529832 C5.85058016,39.4155457 7.15929506,30.2714332 12.1123039,24.5610686 C16.6957222,19.2768079 22.6244227,16.4500513 30.0111169,15.3557872 C33.9390558,14.7739028 37.2417989,14.7029257 43.5675313,14.8579299 C50.8455396,15.0362685 53.2279302,14.8672058 54.893316,13.7353308 L56.2992154,12.779815 L56.2992154,14.4796866 C56.2992154,17.4845693 56.2992154,17.4845693 56.2992154,20.4949207 L56.2746712,20.7036721 C54.6304066,27.5993395 53.7856084,32.1525198 53.7427318,34.2806232 Z" id="Path-3" stroke="#443C77" stroke-width="1.79999989" fill="#FFA171"></path>
                                            <ellipse id="Oval-8" stroke="#443C77" stroke-width="1.79999989" fill="#FFF89D" cx="37.7999977" cy="39.8999976" rx="37.4999978" ry="17.9999989"></ellipse>
                                            <path d="M3.349009,35.7624489 C3.31637249,35.1438185 3.2999998,34.5228611 3.2999998,33.899998 C3.2999998,14.6804898 18.8804896,-0.899999946 38.0999977,-0.899999946 C57.3195059,-0.899999946 72.8999957,14.6804898 72.8999957,33.899998 C72.8999957,34.5228611 72.883623,35.1438185 72.8509865,35.7624489 L72.8260385,36.2353407 L72.4221696,36.4826037 C63.2302194,42.1102427 51.0519154,45.2999973 38.0999977,45.2999973 C25.1480801,45.2999973 12.969776,42.1102427 3.77782587,36.4826037 L3.37395693,36.2353407 L3.349009,35.7624489 Z" id="Combined-Shape" stroke="#443C77" stroke-width="1.79999989" fill="#FFF89D"></path>
                                            <path d="M22.430858,126.273039 C33.0347637,135.728117 43.1216771,135.728117 52.6915984,126.273039" id="Path-4" stroke="#443C77" stroke-width="1.79999989" stroke-linecap="round"></path>
                                            <path d="M17.9671864,6.15820276 L24.4605454,24.8308579" id="Path-5" stroke="#443C77" stroke-width="1.79999989" stroke-linecap="round"></path>
                                            <path d="M52.1671844,6.15820276 L58.6605434,24.8308579" id="Path-5" stroke="#443C77" stroke-width="1.79999989" stroke-linecap="round" transform="translate(55.413864, 15.494530) scale(-1, 1) translate(-55.413864, -15.494530) "></path>
                                        </g>
                                    </g>
                                </g>
                            </g>
                        </g>
                        <path d="M56.2151966,201.553589 L56.2151966,203.799989 L45.9767973,203.799989 L45.9767973,201.747989 L51.160797,196.17519 C51.7655999,195.512786 52.2083955,194.904392 52.4891969,194.34999 C52.7699983,193.795587 52.9103968,193.244793 52.9103968,192.69759 C52.9103968,192.006386 52.7123988,191.484392 52.3163969,191.13159 C51.9203949,190.778788 51.3408008,190.60239 50.577597,190.60239 C49.2095902,190.60239 47.8344041,191.127985 46.4519972,192.17919 L45.5231973,190.14879 C46.1280003,189.615987 46.9019925,189.187592 47.8451971,188.86359 C48.7884018,188.539588 49.7351923,188.37759 50.685597,188.37759 C52.2120045,188.37759 53.4215924,188.751986 54.3143968,189.50079 C55.2072012,190.249594 55.6535967,191.257584 55.6535967,192.52479 C55.6535967,193.403194 55.4663986,194.227586 55.0919967,194.99799 C54.7175949,195.768393 54.0840012,196.628785 53.1911968,197.57919 L49.4543971,201.553589 L56.2151966,201.553589 Z M63.8615962,203.994389 C62.0615873,203.994389 60.6864011,203.328396 59.7359964,201.996389 C58.7855917,200.664383 58.3103965,198.724002 58.3103965,196.17519 C58.3103965,193.655177 58.7855917,191.732797 59.7359964,190.40799 C60.6864011,189.083183 62.0615873,188.42079 63.8615962,188.42079 C65.6616051,188.42079 67.0367913,189.083183 67.9871959,190.40799 C68.9376006,191.732797 69.4127959,193.655177 69.4127959,196.17519 C69.4127959,198.709602 68.9376006,200.646383 67.9871959,201.985589 C67.0367913,203.324796 65.6616051,203.994389 63.8615962,203.994389 Z M63.8615962,201.812789 C64.840801,201.812789 65.5535939,201.362794 65.9999961,200.462789 C66.4463983,199.562785 66.669596,198.133599 66.669596,196.17519 C66.669596,194.23118 66.4463983,192.816394 65.9999961,191.93079 C65.5535939,191.045185 64.840801,190.60239 63.8615962,190.60239 C62.8823914,190.60239 62.1695985,191.045185 61.7231963,191.93079 C61.2767941,192.816394 61.0535964,194.23118 61.0535964,196.17519 C61.0535964,198.133599 61.2767941,199.562785 61.7231963,200.462789 C62.1695985,201.362794 62.8823914,201.812789 63.8615962,201.812789 Z M78.8951953,201.553589 L82.1999951,201.553589 L82.1999951,203.799989 L72.8039957,203.799989 L72.8039957,201.553589 L76.1087955,201.553589 L76.1087955,191.74719 L73.4951956,193.32399 L72.3935957,191.29359 L76.9079954,188.57199 L78.8951953,188.57199 L78.8951953,201.553589 Z M89.7815946,203.994389 C87.9815858,203.994389 86.6063996,203.328396 85.6559949,201.996389 C84.7055902,200.664383 84.230395,198.724002 84.230395,196.17519 C84.230395,193.655177 84.7055902,191.732797 85.6559949,190.40799 C86.6063996,189.083183 87.9815858,188.42079 89.7815946,188.42079 C91.5816035,188.42079 92.9567897,189.083183 93.9071944,190.40799 C94.8575991,191.732797 95.3327943,193.655177 95.3327943,196.17519 C95.3327943,198.709602 94.8575991,200.646383 93.9071944,201.985589 C92.9567897,203.324796 91.5816035,203.994389 89.7815946,203.994389 Z M89.7815946,201.812789 C90.7607995,201.812789 91.4735923,201.362794 91.9199945,200.462789 C92.3663967,199.562785 92.5895945,198.133599 92.5895945,196.17519 C92.5895945,194.23118 92.3663967,192.816394 91.9199945,191.93079 C91.4735923,191.045185 90.7607995,190.60239 89.7815946,190.60239 C88.8023898,190.60239 88.089597,191.045185 87.6431948,191.93079 C87.1967926,192.816394 86.9735948,194.23118 86.9735948,196.17519 C86.9735948,198.133599 87.1967926,199.562785 87.6431948,200.462789 C88.089597,201.362794 88.8023898,201.812789 89.7815946,201.812789 Z" id="2010" fill="#443C77"></path>
                        <path d="M158.815191,201.553589 L158.815191,203.799989 L148.576791,203.799989 L148.576791,201.747989 L153.760791,196.17519 C154.365594,195.512786 154.808389,194.904392 155.089191,194.34999 C155.369992,193.795587 155.510391,193.244793 155.510391,192.69759 C155.510391,192.006386 155.312393,191.484392 154.916391,191.13159 C154.520389,190.778788 153.940795,190.60239 153.177591,190.60239 C151.809584,190.60239 150.434398,191.127985 149.051991,192.17919 L148.123191,190.14879 C148.727994,189.615987 149.501986,189.187592 150.445191,188.86359 C151.388396,188.539588 152.335186,188.37759 153.285591,188.37759 C154.811998,188.37759 156.021586,188.751986 156.914391,189.50079 C157.807195,190.249594 158.253591,191.257584 158.253591,192.52479 C158.253591,193.403194 158.066392,194.227586 157.691991,194.99799 C157.317589,195.768393 156.683995,196.628785 155.791191,197.57919 L152.054391,201.553589 L158.815191,201.553589 Z M166.46159,203.994389 C164.661581,203.994389 163.286395,203.328396 162.33599,201.996389 C161.385586,200.664383 160.91039,198.724002 160.91039,196.17519 C160.91039,193.655177 161.385586,191.732797 162.33599,190.40799 C163.286395,189.083183 164.661581,188.42079 166.46159,188.42079 C168.261599,188.42079 169.636785,189.083183 170.58719,190.40799 C171.537595,191.732797 172.01279,193.655177 172.01279,196.17519 C172.01279,198.709602 171.537595,200.646383 170.58719,201.985589 C169.636785,203.324796 168.261599,203.994389 166.46159,203.994389 Z M166.46159,201.812789 C167.440795,201.812789 168.153588,201.362794 168.59999,200.462789 C169.046392,199.562785 169.26959,198.133599 169.26959,196.17519 C169.26959,194.23118 169.046392,192.816394 168.59999,191.93079 C168.153588,191.045185 167.440795,190.60239 166.46159,190.60239 C165.482385,190.60239 164.769592,191.045185 164.32319,191.93079 C163.876788,192.816394 163.65359,194.23118 163.65359,196.17519 C163.65359,198.133599 163.876788,199.562785 164.32319,200.462789 C164.769592,201.362794 165.482385,201.812789 166.46159,201.812789 Z M181.495189,201.553589 L184.799989,201.553589 L184.799989,203.799989 L175.40399,203.799989 L175.40399,201.553589 L178.708789,201.553589 L178.708789,191.74719 L176.09519,193.32399 L174.99359,191.29359 L179.507989,188.57199 L181.495189,188.57199 L181.495189,201.553589 Z M198.278388,198.659189 L198.278388,200.819189 L196.139988,200.819189 L196.139988,203.799989 L193.418388,203.799989 L193.418388,200.819189 L186.808789,200.819189 L186.808789,198.767189 L193.893588,188.57199 L196.139988,188.57199 L196.139988,198.659189 L198.278388,198.659189 Z M189.400789,198.659189 L193.418388,198.659189 L193.418388,192.84879 L189.400789,198.659189 Z" id="2014" fill="#443C77"></path>
                        <g id="DE" transform="translate(296.399982, 173.999990)">
                            <path d="M76.6936905,158.354673 C66.480921,165.054945 52.4683679,168.89999 37.4999978,168.89999 C23.1342583,168.89999 9.63977766,165.359992 -0.47201981,159.131303 L-0.899999946,158.867675 L-0.899999946,144.299991 C-0.899999946,122.760887 16.5608938,105.299994 38.0999977,105.299994 C59.6391017,105.299994 77.0999954,122.760887 77.0999954,144.299991 L77.0999954,158.088109 L76.6936905,158.354673 Z" id="Combined-Shape" stroke="#443C77" stroke-width="1.79999989" fill="#8FE0FF"></path>
                            <path d="M29.0999983,87.8999948 L46.4999972,87.8999948 L46.4999972,110.790224 L46.2151495,111.056947 C43.4965656,113.602551 40.6987438,114.899993 37.8369118,114.899993 C34.977577,114.899993 32.1580021,113.604781 29.3911037,111.062751 L29.0999983,110.795304 L29.0999983,87.8999948 Z" id="Rectangle-7" stroke="#443C77" stroke-width="1.79999989" fill="#FCF2ED"></path>
                            <ellipse id="Oval-5" stroke="#443C77" stroke-width="1.79999989" fill="#FCF2ED" cx="8.69999948" cy="53.3999968" rx="9.59999943" ry="10.4999994"></ellipse>
                            <circle id="Oval-4" fill="#443C77" cx="8.69999948" cy="53.6999968" r="3.2999998"></circle>
                            <ellipse id="Oval-5" stroke="#443C77" stroke-width="1.79999989" fill="#FCF2ED" cx="66.299996" cy="53.3999968" rx="9.59999943" ry="10.4999994"></ellipse>
                            <circle id="Oval-4" fill="#443C77" cx="66.899996" cy="53.6999968" r="3.2999998"></circle>
                            <rect id="Rectangle-4" stroke="#443C77" stroke-width="1.79999989" fill="#FCF2ED" x="8.69999948" y="14.6999991" width="58.1999965" height="79.1999953" rx="29.0999983"></rect>
                            <circle id="Oval-4" fill="#443C77" cx="26.6999984" cy="52.4999969" r="3.2999998"></circle>
                            <circle id="Oval-4" fill="#443C77" cx="47.6999972" cy="52.4999969" r="3.2999998"></circle>
                            <rect id="Rectangle-6" fill="#DAB9A9" x="35.3999979" y="58.7999965" width="4.79999971" height="8.3999995" rx="2.39999986"></rect>
                            <path d="M24.5402329,72.8789019 C32.7292949,79.258589 41.5894506,79.258589 51.1207001,72.8789019" id="Path-2" stroke="#443C77" stroke-width="1.79999989" stroke-linecap="round"></path>
                            <path d="M56.2992154,9.59350083 C59.7315144,8.09106635 62.9423148,4.86915124 65.9140401,-0.106412682 L67.1352416,-2.15107217 L67.5714872,0.190221384 C70.5094718,15.958142 70.3198167,34.2897857 67.538972,42.4837649 L67.3316931,43.0945287 L66.6867148,43.0945287 C63.3938804,43.0945287 60.8833591,40.6349045 59.1269139,35.9284545 C44.5398365,40.1234561 30.891914,40.1271666 18.205178,35.9290438 C15.7497753,40.6547887 12.6726314,43.0945287 8.97890571,43.0945287 L8.22559353,43.0945287 L8.09296447,42.3529838 C5.85058016,29.8155463 7.15929506,20.6714338 12.1123039,14.9610692 C16.6957222,9.67680851 22.6244227,6.85005185 30.0111169,5.75578776 C33.9390558,5.17390333 37.2417989,5.10292627 43.5675313,5.25793051 C50.8455396,5.4362691 53.2279302,5.26720634 54.893316,4.13533135 L56.2992154,3.17981559 L56.2992154,4.87968721 C56.2992154,7.3748954 56.2992154,7.7981212 56.2992154,9.59358035 Z" id="Path-3" stroke="#443C77" stroke-width="1.79999989" fill="#A0AAB4"></path>
                            <path d="M22.430858,116.67304 C33.0347637,126.128117 43.1216771,126.128117 52.6915984,116.67304" id="Path-4" stroke="#443C77" stroke-width="1.79999989" stroke-linecap="round"></path>
                        </g>
                    </g>
                    <g id="Desk" transform="translate(281.799987, 328.799980)" stroke="#443C77" stroke-width="1.79999989">
                        <g id="Bureau">
                            <path d="M36.1747369,-0.899999946 L207.383887,-0.899999946 L251.109912,44.6999973 L-1.3047129,44.6999973 L36.1747369,-0.899999946 Z" id="Rectangle-12" fill="#DCD0C7"></path>
                            <rect id="Rectangle-13" fill="#AEA197" x="-0.899999946" y="44.6999973" width="251.999985" height="12.5999992"></rect>
                        </g>
                        <g id="Livre" transform="translate(73.000000, 5.000000)">
                            <path d="M11.5862058,2.49999955 L48.4999928,2.49999955 L48.4999928,34.8999976 L-1.11967576,34.8999976 L11.5862058,2.49999955 Z" id="Rectangle-14" fill="#FFFFFF"></path>
                            <path d="M60.7862029,2.49999955 L97.6999898,2.49999955 L97.6999898,34.8999976 L48.0803213,34.8999976 L60.7862029,2.49999955 Z" id="Rectangle-14" fill="#ECECEC" transform="translate(73.099991, 18.699999) scale(-1, 1) translate(-73.099991, -18.699999) "></path>
                            <path d="M11.5862058,-0.500000268 L48.4999928,-0.500000268 L48.4999928,31.8999978 L-1.11967576,31.8999978 L11.5862058,-0.500000268 Z" id="Rectangle-14" fill="#FFFFFF"></path>
                            <path d="M60.7862029,-0.500000268 L97.6999898,-0.500000268 L97.6999898,31.8999978 L48.0803213,31.8999978 L60.7862029,-0.500000268 Z" id="Rectangle-14" fill="#ECECEC" transform="translate(73.099991, 15.699999) scale(-1, 1) translate(-73.099991, -15.699999) "></path>
                            <path d="M41.8999932,24.6999982 L9.49999508,24.6999982" id="Line-3" stroke-linecap="round"></path>
                            <path d="M41.8999932,18.6999986 L11.8999949,18.6999986" id="Line-3" stroke-linecap="round"></path>
                            <path d="M41.8999932,12.6999989 L29.2999939,12.6999989" id="Line-3" stroke-linecap="round"></path>
                            <path d="M87.4999904,24.6999982 L55.0999924,24.6999982" id="Line-3" stroke-linecap="round"></path>
                            <path d="M72.4999913,18.6999986 L54.4999924,18.6999986" id="Line-3" stroke-linecap="round"></path>
                            <path d="M61.699992,12.6999989 L54.4999924,12.6999989" id="Line-3" stroke-linecap="round"></path>
                        </g>
                        <rect id="Stylo" fill="#FFFFFF" transform="translate(66.791012, 16.522265) rotate(28.000000) translate(-66.791012, -16.522265) " x="64.0910118" y="3.02226544" width="5.39999968" height="26.9999984" rx="2.69999984"></rect>
                    </g>
                </g>
            </g>
        </g>
    </g>
</svg>